<svg id="Layer_1" data-name="Layer 1" xmlns="http://www.w3.org/2000/svg" xmlns:xlink="http://www.w3.org/1999/xlink" viewBox="0 0 255.12 127.56"><defs><style>.cls-1{fill:none;}.cls-2{fill:#484847;}.cls-3{fill:#3eaae0;}.cls-4{fill:#231f20;}.cls-5{fill:#425eab;}.cls-6{clip-path:url(#clip-path);}</style><clipPath id="clip-path"><rect class="cls-1" width="255.12" height="127.56"/></clipPath></defs><title>Artboard 1</title><polygon class="cls-2" points="23.53 48.55 25.8 37.72 35.36 40.56 23.53 48.55"/><polygon class="cls-3" points="21.5 36.58 35.36 40.69 26.66 33.39 21.5 36.58"/><path class="cls-2" d="M37.41,44.86l1.33-9.44q1.78-.12,3.38-.12a5.45,5.45,0,0,1,2.42.44,2.31,2.31,0,0,1,1.17,1.52,7.53,7.53,0,0,1,0,3,12.85,12.85,0,0,1-.55,2.46,3.36,3.36,0,0,1-.93,1.44,3.08,3.08,0,0,1-1.33.68A9,9,0,0,1,41,45Q39.43,45,37.41,44.86Zm3.2-7.92-.9,6.39H41a3.79,3.79,0,0,0,1-.12,1.63,1.63,0,0,0,.72-.47,2.39,2.39,0,0,0,.51-1,13,13,0,0,0,.34-1.71,12.89,12.89,0,0,0,.16-1.61,2,2,0,0,0-.18-.94A.89.89,0,0,0,43,37a3.35,3.35,0,0,0-1-.11Z"/><path class="cls-2" d="M52,38.11h2.13a21.32,21.32,0,0,1-.86,3.18,19.29,19.29,0,0,1-1.2,2.78,7.59,7.59,0,0,1-2.2,2.66,5.59,5.59,0,0,1-2.78.92l-.25-1.24a7.55,7.55,0,0,0,1.54-.55,3.59,3.59,0,0,0,1.14-1h-.81a.83.83,0,0,1-.55-.19.88.88,0,0,1-.29-.49l-1.11-6.06H49l.64,5.16a.22.22,0,0,0,.23.22h.55l.05-.12A19.25,19.25,0,0,0,52,38.11Z"/><path class="cls-2" d="M57,38.11v1.34a4.53,4.53,0,0,1,3.08-1.53,1.73,1.73,0,0,1,1.33.5,1.63,1.63,0,0,1,.33,1.42l-.71,5H59l.62-4.42a1.16,1.16,0,0,0,0-.65q-.1-.17-.42-.16a4.09,4.09,0,0,0-2.11,1.07l-.57,4.16h-2l.94-6.74Z"/><path class="cls-2" d="M69.07,44.86H67.49V43.64A3.43,3.43,0,0,1,64.74,45,1.68,1.68,0,0,1,63,44.2a5,5,0,0,1-.16-2.84,7.35,7.35,0,0,1,.38-1.57,3.72,3.72,0,0,1,.55-1,1.89,1.89,0,0,1,.78-.56A3.72,3.72,0,0,1,65.5,38a9.56,9.56,0,0,1,1.13-.05,14.71,14.71,0,0,1,1.74.12,11.81,11.81,0,0,1,1.61.29Zm-1.24-5.44h-1a2,2,0,0,0-1.34.34,3,3,0,0,0-.53,1.63A5.64,5.64,0,0,0,64.82,43q.1.36.59.34a3.08,3.08,0,0,0,2-1.27Z"/><path class="cls-2" d="M73.21,38.11v1.22a6,6,0,0,1,1.37-1.07,2.82,2.82,0,0,1,1.33-.34,1.85,1.85,0,0,1,1.16.33,1.31,1.31,0,0,1,.49.93,3.68,3.68,0,0,1,2.54-1.26,1.68,1.68,0,0,1,1.36.51,1.72,1.72,0,0,1,.31,1.4l-.7,5h-2l.63-4.47a.84.84,0,0,0-.07-.59.5.5,0,0,0-.42-.16,1.47,1.47,0,0,0-.73.22,6.81,6.81,0,0,0-1,.81l-.59,4.2H74.92l.62-4.47a.87.87,0,0,0,0-.58.48.48,0,0,0-.44-.17,1.56,1.56,0,0,0-.75.21,6.3,6.3,0,0,0-1,.76l-.59,4.25h-2l.94-6.74Z"/><path class="cls-2" d="M84.74,44.86h-2l.94-6.74h2Zm-.11-9.73h.85q.64,0,.57.63l-.1.74a.59.59,0,0,1-.66.55h-.86q-.63,0-.55-.63l.1-.73A.57.57,0,0,1,84.63,35.13Z"/><path class="cls-2" d="M89.85,42.44l-1.63-.67a2.36,2.36,0,0,1-1.15-.83,1.85,1.85,0,0,1-.23-1.27,1.67,1.67,0,0,1,.81-1.34,4.47,4.47,0,0,1,2.21-.4A18,18,0,0,1,93,38.2l-.19,1.29-2.67,0a5.64,5.64,0,0,0-1.05.06.36.36,0,0,0-.3.29.35.35,0,0,0,.13.35,3,3,0,0,0,.61.29l1.66.66a2.61,2.61,0,0,1,1.18.79,1.69,1.69,0,0,1,.25,1.24,2.48,2.48,0,0,1-.32,1,1.46,1.46,0,0,1-.69.57,3.54,3.54,0,0,1-1,.25,11.67,11.67,0,0,1-1.33.06,21.63,21.63,0,0,1-3-.25l.19-1.3q.49,0,2.15,0a9.27,9.27,0,0,0,1.56-.08q.38-.08.44-.36a.3.3,0,0,0-.1-.3,2.59,2.59,0,0,0-.51-.25Z"/><path class="cls-4" d="M38.95,62.27H38V57.12h1Z"/><path class="cls-4" d="M43.18,58.62l-1.45,3.66h-.8l-1.45-3.66h.73a.28.28,0,0,1,.17,0,.22.22,0,0,1,.09.12l.71,2c0,.11.07.23.1.33s.05.22.07.33l.08-.33q0-.16.1-.33l.72-2a.24.24,0,0,1,.09-.12.26.26,0,0,1,.15,0Z"/><path class="cls-4" d="M43.47,59.13A2.17,2.17,0,0,1,45,58.55a1.48,1.48,0,0,1,.57.11,1.2,1.2,0,0,1,.43.29,1.25,1.25,0,0,1,.27.45,1.72,1.72,0,0,1,.09.57v2.31H46a.41.41,0,0,1-.19,0,.26.26,0,0,1-.11-.15l-.08-.26L45.3,62a1.62,1.62,0,0,1-.27.16,1.48,1.48,0,0,1-.3.1,1.73,1.73,0,0,1-.36,0,1.41,1.41,0,0,1-.43-.06.94.94,0,0,1-.34-.19.84.84,0,0,1-.22-.31,1.1,1.1,0,0,1-.08-.43.85.85,0,0,1,0-.28.81.81,0,0,1,.15-.26,1.27,1.27,0,0,1,.27-.24,1.77,1.77,0,0,1,.41-.19,3.57,3.57,0,0,1,.57-.13,5.76,5.76,0,0,1,.74-.06V60a.8.8,0,0,0-.16-.54.57.57,0,0,0-.45-.18,1.08,1.08,0,0,0-.35,0l-.25.11-.19.11a.38.38,0,0,1-.19.05.25.25,0,0,1-.16,0,.4.4,0,0,1-.1-.11Zm2,1.59a4.81,4.81,0,0,0-.64.07,1.68,1.68,0,0,0-.42.12.54.54,0,0,0-.22.17.38.38,0,0,0-.07.22.38.38,0,0,0,.14.33.6.6,0,0,0,.36.1,1,1,0,0,0,.47-.1,1.4,1.4,0,0,0,.39-.3Zm.65-3.65-.88.93a.4.4,0,0,1-.13.1.41.41,0,0,1-.16,0h-.53l.51-.87a.42.42,0,0,1,.12-.14.39.39,0,0,1,.21,0Z"/><path class="cls-4" d="M48,59.06l.23-.21a1.48,1.48,0,0,1,.26-.16,1.45,1.45,0,0,1,.29-.1,1.48,1.48,0,0,1,.34,0,1.32,1.32,0,0,1,.53.1,1.05,1.05,0,0,1,.39.29,1.26,1.26,0,0,1,.24.44,1.87,1.87,0,0,1,.08.56v2.33h-.88V59.95a.79.79,0,0,0-.15-.52.57.57,0,0,0-.47-.18.92.92,0,0,0-.43.1,1.54,1.54,0,0,0-.38.28v2.65h-.88V58.62h.54a.22.22,0,0,1,.22.16Z"/><path class="cls-4" d="M56.09,61.48v.79h-3V57.12h1v4.36Z"/><path class="cls-4" d="M57.13,60.56a1.73,1.73,0,0,0,.1.49,1,1,0,0,0,.21.34.81.81,0,0,0,.31.2,1.11,1.11,0,0,0,.39.07,1.21,1.21,0,0,0,.37,0l.27-.11.2-.11a.34.34,0,0,1,.17,0,.18.18,0,0,1,.16.08l.25.32a1.47,1.47,0,0,1-.33.29,1.84,1.84,0,0,1-.38.19,2.07,2.07,0,0,1-.4.1l-.4,0a2,2,0,0,1-.71-.13,1.58,1.58,0,0,1-.57-.37,1.76,1.76,0,0,1-.38-.61,2.37,2.37,0,0,1-.14-.85,2,2,0,0,1,.12-.7,1.7,1.7,0,0,1,.35-.57,1.64,1.64,0,0,1,.55-.39,1.83,1.83,0,0,1,.74-.14,1.79,1.79,0,0,1,.64.11,1.4,1.4,0,0,1,.5.32,1.5,1.5,0,0,1,.33.52,1.94,1.94,0,0,1,.12.7.57.57,0,0,1,0,.27.18.18,0,0,1-.16.07ZM58.81,60a1.05,1.05,0,0,0,0-.32.76.76,0,0,0-.14-.27.67.67,0,0,0-.24-.18.84.84,0,0,0-.34-.07.81.81,0,0,0-.6.22,1.07,1.07,0,0,0-.28.62Z"/><path class="cls-4" d="M60.94,60.56A1.73,1.73,0,0,0,61,61a1,1,0,0,0,.21.34.81.81,0,0,0,.31.2,1.11,1.11,0,0,0,.39.07,1.21,1.21,0,0,0,.37,0l.27-.11.2-.11a.34.34,0,0,1,.17,0,.18.18,0,0,1,.16.08l.25.32A1.47,1.47,0,0,1,63,62a1.84,1.84,0,0,1-.38.19,2.07,2.07,0,0,1-.4.1l-.4,0a2,2,0,0,1-.71-.13,1.58,1.58,0,0,1-.57-.37,1.76,1.76,0,0,1-.38-.61,2.37,2.37,0,0,1-.14-.85,2,2,0,0,1,.12-.7,1.7,1.7,0,0,1,.35-.57,1.64,1.64,0,0,1,.55-.39,1.83,1.83,0,0,1,.74-.14,1.79,1.79,0,0,1,.64.11A1.4,1.4,0,0,1,63,59a1.5,1.5,0,0,1,.33.52,1.94,1.94,0,0,1,.12.7.57.57,0,0,1,0,.27.18.18,0,0,1-.16.07ZM62.62,60a1.05,1.05,0,0,0,0-.32.76.76,0,0,0-.14-.27.67.67,0,0,0-.24-.18.84.84,0,0,0-.34-.07.81.81,0,0,0-.6.22A1.07,1.07,0,0,0,61,60Z"/><path class="cls-4" d="M67.28,58.74v.33c0,.1-.06.17-.19.19l-.33.06a1.11,1.11,0,0,1,.07.41,1.07,1.07,0,0,1-.41.86,1.43,1.43,0,0,1-.45.24,1.85,1.85,0,0,1-.57.08H65.2l-.2,0q-.17.1-.17.23a.17.17,0,0,0,.1.16.83.83,0,0,0,.27.07l.38,0,.44,0,.44.06a1.28,1.28,0,0,1,.38.14.74.74,0,0,1,.27.26.8.8,0,0,1,.1.43,1,1,0,0,1-.12.47,1.27,1.27,0,0,1-.35.41,1.8,1.8,0,0,1-.56.29,2.38,2.38,0,0,1-.75.11,2.88,2.88,0,0,1-.72-.08,1.72,1.72,0,0,1-.51-.21.92.92,0,0,1-.3-.31.73.73,0,0,1-.1-.36.62.62,0,0,1,.15-.43,1.08,1.08,0,0,1,.43-.28.61.61,0,0,1-.23-.2.57.57,0,0,1-.09-.33.52.52,0,0,1,0-.17.73.73,0,0,1,.09-.17.85.85,0,0,1,.15-.16,1,1,0,0,1,.21-.14,1.15,1.15,0,0,1-.44-.4,1.06,1.06,0,0,1-.16-.58,1.08,1.08,0,0,1,.11-.49,1.1,1.1,0,0,1,.3-.37,1.38,1.38,0,0,1,.46-.24,2.08,2.08,0,0,1,1,0,1.51,1.51,0,0,1,.38.14Zm-.88,3.7a.24.24,0,0,0-.06-.17.42.42,0,0,0-.17-.1l-.26-.06-.31,0-.34,0-.34,0a.83.83,0,0,0-.24.19.39.39,0,0,0-.09.26.36.36,0,0,0,0,.18.4.4,0,0,0,.15.14.92.92,0,0,0,.27.09,2.12,2.12,0,0,0,.41,0,2.1,2.1,0,0,0,.42,0,1,1,0,0,0,.29-.1.45.45,0,0,0,.17-.16A.38.38,0,0,0,66.4,62.44Zm-1-2.08a.82.82,0,0,0,.29,0,.56.56,0,0,0,.2-.12A.51.51,0,0,0,66,60a.69.69,0,0,0,0-.24.57.57,0,0,0-.16-.43.83.83,0,0,0-1,0,.57.57,0,0,0-.16.43.68.68,0,0,0,0,.24.53.53,0,0,0,.12.19.55.55,0,0,0,.2.12A.83.83,0,0,0,65.41,60.36Z"/><path class="cls-4" d="M70.07,59.33a.24.24,0,0,1-.07.08l-.1,0a.31.31,0,0,1-.14,0l-.17-.08-.22-.08a1,1,0,0,0-.29,0,.67.67,0,0,0-.41.11.34.34,0,0,0-.15.29.28.28,0,0,0,.08.2.69.69,0,0,0,.2.14l.29.11.33.1.33.13a1.14,1.14,0,0,1,.29.19.86.86,0,0,1,.2.27.85.85,0,0,1,.08.38,1.24,1.24,0,0,1-.09.49,1,1,0,0,1-.28.38,1.32,1.32,0,0,1-.46.25,2,2,0,0,1-.63.09,2,2,0,0,1-.37,0,2.16,2.16,0,0,1-.35-.09,1.94,1.94,0,0,1-.31-.14,1.5,1.5,0,0,1-.25-.18l.2-.34a.29.29,0,0,1,.09-.09.26.26,0,0,1,.14,0,.29.29,0,0,1,.16,0l.17.1.23.1a1,1,0,0,0,.33,0,.86.86,0,0,0,.27,0,.56.56,0,0,0,.19-.1.37.37,0,0,0,.11-.14.43.43,0,0,0,0-.17.3.3,0,0,0-.08-.21.67.67,0,0,0-.2-.14l-.29-.11-.33-.1-.33-.13a1.12,1.12,0,0,1-.29-.19.87.87,0,0,1-.2-.29,1,1,0,0,1-.08-.41,1.06,1.06,0,0,1,.09-.43,1,1,0,0,1,.26-.35,1.31,1.31,0,0,1,.43-.24,1.8,1.8,0,0,1,.6-.09,1.82,1.82,0,0,1,.69.13,1.55,1.55,0,0,1,.52.33Z"/><path class="cls-4" d="M72.19,62.33a1,1,0,0,1-.73-.27,1,1,0,0,1-.26-.74v-2h-.37a.17.17,0,0,1-.12,0,.18.18,0,0,1,0-.14v-.35l.59-.1.19-1a.19.19,0,0,1,.07-.11.2.2,0,0,1,.13,0h.46v1.15h1v.63h-1v2a.39.39,0,0,0,.08.27.29.29,0,0,0,.23.1l.14,0,.1,0,.07,0,.06,0,.06,0,.05.06.26.43a1.33,1.33,0,0,1-.44.24A1.65,1.65,0,0,1,72.19,62.33Z"/><path class="cls-4" d="M74.45,59.25a1.57,1.57,0,0,1,.41-.52.87.87,0,0,1,.56-.19.68.68,0,0,1,.41.11l-.06.66a.17.17,0,0,1-.05.09.15.15,0,0,1-.09,0l-.16,0-.2,0a.74.74,0,0,0-.26,0,.67.67,0,0,0-.2.12.83.83,0,0,0-.16.19,1.93,1.93,0,0,0-.13.26v2.25h-.88V58.62h.52a.21.21,0,0,1,.26.22Z"/><path class="cls-4" d="M76.15,59.13a2.17,2.17,0,0,1,1.52-.58,1.48,1.48,0,0,1,.57.11,1.2,1.2,0,0,1,.43.29,1.25,1.25,0,0,1,.27.45A1.72,1.72,0,0,1,79,60v2.31h-.4a.41.41,0,0,1-.19,0,.26.26,0,0,1-.11-.15l-.08-.26L78,62a1.62,1.62,0,0,1-.27.16,1.48,1.48,0,0,1-.3.1,1.73,1.73,0,0,1-.36,0,1.41,1.41,0,0,1-.43-.06.94.94,0,0,1-.34-.19.84.84,0,0,1-.22-.31,1.1,1.1,0,0,1-.08-.43.85.85,0,0,1,0-.28.81.81,0,0,1,.15-.26,1.27,1.27,0,0,1,.27-.24,1.77,1.77,0,0,1,.41-.19,3.57,3.57,0,0,1,.57-.13,5.76,5.76,0,0,1,.74-.06V60a.8.8,0,0,0-.16-.54.57.57,0,0,0-.45-.18,1.08,1.08,0,0,0-.35,0l-.25.11-.19.11a.38.38,0,0,1-.19.05.25.25,0,0,1-.16,0,.4.4,0,0,1-.1-.11Zm2,1.59a4.81,4.81,0,0,0-.64.07,1.68,1.68,0,0,0-.42.12.54.54,0,0,0-.22.17.38.38,0,0,0-.07.22.38.38,0,0,0,.14.33.6.6,0,0,0,.36.1,1,1,0,0,0,.47-.1,1.4,1.4,0,0,0,.39-.3Z"/><path class="cls-4" d="M38.28,71.27A5.67,5.67,0,0,0,39,74.13a.2.2,0,0,1,0,.17.24.24,0,0,1-.08.09l-.28.17a6.57,6.57,0,0,1-.45-.81,5.52,5.52,0,0,1-.3-.81,5.59,5.59,0,0,1-.17-.82,6.69,6.69,0,0,1,0-1.69,5.5,5.5,0,0,1,.47-1.63,6.82,6.82,0,0,1,.45-.82l.28.17a.24.24,0,0,1,.08.09.19.19,0,0,1,0,.17,5.67,5.67,0,0,0-.76,2.85Z"/><path class="cls-4" d="M43.23,71a4.13,4.13,0,0,1-.14,1.16,2.44,2.44,0,0,1-.39.81,1.58,1.58,0,0,1-.59.48,1.72,1.72,0,0,1-.73.16,1.71,1.71,0,0,1-.73-.16,1.59,1.59,0,0,1-.59-.48,2.41,2.41,0,0,1-.39-.81,4.8,4.8,0,0,1,0-2.32,2.44,2.44,0,0,1,.39-.82,1.59,1.59,0,0,1,.59-.48,1.71,1.71,0,0,1,.73-.16,1.72,1.72,0,0,1,.73.16,1.58,1.58,0,0,1,.59.48,2.47,2.47,0,0,1,.39.82A4.15,4.15,0,0,1,43.23,71Zm-.66,0a4.2,4.2,0,0,0-.1-1,2,2,0,0,0-.26-.64,1,1,0,0,0-.38-.35,1,1,0,0,0-.91,0,1,1,0,0,0-.38.35,2,2,0,0,0-.26.64,5,5,0,0,0,0,2,2,2,0,0,0,.26.64,1,1,0,0,0,.38.35,1,1,0,0,0,.91,0,1,1,0,0,0,.38-.35,2,2,0,0,0,.26-.64A4.18,4.18,0,0,0,42.58,71Z"/><path class="cls-4" d="M43.91,69.79a1.88,1.88,0,0,1,.19-.62,1.46,1.46,0,0,1,.36-.45,1.55,1.55,0,0,1,.5-.28,1.94,1.94,0,0,1,.61-.09,1.84,1.84,0,0,1,.6.09,1.39,1.39,0,0,1,.47.26,1.2,1.2,0,0,1,.31.41,1.29,1.29,0,0,1,.11.54,1.39,1.39,0,0,1-.06.43,1,1,0,0,1-.18.33,1.08,1.08,0,0,1-.28.24,1.69,1.69,0,0,1-.37.16,1.36,1.36,0,0,1,.75.44,1.2,1.2,0,0,1,.25.78,1.47,1.47,0,0,1-.13.63,1.42,1.42,0,0,1-.37.48,1.64,1.64,0,0,1-.54.3,2.06,2.06,0,0,1-.66.1,2.09,2.09,0,0,1-.69-.1,1.45,1.45,0,0,1-.49-.28,1.5,1.5,0,0,1-.33-.42,3.18,3.18,0,0,1-.22-.53l.27-.11a.33.33,0,0,1,.21,0,.2.2,0,0,1,.15.12l.12.24a1.11,1.11,0,0,0,.19.27,1,1,0,0,0,.31.22,1.11,1.11,0,0,0,.48.09,1.16,1.16,0,0,0,.47-.09,1,1,0,0,0,.33-.23,1,1,0,0,0,.2-.31.92.92,0,0,0,.07-.34,1.26,1.26,0,0,0-.05-.38.63.63,0,0,0-.2-.3,1,1,0,0,0-.4-.2,2.47,2.47,0,0,0-.65-.07v-.46a2.11,2.11,0,0,0,.56-.07,1.06,1.06,0,0,0,.37-.19.69.69,0,0,0,.21-.28,1.07,1.07,0,0,0,0-.75.74.74,0,0,0-.19-.27A.8.8,0,0,0,45.9,69a1.17,1.17,0,0,0-.36-.05,1.09,1.09,0,0,0-.36.06,1,1,0,0,0-.29.16.94.94,0,0,0-.21.24,1,1,0,0,0-.12.31.31.31,0,0,1-.12.17.32.32,0,0,1-.2,0Z"/><path class="cls-4" d="M51.52,71.67V72a.14.14,0,0,1,0,.1.13.13,0,0,1-.11,0h-.63v1.34h-.56V72.17H47.92a.19.19,0,0,1-.12,0,.18.18,0,0,1-.07-.1l-.06-.33,2.48-3.3h.59v3.27Zm-1.33,0V69.57c0-.06,0-.13,0-.2s0-.15,0-.22l-1.86,2.53Z"/><path class="cls-4" d="M55.35,73v.49H52.61V73h1.09V69.55c0-.1,0-.21,0-.32l-.91.78a.2.2,0,0,1-.09,0h-.09l-.07,0-.05,0-.2-.27,1.52-1.32h.52V73Z"/><path class="cls-4" d="M56.89,71.27a5.67,5.67,0,0,0-.76-2.85.32.32,0,0,1,0-.09.14.14,0,0,1,0-.07l0-.05.05,0,.28-.17a6.82,6.82,0,0,1,.45.82,5.48,5.48,0,0,1,.47,1.63,6.75,6.75,0,0,1,0,1.69,5.65,5.65,0,0,1-.17.82,5.53,5.53,0,0,1-.3.81,6.57,6.57,0,0,1-.45.81l-.28-.17-.05,0,0-.05a.14.14,0,0,1,0-.07.32.32,0,0,1,0-.1,5.67,5.67,0,0,0,.76-2.85Z"/><path class="cls-4" d="M63.22,73v.49H60.48V73h1.09V69.55c0-.1,0-.21,0-.32l-.91.78a.2.2,0,0,1-.09,0h-.09l-.07,0-.05,0-.2-.27,1.52-1.32h.52V73Z"/><path class="cls-4" d="M65,70.34a3.55,3.55,0,0,1,.73-.08,2,2,0,0,1,.71.12,1.43,1.43,0,0,1,.51.32,1.37,1.37,0,0,1,.31.49,1.74,1.74,0,0,1,.1.61,1.84,1.84,0,0,1-.14.73,1.67,1.67,0,0,1-.39.56,1.73,1.73,0,0,1-.58.36,2.16,2.16,0,0,1-1.16.08,2.26,2.26,0,0,1-.72-.29,1.83,1.83,0,0,1-.27-.2l.2-.27a.19.19,0,0,1,.17-.09.32.32,0,0,1,.16.05l.22.12a1.74,1.74,0,0,0,.3.12,1.35,1.35,0,0,0,.41.06,1.28,1.28,0,0,0,.48-.09,1,1,0,0,0,.37-.24,1.08,1.08,0,0,0,.24-.38,1.42,1.42,0,0,0,.08-.5,1.26,1.26,0,0,0-.07-.43.85.85,0,0,0-.21-.33,1,1,0,0,0-.35-.21,1.47,1.47,0,0,0-.49-.08,2.66,2.66,0,0,0-.83.14l-.4-.12.41-2.39h2.42v.28a.31.31,0,0,1-.08.22.39.39,0,0,1-.29.09h-1.6Z"/><path class="cls-4" d="M68.32,69.79a1.88,1.88,0,0,1,.19-.62,1.46,1.46,0,0,1,.36-.45,1.55,1.55,0,0,1,.5-.28,1.94,1.94,0,0,1,.61-.09,1.84,1.84,0,0,1,.6.09,1.39,1.39,0,0,1,.47.26,1.2,1.2,0,0,1,.31.41,1.29,1.29,0,0,1,.11.54,1.39,1.39,0,0,1-.06.43,1,1,0,0,1-.18.33,1.08,1.08,0,0,1-.28.24,1.69,1.69,0,0,1-.37.16,1.36,1.36,0,0,1,.75.44,1.2,1.2,0,0,1,.25.78,1.47,1.47,0,0,1-.13.63,1.42,1.42,0,0,1-.37.48,1.64,1.64,0,0,1-.54.3,2.06,2.06,0,0,1-.66.1,2.09,2.09,0,0,1-.69-.1,1.45,1.45,0,0,1-.49-.28,1.5,1.5,0,0,1-.33-.42,3.18,3.18,0,0,1-.22-.53l.27-.11a.33.33,0,0,1,.21,0,.2.2,0,0,1,.15.12l.12.24a1.11,1.11,0,0,0,.19.27,1,1,0,0,0,.31.22,1.11,1.11,0,0,0,.48.09,1.16,1.16,0,0,0,.47-.09,1,1,0,0,0,.33-.23,1,1,0,0,0,.2-.31.92.92,0,0,0,.07-.34,1.26,1.26,0,0,0-.05-.38.63.63,0,0,0-.2-.3,1,1,0,0,0-.4-.2,2.47,2.47,0,0,0-.65-.07v-.46a2.11,2.11,0,0,0,.56-.07,1.06,1.06,0,0,0,.37-.19.69.69,0,0,0,.21-.28,1.07,1.07,0,0,0,0-.75.74.74,0,0,0-.19-.27.8.8,0,0,0-.29-.16A1.17,1.17,0,0,0,70,68.9a1.09,1.09,0,0,0-.36.06,1,1,0,0,0-.29.16.94.94,0,0,0-.21.24,1,1,0,0,0-.12.31.31.31,0,0,1-.12.17.32.32,0,0,1-.2,0Z"/><path class="cls-4" d="M75.91,71a4.13,4.13,0,0,1-.14,1.16,2.44,2.44,0,0,1-.39.81,1.58,1.58,0,0,1-.59.48,1.72,1.72,0,0,1-.73.16,1.71,1.71,0,0,1-.73-.16,1.59,1.59,0,0,1-.59-.48,2.41,2.41,0,0,1-.39-.81,4.8,4.8,0,0,1,0-2.32,2.44,2.44,0,0,1,.39-.82,1.59,1.59,0,0,1,.59-.48,1.71,1.71,0,0,1,.73-.16,1.72,1.72,0,0,1,.73.16,1.58,1.58,0,0,1,.59.48,2.47,2.47,0,0,1,.39.82A4.15,4.15,0,0,1,75.91,71Zm-.66,0a4.2,4.2,0,0,0-.1-1,2,2,0,0,0-.26-.64,1,1,0,0,0-.38-.35,1,1,0,0,0-.91,0,1,1,0,0,0-.38.35A2,2,0,0,0,73,70a5,5,0,0,0,0,2,2,2,0,0,0,.26.64,1,1,0,0,0,.38.35,1,1,0,0,0,.91,0,1,1,0,0,0,.38-.35,2,2,0,0,0,.26-.64A4.18,4.18,0,0,0,75.25,71Z"/><path class="cls-4" d="M76.59,69.79a1.88,1.88,0,0,1,.19-.62,1.46,1.46,0,0,1,.36-.45,1.55,1.55,0,0,1,.5-.28,1.94,1.94,0,0,1,.61-.09,1.84,1.84,0,0,1,.6.09,1.39,1.39,0,0,1,.47.26,1.2,1.2,0,0,1,.31.41,1.29,1.29,0,0,1,.11.54,1.39,1.39,0,0,1-.06.43,1,1,0,0,1-.18.33,1.08,1.08,0,0,1-.28.24,1.69,1.69,0,0,1-.37.16,1.36,1.36,0,0,1,.75.44,1.2,1.2,0,0,1,.25.78,1.47,1.47,0,0,1-.13.63,1.42,1.42,0,0,1-.37.48,1.64,1.64,0,0,1-.54.3,2.06,2.06,0,0,1-.66.1,2.09,2.09,0,0,1-.69-.1,1.45,1.45,0,0,1-.49-.28,1.5,1.5,0,0,1-.33-.42,3.18,3.18,0,0,1-.22-.53l.27-.11a.33.33,0,0,1,.21,0,.2.2,0,0,1,.15.12l.12.24a1.11,1.11,0,0,0,.19.27,1,1,0,0,0,.31.22,1.11,1.11,0,0,0,.48.09,1.16,1.16,0,0,0,.47-.09,1,1,0,0,0,.33-.23,1,1,0,0,0,.2-.31.92.92,0,0,0,.07-.34,1.26,1.26,0,0,0-.05-.38.63.63,0,0,0-.2-.3,1,1,0,0,0-.4-.2,2.47,2.47,0,0,0-.65-.07v-.46a2.11,2.11,0,0,0,.56-.07,1.06,1.06,0,0,0,.37-.19.69.69,0,0,0,.21-.28,1.07,1.07,0,0,0,0-.75.74.74,0,0,0-.19-.27.8.8,0,0,0-.29-.16,1.17,1.17,0,0,0-.36-.05,1.09,1.09,0,0,0-.36.06,1,1,0,0,0-.29.16.94.94,0,0,0-.21.24,1,1,0,0,0-.12.31.31.31,0,0,1-.12.17.32.32,0,0,1-.2,0Z"/><path class="cls-4" d="M84.12,68.41v.29a.64.64,0,0,1,0,.2L84,69l-2.12,4.27a.47.47,0,0,1-.13.16.33.33,0,0,1-.22.07h-.46l2.15-4.21.1-.16.11-.14H80.8a.14.14,0,0,1-.11,0,.15.15,0,0,1,0-.11v-.43Z"/><path class="cls-4" d="M88,73v.49H85.29V73h1.09V69.55c0-.1,0-.21,0-.32l-.91.78a.2.2,0,0,1-.09,0h-.09l-.07,0-.05,0-.2-.27,1.52-1.32H87V73Z"/><path class="cls-4" d="M90.23,70.32l-.13.17-.12.16a1.47,1.47,0,0,1,.4-.19,1.6,1.6,0,0,1,.47-.07,1.68,1.68,0,0,1,.58.1,1.37,1.37,0,0,1,.81.77,1.63,1.63,0,0,1,.12.65,1.67,1.67,0,0,1-.13.66,1.61,1.61,0,0,1-.36.53,1.67,1.67,0,0,1-.55.35,2,2,0,0,1-1.41,0,1.49,1.49,0,0,1-.53-.35,1.56,1.56,0,0,1-.34-.55,2.06,2.06,0,0,1-.12-.72,2,2,0,0,1,.15-.71,3.49,3.49,0,0,1,.47-.81l1.3-1.74a.39.39,0,0,1,.14-.11.43.43,0,0,1,.2,0h.56ZM90.6,73a1.26,1.26,0,0,0,.47-.08,1,1,0,0,0,.36-.23,1,1,0,0,0,.23-.35,1.15,1.15,0,0,0,.08-.43,1.24,1.24,0,0,0-.08-.45.94.94,0,0,0-.57-.56,1.22,1.22,0,0,0-.44-.08,1.19,1.19,0,0,0-.46.09,1.07,1.07,0,0,0-.35.24,1,1,0,0,0-.22.34,1.1,1.1,0,0,0-.08.4,1.35,1.35,0,0,0,.07.45,1,1,0,0,0,.21.35.94.94,0,0,0,.34.23A1.19,1.19,0,0,0,90.6,73Z"/><path class="cls-4" d="M96.53,68.41v.29a.64.64,0,0,1,0,.2l-.05.13-2.12,4.27a.47.47,0,0,1-.13.16.33.33,0,0,1-.22.07h-.46l2.15-4.21.1-.16.11-.14H93.21a.14.14,0,0,1-.11,0,.15.15,0,0,1,0-.11v-.43Z"/><path class="cls-4" d="M38.72,77.33a.41.41,0,0,1,0,.17.51.51,0,0,1-.1.14.46.46,0,0,1-.15.1.45.45,0,0,1-.18,0,.42.42,0,0,1-.17,0,.45.45,0,0,1-.14-.1.5.5,0,0,1-.1-.14.42.42,0,0,1,0-.17.44.44,0,0,1,0-.18.48.48,0,0,1,.1-.15.44.44,0,0,1,.14-.1.41.41,0,0,1,.17,0,.43.43,0,0,1,.18,0,.44.44,0,0,1,.15.1.49.49,0,0,1,.1.15A.43.43,0,0,1,38.72,77.33Zm-.14,1.13v3.61h-.63V78.46Z"/><path class="cls-4" d="M42.72,78.46l-1.47,3.61h-.57L39.2,78.46h.52a.2.2,0,0,1,.13,0,.19.19,0,0,1,.07.09l.92,2.32c0,.09.05.17.07.26l.06.25.06-.25c0-.08,0-.17.08-.26L42,78.59a.2.2,0,0,1,.07-.09.19.19,0,0,1,.12,0Z"/><path class="cls-4" d="M43.13,79a2,2,0,0,1,.65-.43,2,2,0,0,1,.77-.14,1.37,1.37,0,0,1,.54.1,1.11,1.11,0,0,1,.4.28,1.18,1.18,0,0,1,.24.43,1.79,1.79,0,0,1,.08.56v2.31h-.28a.27.27,0,0,1-.14,0,.21.21,0,0,1-.08-.12l-.07-.34-.28.23a1.6,1.6,0,0,1-.29.17,1.55,1.55,0,0,1-.32.11,1.72,1.72,0,0,1-.38,0,1.31,1.31,0,0,1-.4-.06.91.91,0,0,1-.32-.18.82.82,0,0,1-.22-.3,1,1,0,0,1-.08-.43.79.79,0,0,1,.12-.41,1,1,0,0,1,.38-.35,2.49,2.49,0,0,1,.69-.25,5.19,5.19,0,0,1,1-.11v-.28a1,1,0,0,0-.18-.64.66.66,0,0,0-.53-.21,1.15,1.15,0,0,0-.39.06,1.45,1.45,0,0,0-.27.13l-.2.13a.29.29,0,0,1-.17.06.18.18,0,0,1-.11,0,.33.33,0,0,1-.08-.08Zm2,1.48a5.44,5.44,0,0,0-.75.07,2.13,2.13,0,0,0-.5.14.69.69,0,0,0-.28.21.45.45,0,0,0-.09.27.6.6,0,0,0,0,.25.45.45,0,0,0,.13.17.52.52,0,0,0,.19.1.86.86,0,0,0,.23,0,1.25,1.25,0,0,0,.31,0,1.14,1.14,0,0,0,.26-.1A1.47,1.47,0,0,0,45,81.4a2,2,0,0,0,.22-.2Z"/><path class="cls-4" d="M47.37,79a2.16,2.16,0,0,1,.25-.24,1.65,1.65,0,0,1,.28-.18,1.39,1.39,0,0,1,.31-.12,1.49,1.49,0,0,1,.36,0,1.32,1.32,0,0,1,.52.1,1,1,0,0,1,.38.28,1.23,1.23,0,0,1,.23.43,1.89,1.89,0,0,1,.08.56v2.3h-.64v-2.3a1,1,0,0,0-.19-.64.7.7,0,0,0-.57-.23,1.07,1.07,0,0,0-.53.13,1.75,1.75,0,0,0-.45.37v2.66h-.64V78.46h.38a.16.16,0,0,1,.17.13Z"/><path class="cls-4" d="M50.64,81.68a.45.45,0,0,1,.13-.32.43.43,0,0,1,.14-.1.44.44,0,0,1,.35,0,.46.46,0,0,1,.14.1.48.48,0,0,1,.1.14.44.44,0,0,1,0,.17.43.43,0,0,1,0,.18.46.46,0,0,1-.1.14.42.42,0,0,1-.14.09.46.46,0,0,1-.35,0,.4.4,0,0,1-.14-.09.44.44,0,0,1-.09-.14A.45.45,0,0,1,50.64,81.68Z"/><path class="cls-4" d="M53.09,76.82v5.25h-.63V76.82Z"/><path class="cls-4" d="M57,81.57a1.2,1.2,0,0,1-.28.25,1.74,1.74,0,0,1-.35.17,2.17,2.17,0,0,1-.39.1,2.28,2.28,0,0,1-.4,0,1.84,1.84,0,0,1-.69-.13,1.52,1.52,0,0,1-.55-.37A1.7,1.7,0,0,1,54,81a2.46,2.46,0,0,1-.13-.83,2.11,2.11,0,0,1,.12-.71,1.67,1.67,0,0,1,.33-.57,1.52,1.52,0,0,1,.53-.38,1.74,1.74,0,0,1,.71-.14,1.63,1.63,0,0,1,.6.11,1.37,1.37,0,0,1,.48.31,1.44,1.44,0,0,1,.32.51,1.93,1.93,0,0,1,.11.69.41.41,0,0,1,0,.2.13.13,0,0,1-.12.05H54.53a2.1,2.1,0,0,0,.09.59,1.2,1.2,0,0,0,.23.42.94.94,0,0,0,.36.25,1.23,1.23,0,0,0,.46.08,1.35,1.35,0,0,0,.41-.06l.3-.12.21-.12a.27.27,0,0,1,.14-.06.14.14,0,0,1,.12.06Zm-.51-1.69a1.25,1.25,0,0,0-.06-.4.92.92,0,0,0-.18-.32.81.81,0,0,0-.29-.21,1.1,1.1,0,0,0-1.11.19,1.25,1.25,0,0,0-.33.74Z"/><path class="cls-4" d="M60.81,81.57a1.2,1.2,0,0,1-.28.25,1.74,1.74,0,0,1-.35.17,2.17,2.17,0,0,1-.39.1,2.28,2.28,0,0,1-.4,0A1.84,1.84,0,0,1,58.7,82a1.52,1.52,0,0,1-.55-.37,1.7,1.7,0,0,1-.36-.6,2.46,2.46,0,0,1-.13-.83,2.11,2.11,0,0,1,.12-.71,1.67,1.67,0,0,1,.33-.57,1.52,1.52,0,0,1,.53-.38,1.74,1.74,0,0,1,.71-.14,1.63,1.63,0,0,1,.6.11,1.37,1.37,0,0,1,.48.31,1.44,1.44,0,0,1,.32.51,1.93,1.93,0,0,1,.11.69.41.41,0,0,1,0,.2.13.13,0,0,1-.12.05H58.3a2.1,2.1,0,0,0,.09.59,1.2,1.2,0,0,0,.23.42.94.94,0,0,0,.36.25,1.23,1.23,0,0,0,.46.08,1.35,1.35,0,0,0,.41-.06l.3-.12.21-.12a.27.27,0,0,1,.14-.06.14.14,0,0,1,.12.06Zm-.51-1.69a1.25,1.25,0,0,0-.06-.4.92.92,0,0,0-.18-.32.81.81,0,0,0-.29-.21,1.1,1.1,0,0,0-1.11.19,1.25,1.25,0,0,0-.33.74Z"/><path class="cls-4" d="M64.69,78.61v.24q0,.12-.15.15l-.41.05a1.12,1.12,0,0,1-.26,1.37,1.25,1.25,0,0,1-.43.24,1.73,1.73,0,0,1-.54.08,1.8,1.8,0,0,1-.48-.06.65.65,0,0,0-.17.15.26.26,0,0,0-.06.16.22.22,0,0,0,.1.19.76.76,0,0,0,.28.09l.39,0,.45,0,.45.05a1.36,1.36,0,0,1,.39.13.74.74,0,0,1,.28.25.72.72,0,0,1,.11.41.94.94,0,0,1-.12.45,1.22,1.22,0,0,1-.33.39,1.72,1.72,0,0,1-.53.27,2.33,2.33,0,0,1-.71.1,2.69,2.69,0,0,1-.69-.08,1.61,1.61,0,0,1-.49-.21.91.91,0,0,1-.29-.3.72.72,0,0,1-.1-.36.65.65,0,0,1,.17-.45,1.17,1.17,0,0,1,.46-.3.65.65,0,0,1-.25-.19.51.51,0,0,1-.09-.32.5.5,0,0,1,0-.16.64.64,0,0,1,.09-.17.9.9,0,0,1,.34-.29,1.1,1.1,0,0,1-.42-.4,1.09,1.09,0,0,1-.15-.58,1.12,1.12,0,0,1,.1-.48,1.05,1.05,0,0,1,.28-.37,1.29,1.29,0,0,1,.43-.23,1.77,1.77,0,0,1,.55-.08,1.78,1.78,0,0,1,.44.05,1.39,1.39,0,0,1,.37.15ZM64,82.27a.31.31,0,0,0-.07-.21.5.5,0,0,0-.2-.13,1.31,1.31,0,0,0-.29-.07l-.35,0-.38,0-.37,0A1,1,0,0,0,62,82a.48.48,0,0,0-.13.33.43.43,0,0,0,.06.23.53.53,0,0,0,.19.18,1.09,1.09,0,0,0,.32.12,2,2,0,0,0,.46,0,2.11,2.11,0,0,0,.46,0,1.15,1.15,0,0,0,.34-.13.64.64,0,0,0,.22-.2A.47.47,0,0,0,64,82.27Zm-1.14-2a1,1,0,0,0,.34-.05.71.71,0,0,0,.25-.15.62.62,0,0,0,.15-.23.83.83,0,0,0,.05-.29.7.7,0,0,0-.2-.53,1,1,0,0,0-1.17,0,.7.7,0,0,0-.2.53.82.82,0,0,0,.05.29.64.64,0,0,0,.15.23.7.7,0,0,0,.25.15A1,1,0,0,0,62.9,80.31Z"/><path class="cls-4" d="M67.46,79.06a.14.14,0,0,1-.13.08.25.25,0,0,1-.12,0L67,79l-.23-.09a1.12,1.12,0,0,0-.32,0,.94.94,0,0,0-.29,0A.69.69,0,0,0,66,79a.5.5,0,0,0-.14.17.45.45,0,0,0,0,.21.34.34,0,0,0,.08.23.69.69,0,0,0,.21.16,1.84,1.84,0,0,0,.3.12l.34.11.34.13a1.22,1.22,0,0,1,.3.18.82.82,0,0,1,.21.26.8.8,0,0,1,.08.37,1.18,1.18,0,0,1-.09.46,1,1,0,0,1-.26.37,1.27,1.27,0,0,1-.43.24,1.76,1.76,0,0,1-.58.09,1.82,1.82,0,0,1-.68-.12,1.73,1.73,0,0,1-.52-.32l.15-.24a.21.21,0,0,1,.07-.07.18.18,0,0,1,.1,0,.24.24,0,0,1,.14.05l.17.11a1.33,1.33,0,0,0,.25.11,1.14,1.14,0,0,0,.36,0,1,1,0,0,0,.32,0,.68.68,0,0,0,.23-.13.52.52,0,0,0,.14-.19.59.59,0,0,0,0-.23.38.38,0,0,0-.08-.25.67.67,0,0,0-.21-.17,1.74,1.74,0,0,0-.3-.12l-.35-.11-.35-.13a1.2,1.2,0,0,1-.3-.18.82.82,0,0,1-.21-.27.88.88,0,0,1-.08-.39,1,1,0,0,1,.09-.4,1,1,0,0,1,.25-.33,1.23,1.23,0,0,1,.4-.23,1.6,1.6,0,0,1,.55-.09,1.72,1.72,0,0,1,.64.11,1.52,1.52,0,0,1,.49.31Z"/><path class="cls-4" d="M69.55,82.13a.87.87,0,0,1-.66-.24,1,1,0,0,1-.23-.69V79h-.44a.14.14,0,0,1-.1,0,.13.13,0,0,1,0-.11V78.6l.59-.08.15-1.12a.15.15,0,0,1,0-.09.14.14,0,0,1,.1,0h.32v1.25h1V79h-1v2.17a.46.46,0,0,0,.11.34.38.38,0,0,0,.29.11.51.51,0,0,0,.17,0l.13-.06.09-.06.07,0a.11.11,0,0,1,.09.06l.19.3A1.2,1.2,0,0,1,70,82,1.34,1.34,0,0,1,69.55,82.13Z"/><path class="cls-4" d="M71.6,79.19a1.63,1.63,0,0,1,.42-.58.92.92,0,0,1,.61-.21l.22,0a.58.58,0,0,1,.19.08L73,79a.1.1,0,0,1-.11.09l-.15,0-.22,0a.87.87,0,0,0-.31,0,.71.71,0,0,0-.24.15,1,1,0,0,0-.19.24,2.06,2.06,0,0,0-.15.33v2.28H71V78.46h.36a.2.2,0,0,1,.14,0,.23.23,0,0,1,.05.13Z"/><path class="cls-4" d="M73.44,79a2,2,0,0,1,.65-.43,2,2,0,0,1,.77-.14,1.37,1.37,0,0,1,.54.1,1.11,1.11,0,0,1,.4.28,1.18,1.18,0,0,1,.24.43,1.79,1.79,0,0,1,.08.56v2.31h-.28a.27.27,0,0,1-.14,0,.21.21,0,0,1-.08-.12l-.07-.34-.28.23A1.6,1.6,0,0,1,75,82a1.55,1.55,0,0,1-.32.11,1.72,1.72,0,0,1-.38,0,1.31,1.31,0,0,1-.4-.06.91.91,0,0,1-.32-.18.82.82,0,0,1-.22-.3,1,1,0,0,1-.08-.43.79.79,0,0,1,.12-.41,1,1,0,0,1,.38-.35,2.49,2.49,0,0,1,.69-.25,5.19,5.19,0,0,1,1-.11v-.28a1,1,0,0,0-.18-.64.66.66,0,0,0-.53-.21,1.15,1.15,0,0,0-.39.06,1.45,1.45,0,0,0-.27.13l-.2.13a.29.29,0,0,1-.17.06.18.18,0,0,1-.11,0,.33.33,0,0,1-.08-.08Zm2,1.48a5.44,5.44,0,0,0-.75.07,2.13,2.13,0,0,0-.5.14.69.69,0,0,0-.28.21.45.45,0,0,0-.09.27.6.6,0,0,0,0,.25.45.45,0,0,0,.13.17.52.52,0,0,0,.19.1.86.86,0,0,0,.23,0,1.25,1.25,0,0,0,.31,0,1.14,1.14,0,0,0,.26-.1,1.47,1.47,0,0,0,.24-.15,2,2,0,0,0,.22-.2Z"/><path class="cls-4" d="M80.56,80.14a1.68,1.68,0,0,0-.07.44.58.58,0,0,0,.06.27.26.26,0,0,0,.14.13.59.59,0,0,0,.2,0,.61.61,0,0,0,.33-.1.93.93,0,0,0,.28-.28,1.52,1.52,0,0,0,.19-.44,2.14,2.14,0,0,0,.07-.56,2.2,2.2,0,0,0-.16-.86,1.71,1.71,0,0,0-.43-.62,1.81,1.81,0,0,0-.65-.37,2.59,2.59,0,0,0-.81-.12,2.22,2.22,0,0,0-.9.18,2.25,2.25,0,0,0-.73.5,2.37,2.37,0,0,0-.49.76,2.49,2.49,0,0,0-.18,1,2.75,2.75,0,0,0,.19,1.06,2.19,2.19,0,0,0,.52.77,2.16,2.16,0,0,0,.78.47,2.86,2.86,0,0,0,1,.16,3.5,3.5,0,0,0,1-.12,3,3,0,0,0,.72-.3.15.15,0,0,1,.12,0,.12.12,0,0,1,.08.08l.09.24a3.23,3.23,0,0,1-.87.4,3.82,3.82,0,0,1-1.1.15,3.3,3.3,0,0,1-1.15-.2,2.67,2.67,0,0,1-.92-.57,2.6,2.6,0,0,1-.61-.9A3.13,3.13,0,0,1,76.95,80a2.84,2.84,0,0,1,.1-.75,2.85,2.85,0,0,1,.7-1.24,2.73,2.73,0,0,1,.56-.44,2.79,2.79,0,0,1,.66-.29,2.68,2.68,0,0,1,.74-.1,2.93,2.93,0,0,1,.64.07,2.66,2.66,0,0,1,.59.21,2.38,2.38,0,0,1,.51.34,2.21,2.21,0,0,1,.67,1.06,2.54,2.54,0,0,1,.09.71,2.23,2.23,0,0,1-.11.71,1.81,1.81,0,0,1-.3.57,1.39,1.39,0,0,1-.45.37,1.19,1.19,0,0,1-.56.14.72.72,0,0,1-.45-.13.63.63,0,0,1-.23-.41,1.28,1.28,0,0,1-.45.41,1.13,1.13,0,0,1-.52.13.87.87,0,0,1-.37-.07.7.7,0,0,1-.26-.2.88.88,0,0,1-.15-.31,1.37,1.37,0,0,1-.05-.38,1.74,1.74,0,0,1,.12-.61,1.69,1.69,0,0,1,.34-.56,1.78,1.78,0,0,1,.57-.41,1.85,1.85,0,0,1,.78-.16,2.15,2.15,0,0,1,.42,0,1.74,1.74,0,0,1,.34.11Zm-.22-1a1.36,1.36,0,0,0-.31,0,1.07,1.07,0,0,0-.49.11,1.27,1.27,0,0,0-.38.29,1.38,1.38,0,0,0-.25.42,1.33,1.33,0,0,0-.09.48.66.66,0,0,0,.12.41.41.41,0,0,0,.35.16.72.72,0,0,0,.22,0,.63.63,0,0,0,.22-.12.9.9,0,0,0,.19-.24,1.54,1.54,0,0,0,.15-.38Z"/><path class="cls-4" d="M86.09,78.61v.24q0,.12-.15.15l-.41.05a1.12,1.12,0,0,1-.26,1.37,1.25,1.25,0,0,1-.43.24,1.73,1.73,0,0,1-.54.08,1.8,1.8,0,0,1-.48-.06.65.65,0,0,0-.17.15.26.26,0,0,0-.06.16.22.22,0,0,0,.1.19.76.76,0,0,0,.28.09l.39,0,.45,0,.45.05a1.36,1.36,0,0,1,.39.13.74.74,0,0,1,.28.25.72.72,0,0,1,.11.41.94.94,0,0,1-.12.45,1.22,1.22,0,0,1-.33.39,1.72,1.72,0,0,1-.53.27,2.33,2.33,0,0,1-.71.1,2.69,2.69,0,0,1-.69-.08,1.61,1.61,0,0,1-.49-.21.91.91,0,0,1-.29-.3.72.72,0,0,1-.1-.36.65.65,0,0,1,.17-.45,1.17,1.17,0,0,1,.46-.3.65.65,0,0,1-.25-.19.51.51,0,0,1-.09-.32.5.5,0,0,1,0-.16.64.64,0,0,1,.09-.17.9.9,0,0,1,.34-.29,1.1,1.1,0,0,1-.42-.4,1.09,1.09,0,0,1-.15-.58,1.12,1.12,0,0,1,.1-.48,1.05,1.05,0,0,1,.28-.37,1.29,1.29,0,0,1,.43-.23,1.77,1.77,0,0,1,.55-.08,1.78,1.78,0,0,1,.44.05,1.39,1.39,0,0,1,.37.15Zm-.65,3.67a.31.31,0,0,0-.07-.21.5.5,0,0,0-.2-.13,1.31,1.31,0,0,0-.29-.07l-.35,0-.38,0-.37,0a1,1,0,0,0-.33.23.48.48,0,0,0-.13.33.43.43,0,0,0,.06.23.53.53,0,0,0,.19.18,1.09,1.09,0,0,0,.32.12,2,2,0,0,0,.46,0,2.11,2.11,0,0,0,.46,0,1.15,1.15,0,0,0,.34-.13.64.64,0,0,0,.22-.2A.47.47,0,0,0,85.45,82.27Zm-1.14-2a1,1,0,0,0,.34-.05.71.71,0,0,0,.25-.15.62.62,0,0,0,.15-.23.83.83,0,0,0,.05-.29.7.7,0,0,0-.2-.53,1,1,0,0,0-1.17,0,.7.7,0,0,0-.2.53.82.82,0,0,0,.05.29.64.64,0,0,0,.15.23.7.7,0,0,0,.25.15A1,1,0,0,0,84.3,80.31Z"/><path class="cls-4" d="M86.75,82.07V78.46h.38a.16.16,0,0,1,.17.13l0,.37a1.83,1.83,0,0,1,.45-.4,1.06,1.06,0,0,1,.58-.16.85.85,0,0,1,.59.2,1.15,1.15,0,0,1,.33.55,1.19,1.19,0,0,1,.2-.34,1.16,1.16,0,0,1,.6-.37,1.47,1.47,0,0,1,.35,0,1.34,1.34,0,0,1,.51.09,1,1,0,0,1,.38.27,1.18,1.18,0,0,1,.24.43,1.9,1.9,0,0,1,.08.58v2.3H91v-2.3a1,1,0,0,0-.19-.64.66.66,0,0,0-.53-.22A.8.8,0,0,0,90,79a.72.72,0,0,0-.25.16.77.77,0,0,0-.17.27,1,1,0,0,0-.06.38v2.3h-.64v-2.3a1,1,0,0,0-.17-.65.62.62,0,0,0-.51-.21.8.8,0,0,0-.44.13,1.45,1.45,0,0,0-.37.34v2.69Z"/><path class="cls-4" d="M92.52,79a2,2,0,0,1,.65-.43,2,2,0,0,1,.77-.14,1.37,1.37,0,0,1,.54.1,1.11,1.11,0,0,1,.4.28,1.18,1.18,0,0,1,.24.43,1.79,1.79,0,0,1,.08.56v2.31h-.28a.27.27,0,0,1-.14,0,.21.21,0,0,1-.08-.12l-.07-.34-.28.23a1.6,1.6,0,0,1-.29.17,1.55,1.55,0,0,1-.32.11,1.72,1.72,0,0,1-.38,0,1.31,1.31,0,0,1-.4-.06.91.91,0,0,1-.32-.18.82.82,0,0,1-.22-.3,1,1,0,0,1-.08-.43.79.79,0,0,1,.12-.41,1,1,0,0,1,.38-.35,2.49,2.49,0,0,1,.69-.25,5.19,5.19,0,0,1,1-.11v-.28a1,1,0,0,0-.18-.64.66.66,0,0,0-.53-.21,1.15,1.15,0,0,0-.39.06,1.45,1.45,0,0,0-.27.13l-.2.13a.29.29,0,0,1-.17.06.18.18,0,0,1-.11,0,.33.33,0,0,1-.08-.08Zm2,1.48a5.44,5.44,0,0,0-.75.07,2.13,2.13,0,0,0-.5.14.69.69,0,0,0-.28.21.45.45,0,0,0-.09.27.6.6,0,0,0,0,.25.45.45,0,0,0,.13.17.52.52,0,0,0,.19.1.86.86,0,0,0,.23,0,1.25,1.25,0,0,0,.31,0,1.14,1.14,0,0,0,.26-.1,1.47,1.47,0,0,0,.24-.15,2,2,0,0,0,.22-.2Z"/><path class="cls-4" d="M97,77.33a.41.41,0,0,1,0,.17.51.51,0,0,1-.1.14.46.46,0,0,1-.15.1.45.45,0,0,1-.18,0,.42.42,0,0,1-.17,0,.45.45,0,0,1-.14-.1.5.5,0,0,1-.1-.14.42.42,0,0,1,0-.17.44.44,0,0,1,0-.18.48.48,0,0,1,.1-.15.44.44,0,0,1,.14-.1.41.41,0,0,1,.17,0,.43.43,0,0,1,.18,0,.44.44,0,0,1,.15.1.49.49,0,0,1,.1.15A.43.43,0,0,1,97,77.33Zm-.14,1.13v3.61H96.2V78.46Z"/><path class="cls-4" d="M98.53,76.82v5.25h-.63V76.82Z"/><path class="cls-4" d="M99.45,81.68a.45.45,0,0,1,.13-.32.43.43,0,0,1,.14-.1.44.44,0,0,1,.35,0,.46.46,0,0,1,.14.1.48.48,0,0,1,.1.14.44.44,0,0,1,0,.17.43.43,0,0,1,0,.18.46.46,0,0,1-.1.14.42.42,0,0,1-.14.09.46.46,0,0,1-.35,0,.4.4,0,0,1-.14-.09.44.44,0,0,1-.09-.14A.45.45,0,0,1,99.45,81.68Z"/><path class="cls-4" d="M103.75,79.1l-.06.06-.08,0a.22.22,0,0,1-.12,0l-.16-.1-.23-.1a1.26,1.26,0,0,0-.81,0,.91.91,0,0,0-.34.27,1.24,1.24,0,0,0-.21.43,2.14,2.14,0,0,0-.07.57,2.06,2.06,0,0,0,.08.58,1.24,1.24,0,0,0,.21.43.92.92,0,0,0,.33.26,1,1,0,0,0,.44.09,1,1,0,0,0,.63-.18l.16-.12a.2.2,0,0,1,.13-.06.14.14,0,0,1,.12.06l.18.23a1.26,1.26,0,0,1-.27.25,1.61,1.61,0,0,1-.32.17,1.73,1.73,0,0,1-.36.1,2.29,2.29,0,0,1-.39,0A1.57,1.57,0,0,1,102,82a1.43,1.43,0,0,1-.5-.36,1.69,1.69,0,0,1-.33-.58,2.57,2.57,0,0,1,0-1.53,1.69,1.69,0,0,1,.33-.59,1.48,1.48,0,0,1,.53-.39,1.8,1.8,0,0,1,.73-.14,1.71,1.71,0,0,1,.67.12,1.62,1.62,0,0,1,.52.35Z"/><path class="cls-4" d="M106.1,78.41a1.84,1.84,0,0,1,.71.13,1.53,1.53,0,0,1,.54.38,1.64,1.64,0,0,1,.34.59,2.54,2.54,0,0,1,0,1.54,1.65,1.65,0,0,1-.34.58,1.51,1.51,0,0,1-.54.37,1.86,1.86,0,0,1-.71.13,1.89,1.89,0,0,1-.72-.13,1.5,1.5,0,0,1-.54-.37,1.64,1.64,0,0,1-.34-.58,2.53,2.53,0,0,1,0-1.54,1.63,1.63,0,0,1,.34-.59,1.51,1.51,0,0,1,.54-.37A1.87,1.87,0,0,1,106.1,78.41Zm0,3.22a.93.93,0,0,0,.8-.36,2,2,0,0,0,0-2,.92.92,0,0,0-.8-.36,1.13,1.13,0,0,0-.47.09.88.88,0,0,0-.33.27,1.18,1.18,0,0,0-.2.43,2.31,2.31,0,0,0-.07.58,1.65,1.65,0,0,0,.27,1A.94.94,0,0,0,106.1,81.63Z"/><path class="cls-4" d="M108.62,82.07V78.46H109a.16.16,0,0,1,.17.13l0,.37a1.83,1.83,0,0,1,.45-.4,1.06,1.06,0,0,1,.58-.16.85.85,0,0,1,.59.2,1.15,1.15,0,0,1,.33.55,1.19,1.19,0,0,1,.2-.34,1.16,1.16,0,0,1,.6-.37,1.47,1.47,0,0,1,.35,0,1.34,1.34,0,0,1,.51.09,1,1,0,0,1,.38.27,1.18,1.18,0,0,1,.24.43,1.9,1.9,0,0,1,.08.58v2.3h-.64v-2.3a1,1,0,0,0-.19-.64.66.66,0,0,0-.53-.22.8.8,0,0,0-.3.05.72.72,0,0,0-.25.16.77.77,0,0,0-.17.27,1,1,0,0,0-.06.38v2.3h-.64v-2.3a1,1,0,0,0-.17-.65.62.62,0,0,0-.51-.21.8.8,0,0,0-.44.13,1.45,1.45,0,0,0-.37.34v2.69Z"/><path class="cls-5" d="M38.15,90.63V87.56l-.4,0a.31.31,0,0,1-.12-.06.13.13,0,0,1,0-.11v-.26h.57v-.3a1.85,1.85,0,0,1,.09-.59,1.17,1.17,0,0,1,.3-.47,1.41,1.41,0,0,1,.53-.31,2.4,2.4,0,0,1,.78-.11h.3l.29,0,.3,0h.35v2.16a1.84,1.84,0,0,1,.52-.42,1.36,1.36,0,0,1,.66-.16,1.33,1.33,0,0,1,.57.12,1.19,1.19,0,0,1,.43.35,1.64,1.64,0,0,1,.27.56,2.67,2.67,0,0,1,.09.74,2.8,2.8,0,0,1-.11.8,1.82,1.82,0,0,1-.31.62,1.4,1.4,0,0,1-.49.4,1.46,1.46,0,0,1-.65.14,1.24,1.24,0,0,1-.6-.13,1.31,1.31,0,0,1-.43-.38l0,.33a.15.15,0,0,1-.16.14h-.41V85.83l-.31-.07-.31,0a1.23,1.23,0,0,0-.47.08.85.85,0,0,0-.51.56,1.44,1.44,0,0,0-.06.43v.3h1v.46h-1v3.08Zm2.92-.87a1,1,0,0,0,.38.33,1.09,1.09,0,0,0,.46.1.92.92,0,0,0,.78-.36A1.77,1.77,0,0,0,43,88.76a1.6,1.6,0,0,0-.24-1,.82.82,0,0,0-.69-.31,1,1,0,0,0-.54.14,1.58,1.58,0,0,0-.43.4Z"/><path class="cls-5" d="M44.32,90.24a.45.45,0,0,1,.13-.32.43.43,0,0,1,.14-.1.44.44,0,0,1,.35,0,.46.46,0,0,1,.14.1.48.48,0,0,1,.1.14.44.44,0,0,1,0,.17.43.43,0,0,1,0,.18.46.46,0,0,1-.1.14.42.42,0,0,1-.14.09.46.46,0,0,1-.35,0,.4.4,0,0,1-.14-.09.44.44,0,0,1-.09-.14A.45.45,0,0,1,44.32,90.24Z"/><path class="cls-5" d="M46.11,90.63V87h.38a.16.16,0,0,1,.17.13l0,.37a1.83,1.83,0,0,1,.45-.4,1.06,1.06,0,0,1,.58-.16.85.85,0,0,1,.59.2,1.15,1.15,0,0,1,.33.55,1.19,1.19,0,0,1,.2-.34,1.16,1.16,0,0,1,.6-.37,1.47,1.47,0,0,1,.35,0,1.34,1.34,0,0,1,.51.09,1,1,0,0,1,.38.27,1.18,1.18,0,0,1,.24.43,1.9,1.9,0,0,1,.08.58v2.3h-.64v-2.3a1,1,0,0,0-.19-.64.66.66,0,0,0-.53-.22.8.8,0,0,0-.3.05.72.72,0,0,0-.25.16.77.77,0,0,0-.17.27,1,1,0,0,0-.06.38v2.3h-.64v-2.3a1,1,0,0,0-.17-.65.62.62,0,0,0-.51-.21.8.8,0,0,0-.44.13,1.45,1.45,0,0,0-.37.34v2.69Z"/><path class="cls-5" d="M54.91,90.13a1.2,1.2,0,0,1-.28.25,1.74,1.74,0,0,1-.35.17,2.17,2.17,0,0,1-.39.1,2.28,2.28,0,0,1-.4,0,1.84,1.84,0,0,1-.69-.13,1.52,1.52,0,0,1-.55-.37,1.7,1.7,0,0,1-.36-.6,2.46,2.46,0,0,1-.13-.83,2.11,2.11,0,0,1,.12-.71,1.67,1.67,0,0,1,.33-.57,1.52,1.52,0,0,1,.53-.38,1.74,1.74,0,0,1,.71-.14,1.63,1.63,0,0,1,.6.11,1.37,1.37,0,0,1,.48.31,1.44,1.44,0,0,1,.32.51,1.93,1.93,0,0,1,.11.69.41.41,0,0,1,0,.2.13.13,0,0,1-.12.05H52.4a2.1,2.1,0,0,0,.09.59,1.2,1.2,0,0,0,.23.42.94.94,0,0,0,.36.25,1.23,1.23,0,0,0,.46.08,1.35,1.35,0,0,0,.41-.06l.3-.12.21-.12a.27.27,0,0,1,.14-.06.14.14,0,0,1,.12.06Zm-.51-1.69a1.25,1.25,0,0,0-.06-.4.92.92,0,0,0-.18-.32.81.81,0,0,0-.29-.21,1.1,1.1,0,0,0-1.11.19,1.25,1.25,0,0,0-.33.74Z"/><path class="cls-4" d="M56.09,90.71a.36.36,0,0,1-.14.19.38.38,0,0,1-.2.06h-.27l2.14-5.34a.36.36,0,0,1,.13-.17.35.35,0,0,1,.2-.06h.27Z"/><path class="cls-4" d="M61.63,85.38v5.25h-.38a.16.16,0,0,1-.17-.13L61,90.06a2,2,0,0,1-.53.45,1.34,1.34,0,0,1-.68.17,1.31,1.31,0,0,1-.56-.12,1.18,1.18,0,0,1-.43-.35,1.68,1.68,0,0,1-.27-.58,3,3,0,0,1-.1-.79,2.5,2.5,0,0,1,.11-.74,1.83,1.83,0,0,1,.31-.6,1.42,1.42,0,0,1,.49-.4A1.44,1.44,0,0,1,60,87a1.31,1.31,0,0,1,.57.11,1.37,1.37,0,0,1,.42.31v-2ZM61,87.88a1,1,0,0,0-.39-.33,1.11,1.11,0,0,0-.46-.09.91.91,0,0,0-.77.36,1.68,1.68,0,0,0-.27,1,2.6,2.6,0,0,0,.06.6,1.15,1.15,0,0,0,.18.41.7.7,0,0,0,.29.24,1,1,0,0,0,.39.07,1,1,0,0,0,.55-.14,1.57,1.57,0,0,0,.43-.4Z"/><path class="cls-4" d="M65.75,87l-2,4.68a.34.34,0,0,1-.08.11.21.21,0,0,1-.15,0H63l.66-1.43L62.2,87h.55a.2.2,0,0,1,.13,0,.22.22,0,0,1,.07.09l1,2.27a2.47,2.47,0,0,1,.1.31c0-.11.07-.22.11-.32l.94-2.27a.2.2,0,0,1,.07-.09.19.19,0,0,1,.12,0Z"/><path class="cls-4" d="M66.91,87.54a2.16,2.16,0,0,1,.25-.24,1.65,1.65,0,0,1,.28-.18,1.39,1.39,0,0,1,.31-.12,1.49,1.49,0,0,1,.36,0,1.32,1.32,0,0,1,.52.1,1,1,0,0,1,.38.28,1.23,1.23,0,0,1,.23.43,1.89,1.89,0,0,1,.08.56v2.3h-.64v-2.3a1,1,0,0,0-.19-.64.7.7,0,0,0-.57-.23,1.07,1.07,0,0,0-.53.13,1.75,1.75,0,0,0-.45.37v2.66h-.64V87h.38a.16.16,0,0,1,.17.13Z"/><path class="cls-4" d="M70.19,87.53a2,2,0,0,1,.65-.43A2,2,0,0,1,71.6,87a1.37,1.37,0,0,1,.54.1,1.11,1.11,0,0,1,.4.28,1.18,1.18,0,0,1,.24.43,1.79,1.79,0,0,1,.08.56v2.31h-.28a.27.27,0,0,1-.14,0,.21.21,0,0,1-.08-.12l-.07-.34-.28.23a1.6,1.6,0,0,1-.29.17,1.55,1.55,0,0,1-.32.11,1.72,1.72,0,0,1-.38,0,1.31,1.31,0,0,1-.4-.06.91.91,0,0,1-.32-.18.82.82,0,0,1-.22-.3,1,1,0,0,1-.08-.43.79.79,0,0,1,.12-.41,1,1,0,0,1,.38-.35,2.49,2.49,0,0,1,.69-.25,5.19,5.19,0,0,1,1-.11v-.28a1,1,0,0,0-.18-.64.66.66,0,0,0-.53-.21,1.15,1.15,0,0,0-.39.06,1.45,1.45,0,0,0-.27.13l-.2.13a.29.29,0,0,1-.17.06.18.18,0,0,1-.11,0,.33.33,0,0,1-.08-.08Zm2,1.48a5.44,5.44,0,0,0-.75.07,2.13,2.13,0,0,0-.5.14.69.69,0,0,0-.28.21.45.45,0,0,0-.09.27.6.6,0,0,0,0,.25.45.45,0,0,0,.13.17.52.52,0,0,0,.19.1.86.86,0,0,0,.23,0,1.25,1.25,0,0,0,.31,0,1.14,1.14,0,0,0,.26-.1A1.47,1.47,0,0,0,72,90a2,2,0,0,0,.22-.2Z"/><path class="cls-4" d="M73.83,90.63V87h.38a.16.16,0,0,1,.17.13l0,.37a1.83,1.83,0,0,1,.45-.4,1.06,1.06,0,0,1,.58-.16.85.85,0,0,1,.59.2,1.15,1.15,0,0,1,.33.55,1.19,1.19,0,0,1,.2-.34,1.16,1.16,0,0,1,.6-.37,1.47,1.47,0,0,1,.35,0,1.34,1.34,0,0,1,.51.09,1,1,0,0,1,.38.27,1.18,1.18,0,0,1,.24.43,1.9,1.9,0,0,1,.08.58v2.3h-.64v-2.3a1,1,0,0,0-.19-.64.66.66,0,0,0-.53-.22.8.8,0,0,0-.3.05.72.72,0,0,0-.25.16.77.77,0,0,0-.17.27,1,1,0,0,0-.06.38v2.3H76v-2.3a1,1,0,0,0-.17-.65.62.62,0,0,0-.51-.21.8.8,0,0,0-.44.13,1.45,1.45,0,0,0-.37.34v2.69Z"/><path class="cls-4" d="M80.5,85.89a.41.41,0,0,1,0,.17.51.51,0,0,1-.1.14.46.46,0,0,1-.15.1.45.45,0,0,1-.18,0,.42.42,0,0,1-.17,0,.45.45,0,0,1-.14-.1.5.5,0,0,1-.1-.14.42.42,0,0,1,0-.17.44.44,0,0,1,0-.18.48.48,0,0,1,.1-.15.44.44,0,0,1,.14-.1.41.41,0,0,1,.17,0,.43.43,0,0,1,.18,0,.44.44,0,0,1,.15.1.49.49,0,0,1,.1.15A.43.43,0,0,1,80.5,85.89ZM80.36,87v3.61h-.63V87Z"/><path class="cls-4" d="M83.51,87.62a.14.14,0,0,1-.13.08.25.25,0,0,1-.12,0l-.17-.09-.23-.09a1.12,1.12,0,0,0-.32,0,.94.94,0,0,0-.29,0,.69.69,0,0,0-.22.11.5.5,0,0,0-.14.17.45.45,0,0,0,0,.21.34.34,0,0,0,.08.23.69.69,0,0,0,.21.16,1.84,1.84,0,0,0,.3.12l.34.11.34.13a1.22,1.22,0,0,1,.3.18.82.82,0,0,1,.21.26.8.8,0,0,1,.08.37,1.18,1.18,0,0,1-.09.46,1,1,0,0,1-.26.37,1.27,1.27,0,0,1-.43.24,1.76,1.76,0,0,1-.58.09,1.82,1.82,0,0,1-.68-.12,1.73,1.73,0,0,1-.52-.32l.15-.24a.21.21,0,0,1,.07-.07.18.18,0,0,1,.1,0,.24.24,0,0,1,.14.05l.17.11a1.33,1.33,0,0,0,.25.11,1.14,1.14,0,0,0,.36,0,1,1,0,0,0,.32,0,.68.68,0,0,0,.23-.13.52.52,0,0,0,.14-.19.59.59,0,0,0,0-.23.38.38,0,0,0-.08-.25.67.67,0,0,0-.21-.17,1.74,1.74,0,0,0-.3-.12L82.18,89l-.35-.13a1.2,1.2,0,0,1-.3-.18.82.82,0,0,1-.21-.27.88.88,0,0,1-.08-.39,1,1,0,0,1,.09-.4,1,1,0,0,1,.25-.33A1.23,1.23,0,0,1,82,87a1.6,1.6,0,0,1,.55-.09,1.72,1.72,0,0,1,.64.11,1.52,1.52,0,0,1,.49.31Z"/><path class="cls-4" d="M84.44,88.23H86.2v.54H84.44Z"/><path class="cls-4" d="M90.07,90.13a1.2,1.2,0,0,1-.28.25,1.74,1.74,0,0,1-.35.17,2.17,2.17,0,0,1-.39.1,2.28,2.28,0,0,1-.4,0,1.84,1.84,0,0,1-.69-.13,1.52,1.52,0,0,1-.55-.37,1.7,1.7,0,0,1-.36-.6,2.46,2.46,0,0,1-.13-.83,2.11,2.11,0,0,1,.12-.71,1.67,1.67,0,0,1,.33-.57,1.52,1.52,0,0,1,.53-.38,1.74,1.74,0,0,1,.71-.14,1.63,1.63,0,0,1,.6.11,1.37,1.37,0,0,1,.48.31,1.44,1.44,0,0,1,.32.51,1.93,1.93,0,0,1,.11.69.41.41,0,0,1,0,.2.13.13,0,0,1-.12.05H87.56a2.1,2.1,0,0,0,.09.59,1.2,1.2,0,0,0,.23.42.94.94,0,0,0,.36.25,1.23,1.23,0,0,0,.46.08,1.35,1.35,0,0,0,.41-.06l.3-.12.21-.12a.27.27,0,0,1,.14-.06.14.14,0,0,1,.12.06Zm-.51-1.69a1.25,1.25,0,0,0-.06-.4.92.92,0,0,0-.18-.32A.81.81,0,0,0,89,87.5a1.1,1.1,0,0,0-1.11.19,1.25,1.25,0,0,0-.33.74Z"/><path class="cls-4" d="M91.56,85.38v5.25h-.63V85.38Z"/><path class="cls-4" d="M95.52,90.13a1.2,1.2,0,0,1-.28.25,1.74,1.74,0,0,1-.35.17,2.17,2.17,0,0,1-.39.1,2.28,2.28,0,0,1-.4,0,1.84,1.84,0,0,1-.69-.13,1.52,1.52,0,0,1-.55-.37,1.7,1.7,0,0,1-.36-.6,2.46,2.46,0,0,1-.13-.83A2.11,2.11,0,0,1,92.5,88a1.67,1.67,0,0,1,.33-.57,1.52,1.52,0,0,1,.53-.38,1.74,1.74,0,0,1,.71-.14,1.63,1.63,0,0,1,.6.11,1.37,1.37,0,0,1,.48.31,1.44,1.44,0,0,1,.32.51,1.93,1.93,0,0,1,.11.69.41.41,0,0,1,0,.2.13.13,0,0,1-.12.05H93a2.1,2.1,0,0,0,.09.59,1.2,1.2,0,0,0,.23.42.94.94,0,0,0,.36.25,1.23,1.23,0,0,0,.46.08,1.35,1.35,0,0,0,.41-.06l.3-.12.21-.12a.27.27,0,0,1,.14-.06.14.14,0,0,1,.12.06ZM95,88.43a1.25,1.25,0,0,0-.06-.4.92.92,0,0,0-.18-.32.81.81,0,0,0-.29-.21,1.1,1.1,0,0,0-1.11.19,1.25,1.25,0,0,0-.33.74Z"/><path class="cls-4" d="M98.87,87.66l-.06.06-.08,0a.22.22,0,0,1-.12,0l-.16-.1-.23-.1a1.26,1.26,0,0,0-.81,0,.91.91,0,0,0-.34.27,1.24,1.24,0,0,0-.21.43,2.14,2.14,0,0,0-.07.57,2.06,2.06,0,0,0,.08.58,1.24,1.24,0,0,0,.21.43.92.92,0,0,0,.33.26,1,1,0,0,0,.44.09,1,1,0,0,0,.63-.18l.16-.12a.2.2,0,0,1,.13-.06.14.14,0,0,1,.12.06l.18.23a1.26,1.26,0,0,1-.27.25,1.61,1.61,0,0,1-.32.17,1.73,1.73,0,0,1-.36.1,2.29,2.29,0,0,1-.39,0,1.57,1.57,0,0,1-.63-.12,1.43,1.43,0,0,1-.5-.36,1.69,1.69,0,0,1-.33-.58,2.57,2.57,0,0,1,0-1.53,1.69,1.69,0,0,1,.33-.59,1.48,1.48,0,0,1,.53-.39,1.8,1.8,0,0,1,.73-.14,1.71,1.71,0,0,1,.67.12,1.62,1.62,0,0,1,.52.35Z"/><g class="cls-6"><polygon class="cls-2" points="121.06 166.5 153.01 14.25 287.49 54.18 121.06 166.5"/><polygon class="cls-3" points="92.5 -1.82 287.49 55.91 165.05 -46.75 92.5 -1.82"/></g></svg>