<svg id="Layer_1" data-name="Layer 1" xmlns="http://www.w3.org/2000/svg" viewBox="0 0 851 851"><defs><style>.cls-1{fill:#474746;}.cls-2{fill:#08aff9;}</style></defs><title>Artboard 1</title><polygon class="cls-1" points="146.91 485.31 165.06 398.83 241.44 421.52 146.91 485.31"/><polygon class="cls-2" points="130.69 389.7 241.44 422.5 171.89 364.19 130.69 389.7"/><path class="cls-1" d="M257.82,455.85l10.6-75.43q14.21-1,27-1,12.46,0,19.35,3.5t9.35,12.13q2.46,8.64.38,23.72a102.67,102.67,0,0,1-4.43,19.68A26.85,26.85,0,0,1,312.65,450,24.63,24.63,0,0,1,302,455.47a72,72,0,0,1-15.63,1.37Q274,456.83,257.82,455.85Zm25.58-63.3-7.22,51.05q1.86,0,5.25.05t4.7.06a30.25,30.25,0,0,0,8.36-.93,13,13,0,0,0,5.74-3.72,19.06,19.06,0,0,0,4.1-7.93A104.15,104.15,0,0,0,307,417.48a103,103,0,0,0,1.26-12.9,16,16,0,0,0-1.42-7.54,7.13,7.13,0,0,0-4.21-3.72,26.75,26.75,0,0,0-7.76-.87Z"/><path class="cls-1" d="M374.47,402h17.05a170.39,170.39,0,0,1-6.83,25.42,154.13,154.13,0,0,1-9.57,22.25q-8.2,14.87-17.55,21.26a44.65,44.65,0,0,1-22.25,7.38l-2-9.95a60.33,60.33,0,0,0,12.3-4.43,28.71,28.71,0,0,0,9.13-8h-6.45a6.61,6.61,0,0,1-4.43-1.53,7.07,7.07,0,0,1-2.35-3.94L332.71,402h17.38l5.14,41.21a1.73,1.73,0,0,0,1.86,1.75h4.37l.44-1Q370.53,426,374.47,402Z"/><path class="cls-1" d="M414.37,402v10.71q12.57-12.24,24.6-12.24,6.89,0,10.61,4t2.62,11.31l-5.68,40.12H430.44l4.92-35.31q.55-3.83-.22-5.19t-3.39-1.26q-6.12.11-16.84,8.53l-4.59,33.23H394.14l7.54-53.9Z"/><path class="cls-1" d="M510.79,455.85H498.22l.11-9.73a27.44,27.44,0,0,1-22.08,11q-10.17.33-13.72-6.61t-1.26-22.68a58.73,58.73,0,0,1,3.06-12.52,29.76,29.76,0,0,1,4.37-8,15.08,15.08,0,0,1,6.23-4.48,29.71,29.71,0,0,1,7.38-2,76.37,76.37,0,0,1,9-.44,117.56,117.56,0,0,1,13.88,1,94.37,94.37,0,0,1,12.9,2.3Zm-9.95-43.51h-8.31q-7.87,0-10.71,2.73t-4.26,13q-1.42,10.39-.66,13.28t4.7,2.68q7.22-.11,16.18-10.17Z"/><path class="cls-1" d="M543.91,402v9.73a47.57,47.57,0,0,1,11-8.58,22.57,22.57,0,0,1,10.66-2.68q5.9,0,9.29,2.62a10.45,10.45,0,0,1,3.94,7.43q10.17-10.06,20.33-10.06,7.43,0,10.88,4.1t2.46,11.21l-5.57,40.12H590.81l5-35.75q.44-3.39-.55-4.7a4,4,0,0,0-3.39-1.31,11.75,11.75,0,0,0-5.79,1.75,54.44,54.44,0,0,0-8.31,6.45l-4.7,33.56H557.58l4.92-35.75q.55-3.28-.33-4.65t-3.5-1.37a12.5,12.5,0,0,0-6,1.69,50.34,50.34,0,0,0-8.14,6.07l-4.7,34H523.8l7.54-53.9Z"/><path class="cls-1" d="M636.07,455.85H620l7.54-53.9h16.07Zm-.88-77.73H642q5.14,0,4.59,5l-.76,5.9q-.66,4.37-5.25,4.37h-6.89q-5,0-4.37-5l.77-5.79Q630.49,378.12,635.2,378.12Z"/><path class="cls-1" d="M676.85,436.5l-13-5.36q-6.56-2.62-9.18-6.67t-1.86-10.17q.87-7.43,6.5-10.71T677,400.42a143.92,143.92,0,0,1,24.93,2.19l-1.53,10.28L679,412.56a45.09,45.09,0,0,0-8.42.49,2.84,2.84,0,0,0-2.4,2.35,2.79,2.79,0,0,0,1,2.79,24,24,0,0,0,4.87,2.35l13.23,5.25q6.67,2.62,9.4,6.34t2,9.95a19.85,19.85,0,0,1-2.57,7.87,11.69,11.69,0,0,1-5.52,4.59,28.26,28.26,0,0,1-7.76,2,93.23,93.23,0,0,1-10.6.49,172.88,172.88,0,0,1-23.72-2l1.53-10.39q3.94.22,17.16.22,9.4,0,12.46-.66t3.5-2.84a2.37,2.37,0,0,0-.82-2.4,20.69,20.69,0,0,0-4.1-2Z"/></svg>