<?xml version="1.0" encoding="utf-8"?>
<!-- Generator: Adobe Illustrator 20.0.0, SVG Export Plug-In . SVG Version: 6.00 Build 0)  -->
<svg version="1.1" id="Layer_1" xmlns="http://www.w3.org/2000/svg" xmlns:xlink="http://www.w3.org/1999/xlink" x="0px" y="0px"
	 viewBox="0 0 640 480" style="enable-background:new 0 0 640 480;" xml:space="preserve">
<style type="text/css">
	.st0{fill:#FFE600;}
	.st1{fill:#262626;}
</style>
<polygon class="st0" points="406.6,328.6 406.6,328.6 289.4,328.6 281.1,339.3 "/>
<polygon class="st0" points="352.2,328.6 352.2,328.6 235.1,328.6 233.4,338.7 "/>
<polygon class="st0" points="406.6,328.6 406.6,328.6 333.6,328.6 330.2,337.8 "/>
<g>
	<path class="st1" d="M254.5,325.2h-18.9l5.9-34h10.1l-4.3,24.7h8.8L254.5,325.2z"/>
	<path class="st1" d="M278.1,319.7c-0.4,0.8-1,1.6-1.6,2.4c-0.7,0.8-1.4,1.4-2.3,2c-0.9,0.6-1.9,1.1-2.9,1.4
		c-1.1,0.4-2.2,0.5-3.4,0.5c-1.6,0-3.1-0.3-4.3-0.8c-1.3-0.5-2.3-1.2-3.2-2.2c-0.9-1-1.5-2.1-2-3.5c-0.4-1.4-0.7-2.9-0.7-4.5
		c0-2.4,0.3-4.7,1-6.7c0.7-2,1.6-3.8,2.8-5.3c1.2-1.5,2.6-2.6,4.1-3.4c1.6-0.8,3.2-1.2,4.9-1.2c1.7,0,3.1,0.3,4.3,0.8
		c1.2,0.5,2.2,1.2,2.9,2.1c0.8,0.9,1.3,1.9,1.6,3.1c0.3,1.2,0.5,2.4,0.5,3.8c0,0.7-0.1,1.6-0.2,2.8c-0.1,1.2-0.3,2.4-0.6,3.5h-12.4
		c0,0.2,0,0.3,0,0.4s0,0.2,0,0.2c0,0.7,0.2,1.3,0.6,1.8c0.4,0.5,0.9,0.7,1.7,0.7c0.7,0,1.2-0.2,1.7-0.7s0.9-0.9,1.2-1.4L278.1,319.7
		z M271.7,309.1c0-0.2,0.1-0.3,0.1-0.5c0-0.2,0-0.4,0-0.5c0-0.7-0.1-1.3-0.4-1.7c-0.2-0.4-0.6-0.6-1.2-0.6c-0.6,0-1.2,0.3-1.7,1
		c-0.5,0.6-0.8,1.5-1,2.4H271.7z"/>
	<path class="st1" d="M301.7,319.7c-0.4,0.8-1,1.6-1.6,2.4c-0.7,0.8-1.4,1.4-2.3,2c-0.9,0.6-1.9,1.1-2.9,1.4
		c-1.1,0.4-2.2,0.5-3.4,0.5c-1.6,0-3.1-0.3-4.3-0.8c-1.3-0.5-2.3-1.2-3.2-2.2c-0.9-1-1.5-2.1-2-3.5c-0.4-1.4-0.7-2.9-0.7-4.5
		c0-2.4,0.3-4.7,1-6.7c0.7-2,1.6-3.8,2.8-5.3c1.2-1.5,2.6-2.6,4.1-3.4c1.6-0.8,3.2-1.2,4.9-1.2c1.7,0,3.1,0.3,4.3,0.8
		c1.2,0.5,2.2,1.2,2.9,2.1c0.8,0.9,1.3,1.9,1.6,3.1c0.3,1.2,0.5,2.4,0.5,3.8c0,0.7-0.1,1.6-0.2,2.8c-0.1,1.2-0.3,2.4-0.6,3.5h-12.4
		c0,0.2,0,0.3,0,0.4s0,0.2,0,0.2c0,0.7,0.2,1.3,0.6,1.8c0.4,0.5,0.9,0.7,1.7,0.7c0.7,0,1.2-0.2,1.7-0.7s0.9-0.9,1.2-1.4L301.7,319.7
		z M295.3,309.1c0-0.2,0.1-0.3,0.1-0.5c0-0.2,0-0.4,0-0.5c0-0.7-0.1-1.3-0.4-1.7c-0.2-0.4-0.6-0.6-1.2-0.6c-0.6,0-1.2,0.3-1.7,1
		c-0.5,0.6-0.8,1.5-1,2.4H295.3z"/>
	<path class="st1" d="M311.7,325.2c-1.2,0-2.2-0.2-3-0.7c-0.9-0.4-1.6-1.1-2.2-1.9c-0.6-0.8-1-1.8-1.3-2.9c-0.3-1.1-0.4-2.3-0.4-3.6
		c0-1.9,0.2-3.9,0.7-6s1.2-3.9,2.1-5.6c0.9-1.7,2.1-3.1,3.4-4.2c1.4-1.1,3-1.6,4.8-1.6c1.4,0,2.6,0.3,3.3,1c0.8,0.7,1.3,1.4,1.6,2.3
		h0.2l0.5-2.5h9l-4,22.9c-0.4,2.3-0.9,4.3-1.7,6.1c-0.7,1.8-1.7,3.3-2.8,4.5c-1.2,1.2-2.5,2.1-4.2,2.8c-1.6,0.6-3.5,1-5.7,1
		c-1.7,0-3.4-0.3-5.1-0.9c-1.7-0.6-3.1-1.3-4.2-2.1l4.7-7.3c0.6,0.5,1.4,0.9,2.1,1.2c0.8,0.3,1.6,0.5,2.6,0.5c1.3,0,2.3-0.4,3.2-1.2
		c0.8-0.8,1.4-1.8,1.6-3l0.3-1.4h-0.1c-0.5,0.6-1.2,1.2-2.1,1.8C314.2,324.9,313.1,325.2,311.7,325.2z M314.2,314.7
		c0,0.9,0.1,1.6,0.4,2.2c0.3,0.6,0.8,0.8,1.5,0.8c0.6,0,1.1-0.3,1.5-0.8s0.8-1.2,1.1-2c0.3-0.8,0.5-1.6,0.6-2.5s0.2-1.7,0.2-2.4
		c0-0.9-0.1-1.7-0.4-2.2c-0.3-0.6-0.8-0.8-1.4-0.8c-0.6,0-1.1,0.3-1.5,0.8c-0.4,0.5-0.8,1.2-1.1,2c-0.3,0.8-0.5,1.7-0.6,2.6
		S314.2,314,314.2,314.7z"/>
	<path class="st1" d="M346.9,307.5c-0.5-0.4-1.1-0.8-1.7-1.1c-0.6-0.3-1.3-0.5-2.1-0.5c-0.4,0-0.9,0.1-1.2,0.3
		c-0.4,0.2-0.6,0.5-0.6,1.1c0,0.4,0.2,0.6,0.5,0.9s1,0.6,2,1.1c0.7,0.3,1.3,0.7,2,1.1c0.7,0.4,1.2,0.9,1.8,1.5c0.5,0.6,1,1.2,1.3,2
		c0.3,0.8,0.5,1.6,0.5,2.5c0,1.9-0.3,3.4-1,4.6c-0.7,1.2-1.6,2.2-2.6,2.9c-1,0.7-2.2,1.2-3.4,1.5c-1.2,0.3-2.3,0.5-3.3,0.5
		c-1.8,0-3.6-0.3-5.3-0.9s-3.1-1.4-4.3-2.5l4.9-6c0.6,0.6,1.4,1.1,2.2,1.5c0.8,0.3,1.5,0.5,2.2,0.5c0.5,0,0.9-0.1,1.3-0.3
		c0.4-0.2,0.6-0.5,0.6-1c0-0.4-0.2-0.8-0.7-1.1c-0.4-0.3-1.2-0.7-2.3-1.2c-0.7-0.3-1.3-0.7-1.9-1.1c-0.6-0.4-1.2-0.8-1.6-1.4
		c-0.5-0.5-0.9-1.1-1.1-1.8c-0.3-0.7-0.4-1.5-0.4-2.4c0-1.8,0.4-3.3,1.1-4.6c0.7-1.2,1.6-2.2,2.7-2.9c1.1-0.7,2.3-1.2,3.5-1.5
		c1.2-0.3,2.4-0.5,3.5-0.5c1.6,0,3.2,0.3,4.7,0.8s2.8,1.2,3.7,2L346.9,307.5z"/>
	<path class="st1" d="M360.5,325.6c-2.5,0-4.4-0.6-5.7-1.7s-1.9-2.8-1.9-4.9c0-0.4,0-0.7,0-1.2c0-0.4,0.1-0.8,0.1-1.2l1.7-9.6h-3.3
		l1.4-7.6h3.3l1-5.9h9.2l-1,5.9h4.2l-1.4,7.6h-4.1l-1.2,7.1c-0.1,0.2-0.1,0.5-0.1,0.8c0,0.3,0,0.5,0,0.7c0,1.4,0.7,2.1,2,2.1
		c0.3,0,0.5,0,0.9,0c0.3,0,0.6-0.1,0.8-0.1l-1.4,7.5c-0.4,0.2-1.1,0.4-2,0.5C362.1,325.6,361.3,325.6,360.5,325.6z"/>
	<path class="st1" d="M383.2,299.8c0.9-0.8,1.9-1.2,3.2-1.2c0.4,0,0.7,0,1,0.1c0.3,0,0.6,0.1,0.7,0.2l-2.2,9.7
		c-0.3-0.1-0.5-0.2-0.9-0.2c-0.3,0-0.7-0.1-1.2-0.1c-1.1,0-2,0.4-2.8,1.2s-1.2,1.9-1.5,3.1l-2.2,12.6h-9.6l3.5-19.6
		c0.1-0.5,0.2-1.1,0.3-1.7c0.1-0.6,0.2-1.2,0.3-1.7c0.1-0.6,0.2-1.1,0.2-1.6c0.1-0.5,0.1-0.9,0.1-1.2h8.8c0,0.4-0.1,1-0.1,1.8
		c-0.1,0.8-0.1,1.4-0.2,1.8h0.1C381.5,301.7,382.3,300.6,383.2,299.8z"/>
	<path class="st1" d="M398.3,309.1c0-0.1,0.1-0.2,0.1-0.4c0-0.2,0-0.3,0-0.4c0-0.4-0.1-0.8-0.4-1.2c-0.3-0.3-0.7-0.5-1.4-0.5
		c-0.9,0-1.7,0.2-2.5,0.6c-0.8,0.4-1.5,0.7-2,1.1l-3.4-6.1c1.2-1.1,2.7-2,4.4-2.6s3.4-1,5.1-1c3.2,0,5.5,0.8,6.9,2.3
		c1.4,1.6,2.1,3.6,2.1,6.2c0,0.7,0,1.4-0.1,2.2s-0.2,1.6-0.4,2.4l-1.5,8.7c-0.1,0.4-0.1,0.8-0.2,1.3c-0.1,0.5-0.1,0.9-0.2,1.4
		s-0.1,0.9-0.1,1.2c0,0.4,0,0.6,0,0.8h-7.9c0-0.3,0-0.7,0.1-1.2s0.1-0.9,0.2-1.2h-0.1c-0.4,0.8-1.1,1.6-2,2.2
		c-0.9,0.6-2,0.9-3.5,0.9c-0.7,0-1.4-0.1-2.1-0.4s-1.4-0.7-2-1.2c-0.6-0.5-1.1-1.2-1.5-2.1c-0.4-0.8-0.6-1.8-0.6-3
		c0-1.8,0.3-3.3,0.9-4.6c0.6-1.3,1.4-2.3,2.5-3.2c1.1-0.8,2.4-1.4,3.9-1.8c1.5-0.4,3.2-0.6,5.1-0.6H398.3z M396.8,314.9
		c-1,0-1.8,0.2-2.4,0.6c-0.6,0.4-1,0.9-1,1.6c0,1.1,0.5,1.6,1.4,1.6c0.7,0,1.3-0.3,1.8-0.8c0.4-0.5,0.8-1.2,0.9-2l0.2-1H396.8z"/>
</g>
<polygon class="st0" points="431.4,223.3 431.4,223.3 280.6,223.3 270,243.3 "/>
<polygon class="st0" points="361.4,223.3 361.4,223.3 210.7,223.3 208.6,242.3 "/>
<polygon class="st0" points="431.4,223.3 431.4,223.3 337.5,223.3 333.1,240.6 "/>
<g>
	<path class="st1" d="M254,169.6h-15l-1.4,7.2h13.9l-2.6,15.4h-13.9l-1.4,7.7h16.8l-2.9,16.8h-34.8l11.1-63.8h33.1L254,169.6z"/>
	<path class="st1" d="M282.8,169.2c1.7-1.5,3.6-2.3,6-2.3c0.7,0,1.3,0,1.9,0.1c0.6,0.1,1,0.2,1.4,0.3l-4.1,18.2
		c-0.5-0.2-1-0.3-1.6-0.4c-0.6-0.1-1.4-0.1-2.3-0.1c-2,0-3.8,0.8-5.2,2.3c-1.4,1.6-2.3,3.5-2.7,5.8l-4.1,23.6h-18l6.5-36.8
		c0.2-1,0.4-2,0.5-3.1c0.2-1.1,0.4-2.2,0.5-3.2c0.2-1,0.3-2,0.5-2.9c0.1-0.9,0.2-1.6,0.3-2.2h16.6c-0.1,0.8-0.2,2-0.3,3.4
		c-0.1,1.4-0.2,2.6-0.4,3.5h0.3C279.7,172.8,281.2,170.7,282.8,169.2z"/>
	<path class="st1" d="M301.4,216.8c-2.2,0-4.1-0.4-5.7-1.3c-1.6-0.8-3-2-4.1-3.6c-1.1-1.5-1.9-3.3-2.4-5.4c-0.5-2.1-0.8-4.3-0.8-6.8
		c0-3.6,0.4-7.3,1.3-11.2c0.9-3.8,2.2-7.4,3.9-10.5c1.7-3.2,3.9-5.8,6.4-7.8c2.6-2,5.6-3.1,9-3.1c2.7,0,4.8,0.6,6.3,1.9
		c1.5,1.3,2.4,2.7,2.9,4.3h0.4l0.9-4.8h16.8l-7.5,43c-0.7,4.3-1.8,8.1-3.1,11.4c-1.4,3.3-3.1,6.1-5.3,8.4c-2.2,2.3-4.8,4-7.8,5.2
		c-3,1.2-6.6,1.8-10.7,1.8c-3.2,0-6.4-0.5-9.5-1.6c-3.1-1.1-5.7-2.4-7.8-4l8.8-13.7c1.2,1,2.5,1.7,4,2.3c1.5,0.6,3.1,0.9,4.8,0.9
		c2.4,0,4.4-0.7,5.9-2.2c1.6-1.5,2.6-3.4,3.1-5.7l0.5-2.6h-0.2c-0.9,1.2-2.2,2.3-3.9,3.4C306.2,216.2,304,216.8,301.4,216.8z
		 M306.1,197.1c0,1.7,0.3,3,0.8,4.1c0.5,1.1,1.5,1.6,2.8,1.6c1.1,0,2-0.5,2.8-1.5c0.8-1,1.5-2.3,2-3.8c0.5-1.5,0.9-3.1,1.2-4.8
		c0.3-1.7,0.4-3.2,0.4-4.5c0-1.7-0.3-3.1-0.8-4.2s-1.4-1.6-2.6-1.6c-1.1,0-2,0.5-2.9,1.5c-0.8,1-1.5,2.3-2.1,3.8
		c-0.5,1.5-0.9,3.1-1.2,4.8C306.2,194.3,306.1,195.8,306.1,197.1z"/>
	<path class="st1" d="M382.2,186.7c0,4.2-0.5,8.2-1.6,12.1c-1.1,3.8-2.6,7.2-4.8,10.2c-2.1,2.9-4.8,5.3-7.9,7
		c-3.1,1.7-6.8,2.6-10.9,2.6c-3.1,0-5.8-0.5-8.1-1.5c-2.3-1-4.3-2.4-5.9-4.1c-1.6-1.8-2.8-3.9-3.6-6.3c-0.8-2.4-1.2-5.1-1.2-8
		c0-4.2,0.6-8.2,1.7-12.1c1.1-3.8,2.7-7.2,4.9-10.2c2.2-2.9,4.8-5.3,8-7c3.2-1.7,6.7-2.6,10.8-2.6c3,0,5.7,0.5,8,1.5
		s4.2,2.4,5.8,4.1c1.6,1.7,2.7,3.8,3.6,6.3C381.8,181.1,382.2,183.8,382.2,186.7z M365.4,188.3c0-1.7-0.3-3.2-0.8-4.2
		s-1.4-1.6-2.7-1.6c-1.1,0-2,0.5-2.8,1.5c-0.8,1-1.5,2.3-2,3.8c-0.5,1.5-0.9,3.1-1.2,4.8c-0.3,1.7-0.4,3.2-0.4,4.5
		c0,1.7,0.2,3.1,0.7,4.2c0.5,1.1,1.3,1.6,2.5,1.6c1.1,0,2-0.5,2.9-1.5c0.8-1,1.5-2.2,2.1-3.7c0.6-1.5,1-3.1,1.3-4.7
		C365.2,191.2,365.4,189.7,365.4,188.3z"/>
	<path class="st1" d="M391,176.9c0.2-1.1,0.4-2.2,0.5-3.2c0.2-1,0.3-2,0.5-2.9c0.1-0.9,0.2-1.6,0.3-2.2h16.6
		c-0.1,0.8-0.2,1.8-0.3,2.9c-0.1,1.1-0.2,2.1-0.4,3h0.3c1.2-2.1,2.8-3.9,4.9-5.4c2-1.5,4.5-2.3,7.4-2.3c2,0,3.8,0.4,5.2,1.1
		c1.4,0.8,2.6,1.7,3.5,2.9s1.6,2.5,2,3.9c0.4,1.4,0.6,2.8,0.6,4.1c0,1.4-0.1,2.9-0.3,4.4c-0.2,1.6-0.4,3.2-0.7,4.8l-5,28.7h-17.8
		l5.1-28.6c0.1-0.4,0.1-0.7,0.1-1c0-0.3,0-0.6,0-0.9c0-0.8-0.2-1.6-0.5-2.3c-0.3-0.7-1-1-2-1c-1.1,0-2,0.5-2.6,1.4
		c-0.6,0.9-1.1,2.2-1.4,3.7l-5,28.7h-17.9l6.5-36.8C390.6,179.1,390.8,178,391,176.9z"/>
</g>
</svg>
