<?xml version="1.0" encoding="utf-8"?>
<!-- Generator: Adobe Illustrator 20.0.0, SVG Export Plug-In . SVG Version: 6.00 Build 0)  -->
<svg version="1.1" id="Layer_1" xmlns="http://www.w3.org/2000/svg" xmlns:xlink="http://www.w3.org/1999/xlink" x="0px" y="0px"
	 viewBox="0 0 640 480" style="enable-background:new 0 0 640 480;" xml:space="preserve">
<style type="text/css">
	.st0{fill:#083C3F;}
	.st1{fill:#00D8A4;}
	.st2{fill:#FFFFFF;}
	.st3{fill:none;stroke:#FFFFFF;stroke-miterlimit:10;}
	.st4{fill:#FF4915;}
	.st5{fill:#FF3000;}
</style>
<rect x="97.4" y="212.7" class="st0" width="28.9" height="28.9"/>
<rect x="126.3" y="212.7" class="st1" width="28.9" height="28.9"/>
<rect x="97.4" y="241.1" class="st1" width="28.9" height="28.9"/>
<rect x="126.3" y="241.1" class="st0" width="28.9" height="28.9"/>
<g>
	<path class="st2" d="M107.5,218.6h5.2v10.9h5.1v4.4h-10.3V218.6z"/>
</g>
<g>
	<path class="st2" d="M105.6,248h6.6c0.8,0,1.5,0.1,2.2,0.2s1.4,0.4,2,0.8c0.6,0.4,1.1,0.9,1.4,1.5c0.4,0.6,0.5,1.5,0.5,2.4
		c0,0.9-0.2,1.8-0.7,2.5c-0.5,0.7-1.1,1.3-2,1.7l3.9,6.2h-5.9l-2.9-5.5h-0.2v5.5h-5V248z M110.6,254.5h1c0.2,0,0.4,0,0.6,0
		c0.2,0,0.4-0.1,0.6-0.2c0.2-0.1,0.3-0.2,0.5-0.4s0.2-0.4,0.2-0.7s-0.1-0.5-0.2-0.7c-0.1-0.2-0.2-0.3-0.4-0.4
		c-0.2-0.1-0.3-0.1-0.5-0.2s-0.4,0-0.5,0h-1.2V254.5z"/>
</g>
<g>
	<path class="st2" d="M138.4,248h5.5l6,15.4h-5.6l-0.8-2.3h-4.9l-0.8,2.3h-5.5L138.4,248z M141.1,253.3l-1.3,3.8h2.5L141.1,253.3z"
		/>
</g>
<g>
	<path class="st2" d="M138.4,218.6h5.5l6,15.4h-5.6l-0.8-2.3h-4.9l-0.8,2.3h-5.5L138.4,218.6z M141.1,224l-1.3,3.8h2.5L141.1,224z"
		/>
</g>
<g>
	<rect x="301.5" y="177" width="49.3" height="49.3"/>
	
		<rect x="294.2" y="197.5" transform="matrix(0.7071 0.7071 -0.7071 0.7071 257.773 -163.4417)" class="st3" width="64" height="64"/>
</g>
<g>
	<path d="M267,299.7v-55.5h1.7v53.9h16.2v1.6H267z"/>
	<path d="M313.1,283.9h-19.5l-4.2,15.8h-1.7l14.3-55.5h3l13.9,55.5h-1.7L313.1,283.9z M293.9,282.3h18.7l-9.1-36.9h-0.3L293.9,282.3
		z"/>
	<path d="M348.9,299.7l-11.7-28h-8.8v28h-1.7v-55.5h10.9c1.4,0,2.8,0.2,4.3,0.6c1.5,0.4,2.9,1.1,4.1,2.1c1.2,1,2.3,2.4,3.1,4.2
		c0.8,1.8,1.2,4,1.2,6.7c0,2.6-0.4,4.7-1.1,6.5c-0.7,1.8-1.6,3.2-2.7,4.3c-1.1,1.1-2.3,1.9-3.7,2.4c-1.4,0.5-2.7,0.7-4,0.7
		l11.8,28.1H348.9z M348.8,257.8c0-2.3-0.3-4.2-1-5.8c-0.7-1.5-1.5-2.8-2.6-3.7c-1.1-0.9-2.3-1.6-3.7-2c-1.4-0.4-2.8-0.6-4.3-0.6
		h-8.8v24.4h9.3c3.6,0,6.3-1.1,8.2-3.4C347.9,264.6,348.8,261.5,348.8,257.8z"/>
	<path d="M380.6,283.9h-19.5l-4.2,15.8h-1.7l14.3-55.5h3l13.9,55.5h-1.7L380.6,283.9z M361.5,282.3h18.7l-9.1-36.9h-0.3L361.5,282.3
		z"/>
</g>
<g>
	<path d="M266.7,314.8h3.5v0.8h-4.5v-6.7h4.3v0.8h-3.4v2h3.2v0.8h-3.2V314.8z"/>
	<path d="M274.8,314.8h3v0.8h-3.9v-6.7h0.9V314.8z"/>
	<path d="M282,314.8h3.5v0.8h-4.5v-6.7h4.3v0.8H282v2h3.2v0.8H282V314.8z"/>
	<path d="M295,314.6c-0.3,0.4-0.6,0.7-1,0.9c-0.4,0.2-0.9,0.3-1.5,0.3c-0.5,0-1-0.1-1.4-0.3c-0.4-0.2-0.8-0.4-1.1-0.7
		c-0.3-0.3-0.6-0.7-0.7-1.1c-0.2-0.4-0.3-0.9-0.3-1.4c0-0.5,0.1-1,0.3-1.4c0.2-0.4,0.4-0.8,0.8-1.1s0.7-0.5,1.1-0.7
		c0.4-0.2,0.9-0.3,1.4-0.3c0.2,0,0.5,0,0.7,0.1c0.2,0,0.5,0.1,0.7,0.2s0.4,0.2,0.6,0.3c0.2,0.1,0.3,0.3,0.5,0.5l-0.7,0.6
		c-0.2-0.2-0.4-0.4-0.7-0.6c-0.3-0.1-0.6-0.2-1-0.2c-0.4,0-0.7,0.1-1.1,0.2c-0.3,0.1-0.6,0.3-0.8,0.6c-0.2,0.2-0.4,0.5-0.5,0.9
		c-0.1,0.3-0.2,0.7-0.2,1c0,0.4,0.1,0.7,0.2,1.1c0.1,0.3,0.3,0.6,0.5,0.9c0.2,0.2,0.5,0.4,0.8,0.6c0.3,0.1,0.7,0.2,1.1,0.2
		c0.4,0,0.7-0.1,1-0.2c0.3-0.2,0.6-0.4,0.8-0.7L295,314.6z"/>
	<path d="M300.6,315.7h-0.9v-5.9h-2.2v-0.8h5.3v0.8h-2.2V315.7z"/>
	<path d="M307,315.7H306v-6.7h2.2c0.3,0,0.6,0,0.9,0.1c0.3,0.1,0.5,0.2,0.8,0.3c0.2,0.1,0.4,0.3,0.5,0.6c0.1,0.2,0.2,0.5,0.2,0.9
		c0,0.5-0.2,0.9-0.5,1.2c-0.3,0.3-0.7,0.5-1.2,0.6l1.9,3.1h-1.1l-1.7-3h-1V315.7z M307,311.9h1.1c0.2,0,0.4,0,0.6-0.1
		c0.2,0,0.4-0.1,0.5-0.2c0.1-0.1,0.3-0.2,0.3-0.3c0.1-0.1,0.1-0.3,0.1-0.5c0-0.2,0-0.4-0.1-0.5c-0.1-0.1-0.2-0.2-0.3-0.3
		c-0.1-0.1-0.3-0.1-0.5-0.2c-0.2,0-0.4-0.1-0.6-0.1H307V311.9z"/>
	<path d="M321,312.3c0,0.5-0.1,1-0.3,1.4c-0.2,0.4-0.4,0.8-0.7,1.1s-0.7,0.6-1.1,0.7c-0.4,0.2-0.9,0.3-1.4,0.3c-0.5,0-1-0.1-1.4-0.3
		c-0.4-0.2-0.8-0.4-1.1-0.7s-0.6-0.7-0.7-1.1c-0.2-0.4-0.3-0.9-0.3-1.4c0-0.5,0.1-1,0.3-1.4c0.2-0.4,0.4-0.8,0.7-1.1
		s0.7-0.5,1.1-0.7s0.9-0.3,1.4-0.3c0.5,0,1,0.1,1.4,0.3c0.4,0.2,0.8,0.4,1.1,0.7s0.6,0.7,0.7,1.1C320.9,311.3,321,311.8,321,312.3z
		 M320,312.3c0-0.4-0.1-0.7-0.2-1c-0.1-0.3-0.3-0.6-0.5-0.9c-0.2-0.2-0.5-0.4-0.8-0.6c-0.3-0.1-0.7-0.2-1.1-0.2
		c-0.4,0-0.7,0.1-1.1,0.2c-0.3,0.1-0.6,0.3-0.8,0.6c-0.2,0.2-0.4,0.5-0.5,0.9c-0.1,0.3-0.2,0.7-0.2,1c0,0.4,0.1,0.7,0.2,1.1
		c0.1,0.3,0.3,0.6,0.5,0.9c0.2,0.2,0.5,0.4,0.8,0.6s0.7,0.2,1,0.2c0.4,0,0.7-0.1,1.1-0.2s0.6-0.3,0.8-0.6s0.4-0.5,0.5-0.9
		C319.9,313,320,312.7,320,312.3z"/>
	<path d="M333.9,314.1l1.5,1.6h-1.2l-0.8-0.9c-0.3,0.3-0.5,0.6-0.9,0.7s-0.7,0.3-1.2,0.3c-0.3,0-0.6,0-0.8-0.1
		c-0.3-0.1-0.5-0.2-0.7-0.4c-0.2-0.2-0.4-0.4-0.5-0.6s-0.2-0.5-0.2-0.8c0-0.3,0-0.5,0.1-0.7s0.2-0.4,0.3-0.5
		c0.1-0.2,0.3-0.3,0.5-0.4s0.4-0.2,0.6-0.3c-0.2-0.2-0.4-0.5-0.6-0.7c-0.2-0.2-0.2-0.5-0.2-0.8c0-0.3,0-0.5,0.1-0.7
		c0.1-0.2,0.2-0.4,0.4-0.5c0.2-0.1,0.4-0.2,0.6-0.3s0.4-0.1,0.7-0.1s0.5,0,0.7,0.1c0.2,0.1,0.4,0.2,0.6,0.3s0.3,0.3,0.4,0.5
		c0.1,0.2,0.1,0.4,0.1,0.7c0,0.2,0,0.4-0.1,0.6c-0.1,0.2-0.2,0.3-0.3,0.5c-0.1,0.1-0.3,0.3-0.5,0.4c-0.2,0.1-0.4,0.2-0.5,0.3
		l1.3,1.4l0.8-1.4h1L333.9,314.1z M331.1,312.5c-0.3,0.1-0.6,0.3-0.8,0.5c-0.2,0.2-0.3,0.5-0.3,0.8c0,0.2,0,0.3,0.1,0.5
		c0.1,0.1,0.2,0.3,0.3,0.4c0.1,0.1,0.3,0.2,0.4,0.2c0.2,0.1,0.3,0.1,0.5,0.1c0.3,0,0.6-0.1,0.8-0.2c0.2-0.1,0.4-0.4,0.6-0.6
		L331.1,312.5z M332.5,310.4c0-0.2-0.1-0.4-0.2-0.6c-0.2-0.2-0.4-0.2-0.6-0.2c-0.3,0-0.5,0.1-0.6,0.2c-0.2,0.2-0.3,0.4-0.3,0.6
		c0,0.1,0,0.2,0.1,0.3s0.1,0.2,0.2,0.3c0.1,0.1,0.1,0.2,0.2,0.3c0.1,0.1,0.2,0.2,0.2,0.2c0.1-0.1,0.3-0.1,0.4-0.2s0.2-0.2,0.3-0.3
		s0.2-0.2,0.2-0.3C332.5,310.6,332.5,310.5,332.5,310.4z"/>
	<path d="M343.4,308.9h0.9v2.8h3.4v-2.8h1v6.7h-1v-3.1h-3.4v3.1h-0.9V308.9z"/>
	<path d="M359.5,312.3c0,0.5-0.1,1-0.3,1.4c-0.2,0.4-0.4,0.8-0.7,1.1c-0.3,0.3-0.7,0.6-1.1,0.7c-0.4,0.2-0.9,0.3-1.4,0.3
		c-0.5,0-1-0.1-1.4-0.3c-0.4-0.2-0.8-0.4-1.1-0.7c-0.3-0.3-0.6-0.7-0.7-1.1c-0.2-0.4-0.3-0.9-0.3-1.4c0-0.5,0.1-1,0.3-1.4
		c0.2-0.4,0.4-0.8,0.7-1.1c0.3-0.3,0.7-0.5,1.1-0.7c0.4-0.2,0.9-0.3,1.4-0.3c0.5,0,1,0.1,1.4,0.3c0.4,0.2,0.8,0.4,1.1,0.7
		c0.3,0.3,0.6,0.7,0.7,1.1C359.4,311.3,359.5,311.8,359.5,312.3z M358.5,312.3c0-0.4-0.1-0.7-0.2-1c-0.1-0.3-0.3-0.6-0.5-0.9
		c-0.2-0.2-0.5-0.4-0.8-0.6c-0.3-0.1-0.7-0.2-1.1-0.2c-0.4,0-0.7,0.1-1,0.2c-0.3,0.1-0.6,0.3-0.8,0.6c-0.2,0.2-0.4,0.5-0.5,0.9
		c-0.1,0.3-0.2,0.7-0.2,1c0,0.4,0.1,0.7,0.2,1.1s0.3,0.6,0.5,0.9s0.5,0.4,0.8,0.6c0.3,0.1,0.7,0.2,1,0.2s0.7-0.1,1.1-0.2
		c0.3-0.1,0.6-0.3,0.8-0.6s0.4-0.5,0.5-0.9C358.5,313,358.5,312.7,358.5,312.3z"/>
	<path d="M368.3,310.3c-0.2-0.2-0.5-0.4-0.8-0.5c-0.3-0.1-0.7-0.2-1.1-0.2c-0.4,0-0.7,0.1-1.1,0.2c-0.3,0.1-0.6,0.3-0.8,0.6
		c-0.2,0.2-0.4,0.5-0.5,0.9c-0.1,0.3-0.2,0.7-0.2,1c0,0.4,0.1,0.7,0.2,1.1s0.3,0.6,0.5,0.9c0.2,0.2,0.5,0.4,0.8,0.6s0.7,0.2,1.1,0.2
		c0.3,0,0.6,0,0.9-0.1c0.3-0.1,0.5-0.1,0.7-0.2v-1.9h-1.5V312h2.4v3.3c-0.4,0.2-0.7,0.3-1.2,0.4c-0.4,0.1-0.9,0.2-1.4,0.2
		c-0.5,0-1-0.1-1.4-0.3c-0.4-0.2-0.8-0.4-1.1-0.7c-0.3-0.3-0.6-0.7-0.7-1.1c-0.2-0.4-0.3-0.9-0.3-1.4c0-0.5,0.1-1,0.3-1.4
		c0.2-0.4,0.4-0.8,0.8-1.1s0.7-0.5,1.1-0.7c0.4-0.2,0.9-0.3,1.4-0.3c0.5,0,1,0.1,1.4,0.2c0.4,0.2,0.8,0.4,1.1,0.6L368.3,310.3z"/>
	<path d="M373.2,315.7h-1l2.9-6.7h0.9l2.9,6.7h-1.1l-0.7-1.7h-3.2L373.2,315.7z M374.2,313.2h2.5l-1.3-3.2L374.2,313.2z"/>
	<path d="M383,315.7h-0.9v-6.7h2.2c0.3,0,0.6,0,0.9,0.1c0.3,0.1,0.5,0.2,0.8,0.3c0.2,0.1,0.4,0.3,0.5,0.6c0.1,0.2,0.2,0.5,0.2,0.9
		c0,0.5-0.2,0.9-0.5,1.2c-0.3,0.3-0.7,0.5-1.2,0.6l1.9,3.1h-1.1l-1.7-3h-1V315.7z M383,311.9h1.1c0.2,0,0.4,0,0.6-0.1
		c0.2,0,0.4-0.1,0.5-0.2c0.1-0.1,0.3-0.2,0.3-0.3c0.1-0.1,0.1-0.3,0.1-0.5c0-0.2,0-0.4-0.1-0.5c-0.1-0.1-0.2-0.2-0.3-0.3
		c-0.1-0.1-0.3-0.1-0.5-0.2c-0.2,0-0.4-0.1-0.6-0.1H383V311.9z"/>
</g>
<g>
	<path class="st4" d="M484.4,248c2.7-0.2,4.1,0.8,4.7,2.4c0.2,0.4,0.2,0.8-0.5,0.8c-2.7-0.1-8.6,1.3-11.7,2.1
		c-1.3,0.3-1.8,0.3-2.4-0.5c-0.5-0.7-1.1-1.7-1.4-2.3c-0.4-0.9-0.4-1.7,0.2-3.1c2.6-6.7,11.5-23,14.7-27.5c0.5-0.6,1-0.6,1.3,0.1
		c0.6,1.3,0.9,3.6-1.3,7.6c-2.8,5.1-7.7,13.4-11.7,22C479.3,248.7,482.3,248.1,484.4,248z"/>
	<path class="st4" d="M495.3,253.1c-4.9,0-6-6.8-1.6-13.3c4.3-6.2,8.6-8.7,11.3-8.7c2.1,0,3.2,1.7,3.2,3.5c0.8-1.3,1.5-2.4,1.9-3
		c0.4-0.6,0.9-0.8,1.3-0.3c0.9,1,1.2,3.2,0.1,5.9c-1.1,2.4-3.9,6.6-5.1,9.4c-1.3,3.1-1.1,5.1,0.6,4.9c3.4-0.3,8.3-6.9,10.8-14.8
		c-4.4-1.6,0.8-8.9,2.9-9c1.7-0.1,1.1,3.1,0,6.8c1.9-0.2,3.9-1.1,6-2.5c0.8-0.5,1.1-0.6,1.6-0.1c1,1.1,2.3,3.6,0.8,5.4
		c-2.5,2.9-5.3,6.7-6.1,9.4c-0.9,3-0.3,5.1,1.3,5.2c2.3,0.2,4.9-3.4,6.7-7.4c0.2-0.4,0.6-0.5,0.8,0c0.3,0.6,0.4,2-0.2,3.5
		c-1.4,3.2-4.6,5.6-7.5,5.5c-4.1-0.2-5.7-3.9-4.4-8.2c1.1-3.5,4.4-7.5,6.7-10.1c-2.4,1.4-4.7,2-6.3,2c-2.6,7.6-7.5,15.7-13.2,16.1
		c-3,0.2-4.6-1.7-4.5-4.4C500.4,251,497.9,253.1,495.3,253.1z M497.3,241.9c-2.9,4.6-3.5,9.3-1.4,9.4c2.2,0.1,4.9-3.2,7.7-8.1
		c3.3-5.9,3.8-9.3,2.3-9.4C504.2,233.8,500.2,237.2,497.3,241.9z"/>
	<path class="st4" d="M549.3,231.7c0.5-0.7,0.9-0.8,1.3-0.3c0.8,1,1.2,3.3-0.1,6c-1.2,2.4-3.9,6.5-5.2,9.3c-1.3,3-1.4,5.3,0.4,5.2
		c2.2-0.1,5.2-3.8,7-7.5c0.3-0.5,0.6-0.5,0.9-0.1c0.2,0.5,0.2,1.8-0.5,3.3c-1.4,3-4.8,5.9-7.7,5.8c-2.9-0.2-4.4-1.9-4.4-4.4
		c-1.7,2.2-4.1,4.2-6.7,4.2c-5,0-6-6.8-1.6-13.3c4.4-6.3,8.6-8.8,11.3-8.8c2.3,0,3.4,1.8,3.3,3.9
		C548.1,233.7,548.7,232.6,549.3,231.7z M545,233.9c-1.7-0.2-5.6,3.3-8.6,8.1c-2.9,4.6-3.5,9.4-1.5,9.4c2.2,0.1,5-3.4,7.7-8.1
		C546.1,237.4,546.5,234.1,545,233.9z"/>
</g>
<g>
	<path d="M493.2,268.9v-2.8h-2.6v2.8h-1.6v-6.7h1.6v2.5h2.6v-2.5h1.6v6.7H493.2z"/>
	<path d="M505.8,265.6c0,0.5-0.1,1-0.3,1.4c-0.2,0.4-0.4,0.8-0.8,1.1c-0.3,0.3-0.7,0.6-1.2,0.7c-0.4,0.2-0.9,0.3-1.5,0.3
		s-1-0.1-1.4-0.3c-0.4-0.2-0.8-0.4-1.2-0.7c-0.3-0.3-0.6-0.7-0.8-1.1c-0.2-0.4-0.3-0.9-0.3-1.4c0-0.5,0.1-1,0.3-1.4
		c0.2-0.4,0.4-0.8,0.8-1.1s0.7-0.5,1.2-0.7c0.4-0.2,0.9-0.2,1.4-0.2s1,0.1,1.5,0.2c0.4,0.2,0.8,0.4,1.2,0.7c0.3,0.3,0.6,0.7,0.8,1.1
		C505.7,264.6,505.8,265,505.8,265.6z M504,265.6c0-0.3,0-0.6-0.1-0.8c-0.1-0.3-0.2-0.5-0.4-0.6c-0.2-0.2-0.4-0.3-0.6-0.4
		s-0.5-0.2-0.8-0.2s-0.5,0.1-0.8,0.2s-0.4,0.2-0.6,0.4c-0.2,0.2-0.3,0.4-0.4,0.6c-0.1,0.3-0.1,0.5-0.1,0.8c0,0.3,0,0.6,0.1,0.8
		c0.1,0.3,0.2,0.5,0.4,0.7c0.2,0.2,0.4,0.3,0.6,0.4c0.2,0.1,0.5,0.2,0.8,0.2s0.5-0.1,0.8-0.2c0.2-0.1,0.4-0.2,0.6-0.4
		c0.2-0.2,0.3-0.4,0.4-0.7S504,265.9,504,265.6z"/>
	<path d="M514.3,268.9c-0.4,0.1-0.9,0.2-1.4,0.2c-0.5,0-1-0.1-1.5-0.3c-0.4-0.2-0.8-0.4-1.2-0.7c-0.3-0.3-0.6-0.7-0.8-1.1
		c-0.2-0.4-0.3-0.9-0.3-1.4c0-0.5,0.1-1,0.3-1.5c0.2-0.4,0.4-0.8,0.8-1.1c0.3-0.3,0.7-0.5,1.2-0.7c0.4-0.2,0.9-0.2,1.4-0.2
		c0.5,0,1,0.1,1.5,0.2c0.5,0.2,0.8,0.4,1.1,0.6l-1,1.2c-0.2-0.2-0.4-0.3-0.6-0.4c-0.3-0.1-0.6-0.2-0.9-0.2c-0.3,0-0.5,0.1-0.8,0.2
		c-0.2,0.1-0.4,0.2-0.6,0.4c-0.2,0.2-0.3,0.4-0.4,0.7c-0.1,0.3-0.1,0.5-0.1,0.8c0,0.3,0,0.6,0.1,0.8c0.1,0.3,0.2,0.5,0.4,0.7
		c0.2,0.2,0.4,0.3,0.6,0.4s0.5,0.2,0.9,0.2c0.2,0,0.4,0,0.5,0c0.2,0,0.3-0.1,0.5-0.1v-1.2h-1.3V265h2.8v3.5
		C515.1,268.7,514.7,268.8,514.3,268.9z"/>
	<path d="M523.9,268.9l-0.5-1.3h-2.6l-0.5,1.3h-1.8l2.8-6.7h1.6l2.8,6.7H523.9z M522.1,264l-0.8,2.3h1.7L522.1,264z"/>
	<path d="M532.5,268.9l-1.5-2.7h-0.5v2.7h-1.6v-6.7h2.5c0.3,0,0.6,0,0.9,0.1c0.3,0.1,0.6,0.2,0.8,0.3c0.2,0.2,0.4,0.4,0.6,0.6
		s0.2,0.6,0.2,1c0,0.5-0.1,0.8-0.4,1.1c-0.2,0.3-0.6,0.5-1,0.7l1.7,2.9H532.5z M532.4,264.3c0-0.2,0-0.3-0.1-0.4s-0.2-0.2-0.3-0.2
		c-0.1-0.1-0.2-0.1-0.4-0.1c-0.1,0-0.3,0-0.4,0h-0.9v1.6h0.8c0.1,0,0.3,0,0.4,0c0.1,0,0.3-0.1,0.4-0.1s0.2-0.1,0.3-0.2
		C532.4,264.6,532.4,264.5,532.4,264.3z"/>
</g>
<path class="st5" d="M479.7,258c0,0,32.3-7,63.7,0C522.3,254.9,501.1,255.2,479.7,258z"/>
</svg>
