<?xml version="1.0" encoding="utf-8"?>
<!-- Generator: Adobe Illustrator 20.0.0, SVG Export Plug-In . SVG Version: 6.00 Build 0)  -->
<svg version="1.1" id="Layer_1" xmlns="http://www.w3.org/2000/svg" xmlns:xlink="http://www.w3.org/1999/xlink" x="0px" y="0px"
	 viewBox="0 0 640 480" style="enable-background:new 0 0 640 480;" xml:space="preserve">
<style type="text/css">
	.st0{fill:#D60000;}
	.st1{fill:#FFFFFF;}
</style>
<circle class="st0" cx="313.8" cy="239.5" r="63.4"/>
<g>
	<g>
		<path class="st1" d="M283,245.8c4-0.3,6.2,1.2,7.1,3.6c0.2,0.6,0.2,1.2-0.8,1.2c-4-0.1-12.9,1.9-17.6,3.2
			c-1.9,0.5-2.8,0.5-3.6-0.8c-0.7-1.1-1.7-2.5-2.1-3.5c-0.6-1.4-0.6-2.6,0.2-4.7c3.9-10,17.2-34.5,22.2-41.4c0.7-1,1.5-0.9,1.9,0.2
			c1,2,1.3,5.4-2,11.4c-4.2,7.7-11.6,20.1-17.6,33.1C275.3,246.9,279.9,246,283,245.8z"/>
		<path class="st1" d="M295,242c2-5.9,7.4-15.5,10.4-19.7c0.7-1,1.3-1.2,1.9-0.5c1.2,1.3,1.9,4.8-0.1,8.8c-1.7,3.6-5.1,9.1-6.8,13.1
			c-1.9,4.7-1.8,7.8,0.8,7.7c3.6-0.2,8.1-5.5,10.5-11.1c0.4-0.7,1-0.6,1.3,0c0.6,1.3,0.4,3-0.6,5c-2.4,5-7.5,8.4-12.1,8.4
			C294.2,253.8,292.7,248.6,295,242z M313,220.9c-1.1,1.1-3.3,0.9-4.5-1.2c-1.3-2.2-0.9-4.6,0.4-6c1.3-1.4,3.6-0.4,4.7,1.8
			C314.6,217.6,314.1,219.8,313,220.9z"/>
		<path class="st1" d="M318.3,251.4c3.9,0.3,9.5-5.5,12.7-11.7c0.6-1.1,1.5-1.1,1.8,0c0.4,1.3,0.1,3.1-0.8,5c-1.1,2.4-7,9.1-13.5,9
			c-5.6-0.2-8.6-4-6.7-12.8c3-14.1,12.2-28.7,20.5-37.3c1.2-1.3,2.3-1.5,3.5-0.4c2.3,2.1,2.8,5.1,1.9,8.9
			c-2.5,10-11.6,19.7-18.8,24.4C315.5,244.3,314.6,251.1,318.3,251.4z M334.8,210.4c-1.1-0.6-7,8.3-12.6,18.7
			c-0.7,1.3-1.4,2.6-1.9,3.9C331.3,224,335.8,211,334.8,210.4z"/>
		<path class="st1" d="M345.1,255.6c-4.5,10.8-10.3,23.9-17,26.5c-1.5,0.6-3.1,0.6-4.6-1.7c-1.6-2.4-3.2-5.3-1.6-10
			c2.4-7.3,9.3-12.1,17.3-15.3c0.8-1.9,1.6-3.9,2.5-5.8c-2.5,2.6-5.6,4.7-8.8,4.4c-5.8-0.5-6-6.4-4.1-11.7c1.8-5.2,5.7-13.2,11-20.5
			c0.6-0.9,1.5-0.8,2,0c1.9,2.6,1.5,6-1.5,10.8c-2.9,4.7-4.7,8-6.2,11.8c-1.6,4-1.5,6.8,0.4,7c3.2,0.2,7.2-4.9,11.3-12
			c3.5-6,7-13.3,9.8-17.4c0.7-1.1,1.3-1.2,2-0.6c1.1,1.5,1.8,4.9-0.3,9.1c-2.4,4.7-7.4,14.4-10.8,22.2c6.3-3.4,11.1-8,14.3-12.5
			c0.4-0.6,1.1-0.6,1.3,0.2c0.2,0.7-0.1,2.6-1.5,4.7C357.5,249.8,351.8,252.8,345.1,255.6z M325.1,277.6c1.1,1.5,7.7-7.3,12.7-19.2
			C327.3,264.5,323.7,275.6,325.1,277.6z"/>
	</g>
	<path class="st1" d="M270.1,262.5c0,0,33.7-10.9,67.3-3.3C316.3,257.3,293.3,258.4,270.1,262.5z"/>
</g>
</svg>
