<?xml version="1.0" encoding="utf-8"?>
<!-- Generator: Adobe Illustrator 20.0.0, SVG Export Plug-In . SVG Version: 6.00 Build 0)  -->
<svg version="1.1" id="Layer_1" xmlns="http://www.w3.org/2000/svg" xmlns:xlink="http://www.w3.org/1999/xlink" x="0px" y="0px"
	 viewBox="0 0 640 480" style="enable-background:new 0 0 640 480;" xml:space="preserve">
<g>
	<g>
		<path d="M215.1,380.9l7.9-40.4l12.9,29.2l13.4-29.2l7.1,40.4h-5.8l-3.6-22.7l-11.1,24.4L225,358.2l-4,22.7H215.1z"/>
		<path d="M262.5,361.9c0-5.3,1.9-9.8,5.8-13.6c3.9-3.8,8.5-5.7,13.9-5.7c5.4,0,9.9,1.9,13.8,5.7c3.8,3.8,5.8,8.4,5.8,13.8
			c0,5.4-1.9,10-5.8,13.8c-3.9,3.8-8.6,5.7-14,5.7c-4.9,0-9.2-1.7-13.1-5C264.6,372.8,262.5,367.9,262.5,361.9z M268.2,362
			c0,4.2,1.4,7.6,4.2,10.2c2.8,2.7,6,4,9.6,4c3.9,0,7.3-1.4,10-4.1c2.7-2.8,4.1-6.1,4.1-10.1c0-4-1.3-7.4-4-10.1
			c-2.7-2.7-6-4.1-9.9-4.1c-3.9,0-7.2,1.4-9.9,4.1C269.6,354.7,268.2,358,268.2,362z"/>
		<path d="M307.6,380.9l7.9-40.4l12.9,29.2l13.4-29.2l7.1,40.4h-5.8l-3.6-22.7l-11.1,24.4l-10.8-24.4l-4,22.7H307.6z"/>
		<path d="M378.9,371.8h-16.1l-4.2,9.1h-6.1l18.6-39.9l17.9,39.9h-6.2L378.9,371.8z M376.6,366.4l-5.6-12.8l-5.8,12.8H376.6z"/>
	</g>
	<g>
		<path d="M220.2,390.5v8.6h-1.8v-8.6h-3.3v-1.6h8.5v1.6H220.2z"/>
		<path d="M237.4,399.1l-2.7-4.2c-0.3,0-0.7,0-1.2,0v4.3h-1.9v-10.2c0.1,0,0.5,0,1.2-0.1s1.2-0.1,1.7-0.1c2.6,0,3.9,1,3.9,3
			c0,0.6-0.2,1.2-0.5,1.7c-0.4,0.5-0.8,0.9-1.4,1.1l3,4.6H237.4z M233.5,390.4v2.8c0.3,0,0.6,0,0.8,0c0.8,0,1.3-0.1,1.7-0.3
			c0.4-0.2,0.5-0.6,0.5-1.3c0-0.5-0.2-0.9-0.6-1.1c-0.4-0.2-1-0.3-1.8-0.3C233.9,390.4,233.7,390.4,233.5,390.4z"/>
		<path d="M253.8,399.1l-0.7-2.1h-3.5l-0.7,2.1h-2l4.1-10.4h0.8l4.1,10.4H253.8z M251.3,391.8l-1.2,3.8h2.5L251.3,391.8z"/>
		<path d="M270.5,399.2l-5-6.5v6.4h-1.7v-10.3h0.9l4.8,6.2v-6.2h1.7v10.4H270.5z"/>
		<path d="M279.7,398.5l0.7-1.6c0.7,0.5,1.4,0.8,2.1,0.8c1.1,0,1.6-0.4,1.6-1.1c0-0.4-0.1-0.7-0.4-1c-0.3-0.3-0.8-0.7-1.6-1.1
			c-0.8-0.4-1.3-0.7-1.6-1c-0.3-0.3-0.5-0.6-0.6-0.9c-0.1-0.4-0.2-0.7-0.2-1.2c0-0.8,0.3-1.5,0.9-2c0.6-0.5,1.3-0.8,2.2-0.8
			c1.2,0,2.1,0.2,2.6,0.7l-0.6,1.6c-0.6-0.5-1.3-0.7-2-0.7c-0.4,0-0.7,0.1-1,0.3s-0.3,0.5-0.3,0.9c0,0.6,0.7,1.2,2,1.8
			c0.7,0.3,1.2,0.6,1.5,0.9s0.5,0.6,0.7,1c0.2,0.4,0.2,0.8,0.2,1.3c0,0.8-0.3,1.5-1,2c-0.7,0.5-1.5,0.8-2.6,0.8
			C281.3,399.3,280.5,399,279.7,398.5z"/>
		<path d="M294.3,399.1v-10.2h1.8v8.6h4.6v1.6H294.3z"/>
		<path d="M315.4,399.1l-0.7-2.1h-3.5l-0.7,2.1h-2l4.1-10.4h0.8l4.1,10.4H315.4z M312.8,391.8l-1.2,3.8h2.5L312.8,391.8z"/>
		<path d="M328.3,390.5v8.6h-1.8v-8.6h-3.3v-1.6h8.5v1.6H328.3z"/>
		<path d="M339.8,399.1v-10.2h1.8v10.2H339.8z"/>
		<path d="M350.1,393.9c0-1.5,0.4-2.7,1.2-3.7c0.8-1,1.9-1.5,3.2-1.5c1.5,0,2.6,0.5,3.4,1.4c0.8,0.9,1.2,2.2,1.2,3.8s-0.4,3-1.2,3.9
			c-0.8,1-2,1.5-3.5,1.5c-1.4,0-2.4-0.5-3.2-1.4C350.4,396.9,350.1,395.5,350.1,393.9z M352,393.9c0,1.2,0.2,2.1,0.6,2.8
			c0.4,0.7,1,1,1.8,1c0.9,0,1.6-0.3,2.1-1s0.7-1.6,0.7-2.8c0-2.4-0.9-3.6-2.7-3.6c-0.8,0-1.4,0.3-1.9,1S352,392.8,352,393.9z"/>
		<path d="M374.2,399.2l-5-6.5v6.4h-1.7v-10.3h0.9l4.8,6.2v-6.2h1.7v10.4H374.2z"/>
		<path d="M383.3,398.5l0.7-1.6c0.7,0.5,1.4,0.8,2.1,0.8c1.1,0,1.6-0.4,1.6-1.1c0-0.4-0.1-0.7-0.4-1s-0.8-0.7-1.6-1.1
			c-0.8-0.4-1.3-0.7-1.6-1c-0.3-0.3-0.5-0.6-0.6-0.9c-0.1-0.4-0.2-0.7-0.2-1.2c0-0.8,0.3-1.5,0.9-2s1.3-0.8,2.2-0.8
			c1.2,0,2.1,0.2,2.6,0.7l-0.6,1.6c-0.6-0.5-1.3-0.7-2-0.7c-0.4,0-0.7,0.1-1,0.3c-0.2,0.2-0.3,0.5-0.3,0.9c0,0.6,0.7,1.2,2,1.8
			c0.7,0.3,1.2,0.6,1.5,0.9c0.3,0.3,0.5,0.6,0.7,1c0.2,0.4,0.2,0.8,0.2,1.3c0,0.8-0.3,1.5-1,2c-0.7,0.5-1.5,0.8-2.6,0.8
			C385,399.3,384.1,399,383.3,398.5z"/>
	</g>
</g>
<g>
	<g>
		<path d="M268.2,144.3c0,0.4-0.5,0.6-1.4,0.6c-0.1,0-0.7,0-1.7,0c-1,0-2.4,0-4.2,0c-0.2,0-3,0-8.4,0c-0.7,0-1-0.2-1-0.5
			c0-0.4,0.3-0.6,0.9-0.6h0.6h2c0.8-0.1,1.3-0.2,1.4-0.6c0.1-0.3,0.2-1.4,0.2-3.4v-19.8c0-3.1-0.4-5.3-1.2-6.6c-0.8-1.3-2.2-2-4.2-2
			c-1.4,0-2.7,0.4-3.8,1.2c-1.2,0.8-2,1.9-2.5,3.1c-0.2,0.8-0.3,3.7-0.3,8.8v15.1c0,1.8,0,2.8,0.1,3c0.2,0.6,0.6,1,1.4,1h2.3
			c0.7,0,1,0.2,1,0.6c0,0.3-0.4,0.5-1.2,0.5h-0.6c-0.5,0-2.3,0-5.4,0c-1.1,0-2.5,0-4.3,0c-1.8,0-2.9,0-3.2,0h-0.9
			c-0.6,0-1-0.2-1-0.6c0-0.3,0.2-0.4,0.5-0.5c0.3-0.1,1.4-0.1,3.2-0.1c0.8-0.1,1.3-0.3,1.4-0.8l0.1-1.1v-22.2c0-3.1-0.4-5.2-1.1-6.4
			c-0.8-1.2-2.1-1.7-4.1-1.7c-2,0-3.6,0.6-4.9,1.8c-1.3,1.2-1.9,2.8-1.9,4.6v22.6c0,1.6,0.1,2.5,0.4,2.8c0.2,0.3,1,0.4,2.3,0.4h0.6
			c0.3-0.1,0.6-0.1,0.9-0.1c0.6,0,0.9,0.2,0.9,0.6c0,0.4-0.3,0.6-1,0.6h-0.8c-1.3-0.1-3.3-0.1-6,0h-7.8c-0.7,0-1.1-0.2-1.1-0.6
			c0-0.4,0.3-0.6,1-0.6c2,0,3.2-0.1,3.5-0.3c0.3-0.2,0.5-0.5,0.6-1v-20.7c0-4-0.1-6.3-0.2-7c-0.2-0.7-0.9-1-2.3-1h-1.1
			c-0.5,0-1,0-1.5,0c-0.7,0-1-0.2-1-0.6c0-0.3,0.1-0.5,0.4-0.6c0.2-0.1,1.1-0.1,2.6-0.2c1.2-0.1,2.8-0.4,4.6-1
			c1.8-0.6,2.9-1.1,3.2-1.5c0.6-0.6,1-0.9,1.3-0.9s0.4,0.2,0.5,0.6c0.1,0.4,0.1,1.9,0.2,4.5c2.1-3.4,5.4-5.1,9.8-5.1
			c4.7,0,7.6,1.8,8.6,5.3c2.1-3.6,5.4-5.3,10-5.3c3.9,0,6.6,1.4,8,4.2c0.7,1.5,1.1,4,1.1,7.4v19.7c0,1.8,0.1,2.8,0.3,3
			c0.2,0.2,1,0.3,2.5,0.4h1.4C268,143.8,268.2,143.9,268.2,144.3z"/>
		<path d="M304.1,127.6c0,5.2-1.6,9.5-4.7,12.9c-3.1,3.5-7,5.2-11.7,5.2c-4.8,0-8.9-1.7-12.1-5.2c-3.2-3.5-4.9-7.8-4.9-12.9
			c0-5.3,1.6-9.7,4.7-13.2c3.2-3.5,7.1-5.3,11.8-5.3c4.8,0,8.8,1.8,12,5.3C302.5,117.9,304.1,122.3,304.1,127.6z M296.8,127.5
			c0-5.8-0.9-10.4-2.7-13.6c-1.3-2.4-3.6-3.6-6.7-3.6c-3,0-5.3,1.5-7,4.6c-1.7,3.1-2.5,7.3-2.5,12.7c0,5.4,0.9,9.6,2.7,12.6
			c1.8,3,4.3,4.5,7.5,4.5c2.4,0,4.2-0.9,5.4-2.8C295.7,138.3,296.8,133.5,296.8,127.5z"/>
		<path d="M362.5,144.3c0,0.4-0.5,0.6-1.4,0.6c-0.1,0-0.7,0-1.7,0c-1,0-2.4,0-4.2,0c-0.2,0-3,0-8.4,0c-0.7,0-1-0.2-1-0.5
			c0-0.4,0.3-0.6,0.9-0.6h0.6h2c0.8-0.1,1.3-0.2,1.4-0.6c0.1-0.3,0.2-1.4,0.2-3.4v-19.8c0-3.1-0.4-5.3-1.2-6.6c-0.8-1.3-2.2-2-4.2-2
			c-1.4,0-2.7,0.4-3.8,1.2c-1.2,0.8-2,1.9-2.5,3.1c-0.2,0.8-0.3,3.7-0.3,8.8v15.1c0,1.8,0,2.8,0.1,3c0.2,0.6,0.6,1,1.4,1h2.3
			c0.7,0,1,0.2,1,0.6c0,0.3-0.4,0.5-1.2,0.5h-0.6c-0.5,0-2.3,0-5.4,0c-1.1,0-2.5,0-4.3,0c-1.8,0-2.9,0-3.2,0h-0.9
			c-0.6,0-1-0.2-1-0.6c0-0.3,0.2-0.4,0.5-0.5c0.3-0.1,1.4-0.1,3.2-0.1c0.8-0.1,1.3-0.3,1.4-0.8l0.1-1.1v-22.2c0-3.1-0.4-5.2-1.1-6.4
			c-0.8-1.2-2.1-1.7-4.1-1.7c-2,0-3.6,0.6-4.9,1.8c-1.3,1.2-1.9,2.8-1.9,4.6v22.6c0,1.6,0.1,2.5,0.4,2.8c0.2,0.3,1,0.4,2.3,0.4h0.6
			c0.3-0.1,0.6-0.1,0.9-0.1c0.6,0,0.9,0.2,0.9,0.6c0,0.4-0.3,0.6-1,0.6h-0.8c-1.3-0.1-3.3-0.1-6,0h-7.8c-0.7,0-1.1-0.2-1.1-0.6
			c0-0.4,0.3-0.6,1-0.6c2,0,3.2-0.1,3.5-0.3c0.3-0.2,0.5-0.5,0.6-1v-20.7c0-4-0.1-6.3-0.2-7c-0.2-0.7-0.9-1-2.3-1h-1.1
			c-0.5,0-1,0-1.5,0c-0.7,0-1-0.2-1-0.6c0-0.3,0.1-0.5,0.4-0.6c0.2-0.1,1.1-0.1,2.6-0.2c1.2-0.1,2.8-0.4,4.6-1
			c1.8-0.6,2.9-1.1,3.2-1.5c0.6-0.6,1-0.9,1.3-0.9s0.4,0.2,0.5,0.6c0.1,0.4,0.1,1.9,0.2,4.5c2.1-3.4,5.4-5.1,9.8-5.1
			c4.7,0,7.6,1.8,8.6,5.3c2.1-3.6,5.4-5.3,10-5.3c3.9,0,6.6,1.4,8,4.2c0.7,1.5,1.1,4,1.1,7.4v19.7c0,1.8,0.1,2.8,0.3,3
			c0.2,0.2,1,0.3,2.5,0.4h1.4C362.2,143.8,362.5,143.9,362.5,144.3z"/>
		<path d="M396.7,141.2c0,0.9-0.9,1.8-2.8,2.8c-1.9,1-3.7,1.5-5.4,1.5c-3.6,0-5.6-1.9-5.7-5.7c-2,3.9-5.1,5.9-9.4,5.9
			c-2.3,0-4.2-0.7-5.6-2c-1.5-1.4-2.2-3.1-2.2-5.2c0-4.4,2.6-7.8,7.8-10.4c1.8-0.8,4.9-1.7,9.3-2.6v-2c0-4.7-0.2-7.8-0.7-9.2
			c-0.9-2.7-2.8-4.1-5.7-4.1c-1.9,0-3.4,0.5-4.7,1.5c-1.2,1-1.9,2.3-1.9,3.8c0,0.4,0.3,0.6,1,0.6s1.2,0.3,1.8,1
			c0.5,0.6,0.8,1.4,0.8,2.2c0,2.3-1.2,3.5-3.5,3.5c-1.2,0-2.2-0.4-3-1.2c-0.8-0.8-1.2-1.9-1.2-3.1c0-2.5,1-4.6,2.9-6.5
			c2.2-2,5.2-2.9,9.1-2.9c5.8,0,9.4,1.6,10.8,4.8c0.5,1.2,0.7,3.6,0.7,7.3V136c0,2.4,0,3.9,0.1,4.3c0.3,1.9,1,2.9,2.3,2.9
			c1.5,0,2.7-0.5,3.7-1.6c0.5-0.6,0.9-0.9,1.2-0.9C396.6,140.7,396.7,140.9,396.7,141.2z M382.7,132.7v-5.8
			c-3.9,0.9-6.7,2.1-8.4,3.5c-1.7,1.5-2.6,3.4-2.6,5.9c0,1.7,0.5,3.1,1.5,4.2c1,1.1,2.2,1.6,3.7,1.6c2.3,0,4.1-1.3,5.4-3.8
			C382.5,137.7,382.7,135.9,382.7,132.7z"/>
	</g>
	<g>
		<path d="M226.7,157.7v7.8h-1.6v-7.8h-3v-1.5h7.7v1.5H226.7z"/>
		<path d="M242.3,165.5l-2.5-3.8c-0.2,0-0.6,0-1,0v3.9h-1.7v-9.3c0.1,0,0.4,0,1.1,0c0.6,0,1.1,0,1.5,0c2.4,0,3.5,0.9,3.5,2.7
			c0,0.5-0.2,1-0.5,1.5c-0.3,0.5-0.7,0.8-1.2,1l2.7,4.2H242.3z M238.8,157.7v2.6c0.3,0,0.5,0,0.7,0c0.7,0,1.2-0.1,1.5-0.3
			c0.3-0.2,0.5-0.6,0.5-1.1c0-0.5-0.2-0.8-0.5-1c-0.3-0.2-0.9-0.3-1.6-0.3C239.2,157.7,239,157.7,238.8,157.7z"/>
		<path d="M257.2,165.5l-0.7-1.9h-3.2l-0.6,1.9h-1.8l3.7-9.4h0.7l3.7,9.4H257.2z M254.9,159l-1.1,3.4h2.2L254.9,159z"/>
		<path d="M272.3,165.7l-4.5-5.9v5.8h-1.6v-9.3h0.8l4.4,5.6v-5.6h1.6v9.4H272.3z"/>
		<path d="M280.6,165l0.6-1.5c0.7,0.5,1.3,0.7,1.9,0.7c1,0,1.5-0.3,1.5-1c0-0.3-0.1-0.6-0.3-0.9c-0.2-0.3-0.7-0.6-1.4-1
			s-1.2-0.7-1.4-0.9s-0.4-0.5-0.6-0.8s-0.2-0.7-0.2-1.1c0-0.7,0.3-1.3,0.8-1.8s1.2-0.7,2-0.7c1.1,0,1.9,0.2,2.4,0.6l-0.5,1.4
			c-0.6-0.4-1.2-0.6-1.8-0.6c-0.4,0-0.7,0.1-0.9,0.3s-0.3,0.5-0.3,0.8c0,0.5,0.6,1.1,1.8,1.7c0.6,0.3,1.1,0.6,1.3,0.8
			c0.3,0.3,0.5,0.6,0.6,0.9c0.1,0.3,0.2,0.7,0.2,1.1c0,0.8-0.3,1.4-0.9,1.9c-0.6,0.5-1.4,0.7-2.4,0.7
			C282.1,165.7,281.3,165.5,280.6,165z"/>
		<path d="M293.8,165.5v-9.3h1.6v7.8h4.2v1.5H293.8z"/>
		<path d="M313,165.5l-0.7-1.9h-3.2l-0.6,1.9h-1.8l3.7-9.4h0.7l3.7,9.4H313z M310.7,159l-1.1,3.4h2.2L310.7,159z"/>
		<path d="M324.7,157.7v7.8h-1.6v-7.8h-3v-1.5h7.7v1.5H324.7z"/>
		<path d="M335.1,165.5v-9.3h1.6v9.3H335.1z"/>
		<path d="M344.4,160.8c0-1.3,0.4-2.4,1.1-3.4c0.7-0.9,1.7-1.4,2.9-1.4c1.3,0,2.4,0.4,3.1,1.2c0.7,0.8,1.1,2,1.1,3.5
			s-0.4,2.7-1.1,3.6s-1.8,1.3-3.1,1.3c-1.2,0-2.2-0.4-2.9-1.3C344.8,163.5,344.4,162.3,344.4,160.8z M346.1,160.8
			c0,1.1,0.2,1.9,0.6,2.5c0.4,0.6,0.9,0.9,1.6,0.9c0.8,0,1.5-0.3,1.9-0.9c0.4-0.6,0.6-1.4,0.6-2.5c0-2.2-0.8-3.3-2.4-3.3
			c-0.7,0-1.3,0.3-1.7,0.9S346.1,159.8,346.1,160.8z"/>
		<path d="M366.3,165.7l-4.5-5.9v5.8h-1.6v-9.3h0.8l4.4,5.6v-5.6h1.6v9.4H366.3z"/>
		<path d="M374.6,165l0.6-1.5c0.7,0.5,1.3,0.7,1.9,0.7c1,0,1.5-0.3,1.5-1c0-0.3-0.1-0.6-0.3-0.9c-0.2-0.3-0.7-0.6-1.4-1
			s-1.2-0.7-1.4-0.9s-0.4-0.5-0.6-0.8c-0.1-0.3-0.2-0.7-0.2-1.1c0-0.7,0.3-1.3,0.8-1.8c0.5-0.5,1.2-0.7,2-0.7c1.1,0,1.9,0.2,2.4,0.6
			l-0.5,1.4c-0.6-0.4-1.2-0.6-1.8-0.6c-0.4,0-0.7,0.1-0.9,0.3s-0.3,0.5-0.3,0.8c0,0.5,0.6,1.1,1.8,1.7c0.6,0.3,1.1,0.6,1.3,0.8
			c0.3,0.3,0.5,0.6,0.6,0.9c0.1,0.3,0.2,0.7,0.2,1.1c0,0.8-0.3,1.4-0.9,1.9s-1.4,0.7-2.4,0.7C376.1,165.7,375.3,165.5,374.6,165z"/>
	</g>
</g>
<g>
	<g>
		<path d="M262.4,265.4c0,0.4-0.4,0.6-1.2,0.6h-0.4c-0.9,0-2.5,0-4.7,0s-3.9,0-5,0c-0.4,0-1.4,0-2.8,0c-1.4,0-3.3,0-5.6,0h-1.5
			c-0.6,0-0.9-0.2-0.9-0.5s0.3-0.5,0.9-0.5h2.1c1.9,0,3-0.3,3.4-1c0.1-0.2,0.2-1.4,0.2-3.7v-33.1c-1.3,3.4-3,8.7-5.2,16.1l-5.3,18.7
			c-0.7,2.3-1.2,3.4-1.6,3.4c-0.4,0-0.9-0.6-1.2-1.7c-0.1-0.4-1.4-4.3-3.9-11.7c-0.9-2.8-3.5-10.7-7.6-23.6V260c0,1.8,0,2.9,0.1,3.3
			c0,0.3,0.2,0.6,0.5,0.9c0.6,0.5,1.6,0.8,3.1,0.7c1.5,0,2.2,0.2,2.2,0.7c0,0.3-0.3,0.4-0.9,0.4l-5.4-0.2c-0.9,0-2,0-3.2,0.1
			c-1.6,0.1-2.7,0.2-3.3,0.2c-0.9,0-1.3-0.2-1.3-0.5c0-0.3,0.3-0.5,1-0.5c1.6,0,2.6,0,2.9-0.1c1.3-0.2,2-0.6,2.2-1.4
			c0.1-0.5,0.2-1.5,0.2-3.1v-29.1c0-3.3-0.2-5.2-0.6-5.7c-0.4-0.5-1.8-0.8-4.4-0.8c-0.7,0-1-0.2-1-0.5c0-0.4,0.3-0.6,1-0.5h1.6h11.5
			c0.1,0,0.3,0,0.7,0.1c3.5,11.2,6.4,20.6,8.8,28l8.2-28.1l1.3,0h8.1c0.1,0,0.5,0,1,0c0.6,0,1.2,0,1.6,0h2.8c0.8,0,1.2,0.2,1.2,0.5
			c0,0.4-0.2,0.6-0.7,0.5h-1.4c-1.7-0.1-2.9,0.1-3.4,0.5c-0.6,0.4-0.9,1.2-0.9,2.4c0,0.3,0,1,0,2.1s0,6.2,0,15.3v17
			c0,1.5,0.4,2.3,1.1,2.5c0.8,0.2,1.9,0.3,3.4,0.3C261.7,264.8,262.4,265,262.4,265.4z"/>
		<path d="M303.6,244.8c0,6.1-1.9,11.2-5.7,15.5c-3.8,4.2-8.5,6.3-14,6.3c-5.4,0-10-2.1-13.9-6.4c-3.9-4.3-5.8-9.4-5.8-15.4
			c0-6.2,1.9-11.3,5.8-15.5c3.8-4.1,8.6-6.2,14.3-6.2c5.5,0,10.1,2.1,13.8,6.3C301.7,233.5,303.6,238.6,303.6,244.8z M292.8,245.8
			c0-8.1-1-14-2.9-17.9c-1.3-2.5-3.3-3.8-6-3.8c-2.8,0-5,1.8-6.6,5.3c-1.6,3.5-2.5,8.3-2.5,14.2c0,8.6,1.5,15,4.4,19.3
			c1.2,1.8,3,2.7,5.3,2.7c2.7,0,4.6-1.3,5.7-3.8C292,257.7,292.8,252.4,292.8,245.8z"/>
		<path d="M353.6,265.4c0,0.4-0.4,0.6-1.2,0.6H352c-0.9,0-2.5,0-4.7,0s-3.9,0-5,0c-0.4,0-1.4,0-2.8,0c-1.4,0-3.3,0-5.6,0h-1.5
			c-0.6,0-0.9-0.2-0.9-0.5s0.3-0.5,0.9-0.5h2.1c1.9,0,3-0.3,3.4-1c0.1-0.2,0.2-1.4,0.2-3.7v-33.1c-1.3,3.4-3,8.7-5.2,16.1l-5.3,18.7
			c-0.7,2.3-1.2,3.4-1.6,3.4c-0.4,0-0.9-0.6-1.2-1.7c-0.1-0.4-1.4-4.3-3.9-11.7c-0.9-2.8-3.5-10.7-7.6-23.6V260c0,1.8,0,2.9,0.1,3.3
			c0,0.3,0.2,0.6,0.5,0.9c0.6,0.5,1.6,0.8,3.1,0.7c1.5,0,2.2,0.2,2.2,0.7c0,0.3-0.3,0.4-0.9,0.4l-5.4-0.2c-0.9,0-2,0-3.2,0.1
			c-1.6,0.1-2.7,0.2-3.3,0.2c-0.9,0-1.3-0.2-1.3-0.5c0-0.3,0.3-0.5,1-0.5c1.6,0,2.6,0,2.9-0.1c1.3-0.2,2-0.6,2.2-1.4
			c0.1-0.5,0.2-1.5,0.2-3.1v-29.1c0-3.3-0.2-5.2-0.6-5.7c-0.4-0.5-1.8-0.8-4.4-0.8c-0.7,0-1-0.2-1-0.5c0-0.4,0.3-0.6,1-0.5h1.6h11.5
			c0.1,0,0.3,0,0.7,0.1c3.5,11.2,6.4,20.6,8.8,28l8.2-28.1l1.3,0h8.1c0.1,0,0.5,0,1,0c0.6,0,1.2,0,1.6,0h2.8c0.8,0,1.2,0.2,1.2,0.5
			c0,0.4-0.2,0.6-0.7,0.5h-1.4c-1.7-0.1-2.9,0.1-3.4,0.5c-0.6,0.4-0.9,1.2-0.9,2.4c0,0.3,0,1,0,2.1s0,6.2,0,15.3v17
			c0,1.5,0.4,2.3,1.1,2.5c0.8,0.2,1.9,0.3,3.4,0.3C352.9,264.8,353.6,265,353.6,265.4z"/>
		<path d="M395.2,265.2c0,0.3-0.2,0.5-0.5,0.6s-1.1,0.1-2.3,0.1c-0.3,0-1.2,0-2.7-0.1c-3-0.1-5.1-0.1-6.2-0.1c-1.3,0-2.5,0-3.5,0.1
			c-2,0.1-3.4,0.1-4.1,0.1c-1.1,0-1.6-0.2-1.6-0.6c0-0.4,1.2-0.6,3.5-0.7c0.6,0,1,0,1.3-0.1c0.7-0.1,1-0.3,1-0.7
			c0-0.2-0.2-1.1-0.7-2.6l-1.3-4c-0.2-0.9-0.8-2.5-1.6-4.9h-1.1h-4.8c-1.7,0-3.5,0-5.4,0.1c-0.4,0.8-1.1,2.6-2.1,5.5l-1.3,4
			c-0.2,0.6-0.3,1.1-0.3,1.5c0,0.7,0.4,1.1,1.3,1.3c0.2,0,1.2,0.1,3,0.2c0.6,0,0.9,0.2,0.9,0.5c0,0.3-0.4,0.5-1.1,0.5h-10.1
			c-0.2,0-0.5,0-0.8,0c-0.6,0-0.9-0.2-0.9-0.6c0-0.2,0.6-0.4,1.9-0.5c1.6-0.1,2.7-0.4,3.1-0.9c0.4-0.5,1.2-2.2,2.2-5.1
			c0.8-2,1.9-5,3.4-9l7.4-20.3c0.4-0.9,0.9-2.3,1.5-4.2c0.4-1.4,0.8-2.1,1-2.1s0.7,0.9,1.3,2.8c0.8,2.4,4.4,11.9,10.7,28.4
			c0.8,2.1,1.6,4.3,2.4,6.5c0.7,1.9,1.4,3,2.1,3.4c0.5,0.3,1.8,0.5,3.8,0.4C395,264.7,395.2,264.9,395.2,265.2z M375.8,251
			c0-0.1-0.2-0.5-0.4-1.2c-1.6-4.7-2.8-8-3.6-9.9c-0.2-0.5-0.5-1.3-0.8-2.3l-0.4-1.1c-0.7,1.7-1.6,4.2-2.7,7.3
			c-1.2,3.5-2,5.9-2.6,7.3c0.4,0,0.8,0,1.3,0c0.5,0,0.9,0,1.3,0h3.4C372.4,251,373.9,251,375.8,251z"/>
	</g>
	<g>
		<path d="M245.3,275.2v7.4h-1.6v-7.4h-2.8v-1.4h7.3v1.4H245.3z"/>
		<path d="M257.7,282.7l-2.4-3.6c-0.2,0-0.6,0-1,0v3.7h-1.6v-8.8c0.1,0,0.4,0,1,0c0.6,0,1.1,0,1.4,0c2.2,0,3.4,0.9,3.4,2.6
			c0,0.5-0.2,1-0.5,1.4c-0.3,0.4-0.7,0.7-1.2,0.9l2.6,4H257.7z M254.3,275.2v2.5c0.3,0,0.5,0,0.7,0c0.7,0,1.1-0.1,1.4-0.3
			c0.3-0.2,0.5-0.5,0.5-1.1c0-0.4-0.2-0.7-0.5-0.9s-0.8-0.3-1.5-0.3C254.7,275.2,254.5,275.2,254.3,275.2z"/>
		<path d="M269.4,282.7l-0.6-1.8h-3l-0.6,1.8h-1.7l3.5-9h0.7l3.6,9H269.4z M267.2,276.4l-1.1,3.3h2.1L267.2,276.4z"/>
		<path d="M281.3,282.8l-4.3-5.6v5.5h-1.5v-8.8h0.8l4.2,5.3v-5.3h1.5v9H281.3z"/>
		<path d="M286.7,282.2l0.6-1.4c0.6,0.4,1.2,0.7,1.8,0.7c0.9,0,1.4-0.3,1.4-1c0-0.3-0.1-0.6-0.3-0.9c-0.2-0.3-0.7-0.6-1.3-0.9
			c-0.7-0.3-1.1-0.6-1.4-0.8c-0.2-0.2-0.4-0.5-0.5-0.8s-0.2-0.6-0.2-1c0-0.7,0.3-1.2,0.8-1.7c0.5-0.5,1.1-0.7,1.9-0.7
			c1,0,1.8,0.2,2.2,0.6l-0.5,1.4c-0.6-0.4-1.1-0.6-1.7-0.6c-0.4,0-0.6,0.1-0.8,0.3c-0.2,0.2-0.3,0.4-0.3,0.7c0,0.5,0.6,1,1.7,1.6
			c0.6,0.3,1,0.6,1.3,0.8c0.3,0.2,0.5,0.5,0.6,0.8c0.1,0.3,0.2,0.7,0.2,1.1c0,0.7-0.3,1.3-0.8,1.8c-0.6,0.5-1.3,0.7-2.3,0.7
			C288.1,282.8,287.4,282.6,286.7,282.2z"/>
		<path d="M296.8,282.7v-8.8h1.6v7.4h4v1.4H296.8z"/>
		<path d="M312.5,282.7l-0.6-1.8h-3l-0.6,1.8h-1.7l3.5-9h0.7l3.6,9H312.5z M310.4,276.4l-1.1,3.3h2.1L310.4,276.4z"/>
		<path d="M321.3,275.2v7.4h-1.6v-7.4h-2.8v-1.4h7.3v1.4H321.3z"/>
		<path d="M328.7,282.7v-8.8h1.6v8.8H328.7z"/>
		<path d="M335.1,278.2c0-1.3,0.3-2.3,1-3.2s1.6-1.3,2.8-1.3c1.3,0,2.2,0.4,2.9,1.2c0.7,0.8,1,1.9,1,3.3c0,1.4-0.4,2.6-1.1,3.4
			c-0.7,0.8-1.7,1.3-3,1.3c-1.2,0-2.1-0.4-2.7-1.2C335.4,280.7,335.1,279.6,335.1,278.2z M336.7,278.2c0,1,0.2,1.8,0.5,2.4
			c0.3,0.6,0.9,0.8,1.5,0.8c0.8,0,1.4-0.3,1.8-0.8s0.6-1.4,0.6-2.4c0-2.1-0.8-3.1-2.3-3.1c-0.7,0-1.2,0.3-1.6,0.8
			S336.7,277.2,336.7,278.2z"/>
		<path d="M353.4,282.8l-4.3-5.6v5.5h-1.5v-8.8h0.8l4.2,5.3v-5.3h1.5v9H353.4z"/>
		<path d="M358.8,282.2l0.6-1.4c0.6,0.4,1.2,0.7,1.8,0.7c0.9,0,1.4-0.3,1.4-1c0-0.3-0.1-0.6-0.3-0.9c-0.2-0.3-0.7-0.6-1.3-0.9
			c-0.7-0.3-1.1-0.6-1.4-0.8c-0.2-0.2-0.4-0.5-0.5-0.8s-0.2-0.6-0.2-1c0-0.7,0.3-1.2,0.8-1.7c0.5-0.5,1.1-0.7,1.9-0.7
			c1,0,1.8,0.2,2.2,0.6l-0.5,1.4c-0.6-0.4-1.1-0.6-1.7-0.6c-0.4,0-0.6,0.1-0.8,0.3c-0.2,0.2-0.3,0.4-0.3,0.7c0,0.5,0.6,1,1.7,1.6
			c0.6,0.3,1,0.6,1.3,0.8c0.3,0.2,0.5,0.5,0.6,0.8c0.1,0.3,0.2,0.7,0.2,1.1c0,0.7-0.3,1.3-0.8,1.8c-0.6,0.5-1.3,0.7-2.3,0.7
			C360.2,282.8,359.5,282.6,358.8,282.2z"/>
	</g>
</g>
</svg>
