<?xml version="1.0" encoding="utf-8"?>
<!-- Generator: Adobe Illustrator 20.0.0, SVG Export Plug-In . SVG Version: 6.00 Build 0)  -->
<svg version="1.1" id="Layer_1" xmlns="http://www.w3.org/2000/svg" xmlns:xlink="http://www.w3.org/1999/xlink" x="0px" y="0px"
	 viewBox="0 0 640 480" style="enable-background:new 0 0 640 480;" xml:space="preserve">
<style type="text/css">
	.st0{fill:#FFFFFF;}
</style>
<g>
	<g>
		<rect x="145.7" y="125.2" class="st0" width="91.7" height="76.6"/>
		<path d="M240.4,204.9h-97.7v-82.6h97.7V204.9z M148.7,198.9h85.7v-70.7h-85.7V198.9z"/>
	</g>
	<g>
		<path d="M182.9,160.6v-15.7c0-3.3-1.5-4.9-4.4-4.9c-0.9,0-1.7,0.3-2.5,0.8c-0.8,0.5-1.4,1.1-1.7,1.8v18.1h-5.8V144
			c0-1.2-0.4-2.2-1.1-2.9s-1.8-1.1-3.2-1.1c-0.7,0-1.5,0.3-2.4,0.8c-0.9,0.5-1.5,1.1-1.9,1.8v18h-5.8v-25h4l1.2,2.2
			c1.6-1.8,3.7-2.7,6.3-2.7c3.3,0,5.8,0.9,7.5,2.7c0.7-0.8,1.8-1.5,3.1-2c1.3-0.5,2.6-0.7,3.9-0.7c2.8,0,5,0.8,6.5,2.4
			c1.6,1.6,2.3,3.8,2.3,6.6v16.5H182.9z"/>
		<path d="M193.4,148c0-3.8,1.1-6.9,3.3-9.3c2.2-2.4,5.1-3.6,8.7-3.6c3.8,0,6.8,1.2,8.9,3.5c2.1,2.3,3.2,5.5,3.2,9.5
			c0,4-1.1,7.2-3.2,9.5c-2.1,2.4-5.1,3.5-8.8,3.5c-3.8,0-6.8-1.2-8.9-3.6C194.4,155.1,193.4,151.9,193.4,148z M199.5,148
			c0,5.5,2,8.3,6,8.3c1.8,0,3.3-0.7,4.3-2.2c1.1-1.4,1.6-3.5,1.6-6.1c0-5.4-2-8.2-5.9-8.2c-1.8,0-3.3,0.7-4.3,2.2
			C200,143.4,199.5,145.4,199.5,148z"/>
	</g>
	<g>
		<path d="M182.9,193.6v-15.7c0-3.3-1.5-4.9-4.4-4.9c-0.9,0-1.7,0.3-2.5,0.8c-0.8,0.5-1.4,1.1-1.7,1.8v18.1h-5.8V177
			c0-1.2-0.4-2.2-1.1-2.9s-1.8-1.1-3.2-1.1c-0.7,0-1.5,0.3-2.4,0.8c-0.9,0.5-1.5,1.1-1.9,1.8v18h-5.8v-25h4l1.2,2.2
			c1.6-1.8,3.7-2.7,6.3-2.7c3.3,0,5.8,0.9,7.5,2.7c0.7-0.8,1.8-1.5,3.1-2c1.3-0.5,2.6-0.7,3.9-0.7c2.8,0,5,0.8,6.5,2.4
			c1.6,1.6,2.3,3.8,2.3,6.6v16.5H182.9z"/>
		<path d="M209,191.1c-0.5,0.9-1.5,1.6-2.8,2.1s-2.7,0.8-4.1,0.8c-2.7,0-4.8-0.7-6.4-2c-1.5-1.3-2.3-3.3-2.3-5.7
			c0-2.9,1.1-5.2,3.3-6.8c2.2-1.6,5.3-2.5,9.3-2.5c0.7,0,1.5,0.1,2.4,0.4c0-2.9-1.9-4.4-5.6-4.4c-2.2,0-4,0.4-5.5,1.1l-1.3-4.5
			c2-1,4.4-1.5,7.2-1.5c3.8,0,6.6,0.9,8.4,2.6c1.8,1.7,2.7,5,2.7,9.9v5.4c0,3.3,0.7,5.4,2,6.3c-0.5,0.8-1,1.4-1.6,1.6
			c-0.6,0.2-1.3,0.3-2,0.3c-0.8,0-1.6-0.3-2.3-0.9C209.6,192.5,209.2,191.9,209,191.1z M208.4,181.8c-1-0.2-1.7-0.3-2.2-0.3
			c-4.6,0-6.9,1.5-6.9,4.5c0,2.2,1.3,3.4,3.9,3.4c3.5,0,5.3-1.8,5.3-5.3V181.8z"/>
	</g>
</g>
<g>
	<path d="M391,180.5v-21.4c0-4.5-2-6.7-6-6.7c-1.2,0-2.3,0.4-3.4,1.1c-1.1,0.7-1.9,1.5-2.3,2.4v24.6h-8v-22.6c0-1.7-0.5-3-1.6-4
		c-1-1-2.5-1.5-4.4-1.5c-1,0-2.1,0.4-3.3,1.1c-1.2,0.7-2,1.6-2.6,2.5v24.5h-8v-34.1h5.5l1.6,3c2.2-2.4,5.1-3.6,8.6-3.6
		c4.5,0,7.9,1.2,10.2,3.7c1-1.1,2.4-2,4.2-2.7c1.8-0.7,3.6-1,5.4-1c3.8,0,6.8,1.1,8.9,3.3c2.1,2.2,3.2,5.2,3.2,9v22.5H391z"/>
	<path d="M405.3,163.3c0-5.2,1.5-9.4,4.5-12.7c3-3.3,7-4.9,11.9-4.9c5.2,0,9.2,1.6,12.1,4.7c2.9,3.1,4.3,7.4,4.3,12.9
		c0,5.4-1.5,9.8-4.4,13c-2.9,3.2-6.9,4.8-12,4.8c-5.2,0-9.2-1.6-12.1-4.9S405.3,168.7,405.3,163.3z M413.6,163.3
		c0,7.5,2.7,11.3,8.1,11.3c2.5,0,4.5-1,5.9-2.9c1.5-2,2.2-4.7,2.2-8.3c0-7.4-2.7-11.1-8.1-11.1c-2.5,0-4.5,1-5.9,2.9
		C414.3,157.1,413.6,159.8,413.6,163.3z"/>
	<path d="M484,180.5v-21.4c0-4.5-2-6.7-6-6.7c-1.2,0-2.3,0.4-3.4,1.1c-1.1,0.7-1.9,1.5-2.3,2.4v24.6h-8v-22.6c0-1.7-0.5-3-1.6-4
		c-1-1-2.5-1.5-4.4-1.5c-1,0-2.1,0.4-3.3,1.1c-1.2,0.7-2,1.6-2.6,2.5v24.5h-8v-34.1h5.5l1.6,3c2.2-2.4,5.1-3.6,8.6-3.6
		c4.5,0,7.9,1.2,10.2,3.7c1-1.1,2.4-2,4.2-2.7c1.8-0.7,3.6-1,5.4-1c3.8,0,6.8,1.1,8.9,3.3c2.1,2.2,3.2,5.2,3.2,9v22.5H484z"/>
	<path d="M519.5,177c-0.7,1.2-2,2.2-3.8,2.9c-1.8,0.8-3.7,1.1-5.6,1.1c-3.7,0-6.6-0.9-8.7-2.8c-2.1-1.8-3.2-4.4-3.2-7.8
		c0-3.9,1.5-7,4.4-9.3s7.2-3.3,12.6-3.3c0.9,0,2,0.2,3.3,0.5c0-4-2.5-6-7.6-6c-3,0-5.5,0.5-7.5,1.5l-1.7-6.2c2.7-1.3,6-2,9.8-2
		c5.2,0,9,1.2,11.4,3.6c2.4,2.4,3.6,6.9,3.6,13.5v7.3c0,4.5,0.9,7.4,2.7,8.6c-0.7,1.1-1.4,1.9-2.2,2.1s-1.7,0.4-2.8,0.4
		c-1.1,0-2.2-0.4-3.1-1.3C520.4,179,519.8,178,519.5,177z M518.7,164.4c-1.4-0.3-2.4-0.4-3.1-0.4c-6.3,0-9.4,2.1-9.4,6.2
		c0,3.1,1.8,4.6,5.3,4.6c4.8,0,7.2-2.4,7.2-7.2V164.4z"/>
</g>
<g>
	<path d="M356.4,189.1v8.6h-1.8v-8.6h-3.2v-1.6h8.4v1.6H356.4z"/>
	<path d="M373.5,197.7l-2.7-4.2c-0.3,0-0.7,0-1.1,0v4.3h-1.9v-10.2c0.1,0,0.5,0,1.2-0.1c0.7,0,1.2-0.1,1.6-0.1c2.6,0,3.9,1,3.9,3
		c0,0.6-0.2,1.2-0.5,1.6c-0.4,0.5-0.8,0.8-1.3,1l3,4.6H373.5z M369.6,189.1v2.8c0.3,0,0.6,0,0.8,0c0.8,0,1.3-0.1,1.7-0.3
		c0.3-0.2,0.5-0.6,0.5-1.2c0-0.5-0.2-0.9-0.6-1c-0.4-0.2-1-0.3-1.8-0.3C370.1,189,369.9,189.1,369.6,189.1z"/>
	<path d="M389.9,197.7l-0.7-2.1h-3.5l-0.7,2.1h-2l4.1-10.3h0.8l4.1,10.3H389.9z M387.4,190.5l-1.2,3.8h2.4L387.4,190.5z"/>
	<path d="M406.4,197.8l-4.9-6.4v6.3h-1.7v-10.2h0.9l4.8,6.1v-6.1h1.7v10.3H406.4z"/>
	<path d="M415.5,197.1l0.7-1.6c0.7,0.5,1.4,0.8,2.1,0.8c1.1,0,1.6-0.4,1.6-1.1c0-0.3-0.1-0.7-0.4-1c-0.2-0.3-0.8-0.7-1.5-1.1
		c-0.8-0.4-1.3-0.7-1.6-1c-0.3-0.3-0.5-0.6-0.6-0.9c-0.1-0.3-0.2-0.7-0.2-1.2c0-0.8,0.3-1.4,0.9-2c0.6-0.5,1.3-0.8,2.2-0.8
		c1.2,0,2,0.2,2.6,0.7l-0.5,1.6c-0.6-0.5-1.3-0.7-2-0.7c-0.4,0-0.7,0.1-1,0.3s-0.3,0.5-0.3,0.9c0,0.6,0.6,1.2,1.9,1.8
		c0.7,0.3,1.2,0.6,1.5,0.9c0.3,0.3,0.5,0.6,0.7,1c0.2,0.4,0.2,0.8,0.2,1.2c0,0.8-0.3,1.5-1,2c-0.7,0.5-1.5,0.8-2.6,0.8
		C417.2,197.9,416.3,197.6,415.5,197.1z"/>
	<path d="M430,197.7v-10.2h1.8v8.6h4.6v1.6H430z"/>
	<path d="M451,197.7l-0.7-2.1h-3.5l-0.7,2.1h-2l4.1-10.3h0.8l4.1,10.3H451z M448.5,190.5l-1.2,3.8h2.4L448.5,190.5z"/>
	<path d="M463.9,189.1v8.6h-1.8v-8.6h-3.2v-1.6h8.4v1.6H463.9z"/>
	<path d="M475.2,197.7v-10.2h1.8v10.2H475.2z"/>
	<path d="M485.5,192.5c0-1.5,0.4-2.7,1.2-3.7s1.9-1.5,3.2-1.5c1.5,0,2.6,0.5,3.4,1.4c0.8,0.9,1.2,2.2,1.2,3.8s-0.4,2.9-1.2,3.9
		c-0.8,1-2,1.4-3.4,1.4c-1.4,0-2.4-0.5-3.1-1.4C485.8,195.5,485.5,194.2,485.5,192.5z M487.4,192.5c0,1.2,0.2,2.1,0.6,2.8
		c0.4,0.7,1,1,1.8,1c0.9,0,1.6-0.3,2.1-1c0.5-0.6,0.7-1.6,0.7-2.8c0-2.4-0.9-3.6-2.6-3.6c-0.8,0-1.4,0.3-1.9,1
		C487.6,190.5,487.4,191.4,487.4,192.5z"/>
	<path d="M509.4,197.8l-4.9-6.4v6.3h-1.7v-10.2h0.9l4.8,6.1v-6.1h1.7v10.3H509.4z"/>
	<path d="M518.5,197.1l0.7-1.6c0.7,0.5,1.4,0.8,2.1,0.8c1.1,0,1.6-0.4,1.6-1.1c0-0.3-0.1-0.7-0.4-1c-0.3-0.3-0.8-0.7-1.5-1.1
		c-0.8-0.4-1.3-0.7-1.6-1c-0.3-0.3-0.5-0.6-0.6-0.9c-0.1-0.3-0.2-0.7-0.2-1.2c0-0.8,0.3-1.4,0.9-2c0.6-0.5,1.3-0.8,2.2-0.8
		c1.2,0,2,0.2,2.6,0.7l-0.5,1.6c-0.6-0.5-1.3-0.7-2-0.7c-0.4,0-0.7,0.1-1,0.3s-0.3,0.5-0.3,0.9c0,0.6,0.6,1.2,1.9,1.8
		c0.7,0.3,1.2,0.6,1.5,0.9c0.3,0.3,0.5,0.6,0.7,1c0.2,0.4,0.2,0.8,0.2,1.2c0,0.8-0.3,1.5-1,2c-0.7,0.5-1.5,0.8-2.6,0.8
		C520.2,197.9,519.3,197.6,518.5,197.1z"/>
</g>
<circle cx="439.7" cy="312.9" r="44.9"/>
<g>
	<path class="st0" d="M439.8,310.9h-4.3l-2.6-13.3l-5,13.7h-1.6l-5-13.7l-2.7,13.3h-4.2l5-24.8h2.3l5.4,16.7l5.2-16.7h2.3
		L439.8,310.9z"/>
	<path class="st0" d="M441.3,298.3c0-3.5,1-6.5,2.9-8.9c1.9-2.4,4.5-3.7,7.7-3.7c3.6,0,6.3,1.1,8.2,3.3c1.9,2.2,2.8,5.3,2.8,9.3
		c0,4-1,7.1-2.9,9.5c-2,2.3-4.8,3.5-8.4,3.5c-3.3,0-5.9-1.2-7.6-3.5S441.3,302.3,441.3,298.3z M445.8,298.3c0,2.9,0.5,5.1,1.5,6.7
		s2.4,2.4,4.3,2.4c2.2,0,3.9-0.8,5-2.3c1.2-1.6,1.7-3.8,1.7-6.8c0-5.8-2.1-8.7-6.4-8.7c-2,0-3.5,0.8-4.5,2.4
		C446.4,293.5,445.8,295.6,445.8,298.3z"/>
	<path class="st0" d="M439.8,338.1h-4.3l-2.6-13.3l-5,13.7h-1.6l-5-13.7l-2.7,13.3h-4.2l5-24.8h2.3l5.4,16.7l5.2-16.7h2.3
		L439.8,338.1z"/>
	<path class="st0" d="M458.4,338.1l-1.8-5h-8.5l-1.7,5h-4.9l9.9-25.1h1.9l9.9,25.1H458.4z M452.3,320.6l-3,9.1h5.9L452.3,320.6z"/>
</g>
<g>
	<g>
		<path d="M150.5,329H143l-4.5-23.5l-8.8,24.1h-2.8l-8.8-24.1l-4.7,23.5H106l8.8-43.6h4.1l9.4,29.4l9.2-29.4h4.1L150.5,329z"/>
		<path d="M153.2,306.8c0-6.2,1.7-11.5,5.1-15.8c3.4-4.3,8-6.4,13.7-6.4c6.3,0,11.1,1.9,14.4,5.8c3.3,3.9,5,9.3,5,16.4
			s-1.7,12.6-5.2,16.7c-3.5,4.1-8.4,6.2-14.8,6.2c-5.9,0-10.3-2-13.5-6.1C154.8,319.5,153.2,313.9,153.2,306.8z M161.2,306.8
			c0,5.1,0.9,9.1,2.6,11.8c1.7,2.8,4.2,4.2,7.5,4.2c3.9,0,6.8-1.4,8.9-4.1c2-2.7,3.1-6.7,3.1-11.9c0-10.2-3.8-15.3-11.3-15.3
			c-3.5,0-6.1,1.4-8,4.2C162.2,298.3,161.2,302.1,161.2,306.8z"/>
		<path d="M238.8,329h-7.5l-4.5-23.5l-8.8,24.1h-2.8l-8.8-24.1l-4.7,23.5h-7.5l8.8-43.6h4.1l9.4,29.4l9.2-29.4h4.1L238.8,329z"/>
		<path d="M269.1,328.9l-3.2-8.8h-14.9l-3,8.8h-8.6l17.4-44.2h3.4l17.5,44.2H269.1z M258.4,298.1l-5.2,16.1h10.5L258.4,298.1z"/>
	</g>
	<g>
		<path d="M132.4,338.3v7.4h-1.6v-7.4H128v-1.4h7.3v1.4H132.4z"/>
		<path d="M144.7,345.7l-2.4-3.6c-0.2,0-0.6,0-1,0v3.7h-1.6v-8.8c0.1,0,0.4,0,1,0s1.1,0,1.4,0c2.2,0,3.4,0.9,3.4,2.6
			c0,0.5-0.2,1-0.5,1.4c-0.3,0.4-0.7,0.7-1.2,0.9l2.6,4H144.7z M141.4,338.3v2.5c0.3,0,0.5,0,0.7,0c0.7,0,1.1-0.1,1.4-0.3
			c0.3-0.2,0.5-0.5,0.5-1.1c0-0.4-0.2-0.7-0.5-0.9s-0.8-0.3-1.5-0.3C141.7,338.2,141.6,338.2,141.4,338.3z"/>
		<path d="M156.5,345.7l-0.6-1.8h-3l-0.6,1.8h-1.7l3.5-9h0.7l3.6,9H156.5z M154.3,339.5l-1.1,3.3h2.1L154.3,339.5z"/>
		<path d="M168.4,345.9l-4.3-5.6v5.5h-1.5v-8.8h0.8l4.2,5.3v-5.3h1.5v9H168.4z"/>
		<path d="M173.8,345.3l0.6-1.4c0.6,0.4,1.2,0.7,1.8,0.7c0.9,0,1.4-0.3,1.4-1c0-0.3-0.1-0.6-0.3-0.9s-0.7-0.6-1.3-0.9
			c-0.7-0.3-1.1-0.6-1.4-0.8c-0.2-0.2-0.4-0.5-0.5-0.8c-0.1-0.3-0.2-0.6-0.2-1c0-0.7,0.3-1.2,0.8-1.7c0.5-0.5,1.1-0.7,1.9-0.7
			c1,0,1.8,0.2,2.2,0.6l-0.5,1.4c-0.6-0.4-1.1-0.6-1.7-0.6c-0.4,0-0.6,0.1-0.8,0.3c-0.2,0.2-0.3,0.4-0.3,0.7c0,0.5,0.6,1,1.7,1.6
			c0.6,0.3,1,0.6,1.3,0.8c0.3,0.2,0.5,0.5,0.6,0.9c0.1,0.3,0.2,0.7,0.2,1.1c0,0.7-0.3,1.3-0.8,1.8s-1.3,0.7-2.3,0.7
			C175.2,345.9,174.5,345.7,173.8,345.3z"/>
		<path d="M183.9,345.7v-8.8h1.6v7.4h4v1.4H183.9z"/>
		<path d="M199.6,345.7L199,344h-3l-0.6,1.8h-1.7l3.5-9h0.7l3.6,9H199.6z M197.5,339.5l-1.1,3.3h2.1L197.5,339.5z"/>
		<path d="M208.3,338.3v7.4h-1.6v-7.4H204v-1.4h7.3v1.4H208.3z"/>
		<path d="M215.7,345.7v-8.8h1.6v8.8H215.7z"/>
		<path d="M222.1,341.2c0-1.3,0.3-2.3,1-3.2c0.7-0.9,1.6-1.3,2.8-1.3c1.3,0,2.2,0.4,2.9,1.2c0.7,0.8,1,1.9,1,3.3s-0.4,2.6-1.1,3.4
			c-0.7,0.8-1.7,1.3-3,1.3c-1.2,0-2.1-0.4-2.7-1.2C222.5,343.8,222.1,342.7,222.1,341.2z M223.8,341.2c0,1,0.2,1.8,0.5,2.4
			c0.3,0.6,0.9,0.9,1.5,0.9c0.8,0,1.4-0.3,1.8-0.8s0.6-1.4,0.6-2.4c0-2.1-0.8-3.1-2.3-3.1c-0.7,0-1.2,0.3-1.6,0.8
			C224,339.5,223.8,340.3,223.8,341.2z"/>
		<path d="M240.5,345.9l-4.3-5.6v5.5h-1.5v-8.8h0.8l4.2,5.3v-5.3h1.5v9H240.5z"/>
		<path d="M245.9,345.3l0.6-1.4c0.6,0.4,1.2,0.7,1.8,0.7c0.9,0,1.4-0.3,1.4-1c0-0.3-0.1-0.6-0.3-0.9s-0.7-0.6-1.3-0.9
			c-0.7-0.3-1.1-0.6-1.4-0.8c-0.2-0.2-0.4-0.5-0.5-0.8c-0.1-0.3-0.2-0.6-0.2-1c0-0.7,0.3-1.2,0.8-1.7c0.5-0.5,1.1-0.7,1.9-0.7
			c1,0,1.8,0.2,2.2,0.6l-0.5,1.4c-0.6-0.4-1.1-0.6-1.7-0.6c-0.4,0-0.6,0.1-0.8,0.3c-0.2,0.2-0.3,0.4-0.3,0.7c0,0.5,0.6,1,1.7,1.6
			c0.6,0.3,1,0.6,1.3,0.8c0.3,0.2,0.5,0.5,0.6,0.9c0.1,0.3,0.2,0.7,0.2,1.1c0,0.7-0.3,1.3-0.8,1.8s-1.3,0.7-2.3,0.7
			C247.3,345.9,246.6,345.7,245.9,345.3z"/>
	</g>
</g>
</svg>
