<svg id="Layer_1" data-name="Layer 1" xmlns="http://www.w3.org/2000/svg" viewBox="0 0 800 400"><defs><style>.cls-1{fill:#333;}.cls-2{fill:#bf00a4;}.cls-3{fill:#a30294;}.cls-4{fill:#63005a;}.cls-5{font-size:25.28px;font-family:TrebuchetMS, Trebuchet MS;letter-spacing:0.85em;}.cls-6{letter-spacing:0.75em;}</style></defs><title>Artboard 1</title><path class="cls-1" d="M253.78,247V180.4q0-20.94-18.76-20.94a19.73,19.73,0,0,0-10.72,3.28,19.11,19.11,0,0,0-7.25,7.54V247H192.25V176.53q0-7.84-4.86-12.46t-13.7-4.62q-4.67,0-10.17,3.48a23.73,23.73,0,0,0-8,7.64V247H130.72V140.7h17.07l5.06,9.33q10.32-11.31,26.7-11.31,21.14,0,31.86,11.51a32,32,0,0,1,13-8.39,47.15,47.15,0,0,1,16.67-3.13q17.76,0,27.64,10.17t9.88,27.94V247Z"/><path class="cls-1" d="M298.44,193.6q0-24.31,14-39.6t37.07-15.28q24.21,0,37.61,14.69t13.4,40.2q0,25.41-13.65,40.39t-37.37,15q-24.22,0-37.66-15.13T298.44,193.6Zm25.8,0q0,35.13,25.31,35.13A21.75,21.75,0,0,0,368,219.6q6.8-9.13,6.8-26,0-34.64-25.21-34.64a21.88,21.88,0,0,0-18.46,9.13Q324.24,177.23,324.25,193.6Z"/><path class="cls-1" d="M543.48,247V180.4q0-20.94-18.76-20.94A19.73,19.73,0,0,0,514,162.74a19.1,19.1,0,0,0-7.25,7.54V247H481.94V176.53q0-7.84-4.86-12.46t-13.7-4.62q-4.67,0-10.17,3.48a23.73,23.73,0,0,0-8,7.64V247H420.41V140.7h17.07l5.06,9.33q10.32-11.31,26.7-11.31,21.14,0,31.86,11.51a32,32,0,0,1,13-8.39,47.14,47.14,0,0,1,16.67-3.13q17.76,0,27.64,10.17t9.88,27.94V247Z"/><path class="cls-1" d="M654.23,236.38q-3.37,5.56-11.76,9.08A44.8,44.8,0,0,1,625,249q-17.17,0-27-8.58T588.14,216q0-18.46,13.84-28.88t39.35-10.42a43.49,43.49,0,0,1,10.32,1.49q0-18.76-23.72-18.76-14,0-23.42,4.67l-5.36-19.25q12.8-6.15,30.47-6.15,24.31,0,35.63,11.06t11.31,41.93v22.73q0,21.24,8.53,26.7-3.07,5.36-6.85,6.6a27.67,27.67,0,0,1-8.64,1.24,13.77,13.77,0,0,1-9.63-4A20.25,20.25,0,0,1,654.23,236.38ZM651.85,197a52.81,52.81,0,0,0-9.53-1.29q-29.38,0-29.38,19.25,0,14.29,16.57,14.29,22.33,0,22.33-22.33Z"/><rect class="cls-2" x="115.13" y="223.27" width="12.34" height="23.73"/><rect class="cls-3" x="115.13" y="195.75" width="12.34" height="23.73"/><rect class="cls-4" x="115.13" y="168.24" width="12.34" height="23.73"/><rect class="cls-1" x="115.13" y="140.72" width="12.34" height="23.73"/><text class="cls-5" transform="translate(194.28 288.18)">TRANSL<tspan class="cls-6" x="214.35" y="0">A</tspan><tspan x="248.29" y="0">TIONS</tspan></text></svg>