<?xml version="1.0" encoding="utf-8"?>
<!-- Generator: Adobe Illustrator 20.0.0, SVG Export Plug-In . SVG Version: 6.00 Build 0)  -->
<svg version="1.1" id="Layer_1" xmlns="http://www.w3.org/2000/svg" xmlns:xlink="http://www.w3.org/1999/xlink" x="0px" y="0px"
	 viewBox="0 0 640 480" style="enable-background:new 0 0 640 480;" xml:space="preserve">
<style type="text/css">
	.st0{fill:#42210B;}
	.st1{fill:#FFFFFF;}
	.st2{fill:#331707;}
</style>
<g>
	<path d="M381.7,334.1v4.8c-1.5-1.1-2.8-1.6-4-1.6c-1.3,0-2.3,0.5-3.1,1.4c-0.8,0.9-1.2,2-1.2,3.4c0,1.3,0.3,2.4,0.9,3.3
		c0.3,0.5,0.8,1.1,1.5,1.9s1.6,1.7,2.6,2.8c2,2,3.3,3.8,4.1,5.2c0.7,1.4,1.1,3.2,1.1,5.2c0,2.8-0.8,5.1-2.4,6.9
		c-1.6,1.8-3.6,2.6-6.1,2.6c-2.1,0-3.9-0.6-5.3-1.7v-4.8c1.7,1.3,3.3,1.9,4.7,1.9c1.3,0,2.4-0.4,3.1-1.3s1.1-2.1,1.1-3.6
		c0-1.3-0.3-2.5-0.9-3.5c-0.3-0.5-0.7-1.1-1.2-1.7s-1.2-1.4-2-2.2c-1.2-1.2-2.3-2.3-3.1-3.2s-1.4-1.8-1.8-2.5
		c-0.8-1.4-1.1-3.1-1.1-5.2c0-2.8,0.7-5.1,2.2-6.7c1.5-1.7,3.5-2.5,6-2.5C378.5,332.9,380.1,333.3,381.7,334.1z"/>
	<path d="M393.2,333.4h3.8l7.8,36.2H400l-1.4-7.1h-7.2l-1.4,7.1h-4.7L393.2,333.4z M397.9,358.7l-1.1-5.8c-0.7-3.9-1.3-8.1-1.8-12.6
		c-0.2,2.2-0.5,4.4-0.8,6.6s-0.8,4.6-1.2,7.1l-0.9,4.6H397.9z"/>
	<path d="M407.6,333.4h4.5l4.9,14.4c1.4,4.1,2.6,8.4,3.7,13.1c-0.4-2.8-0.7-5.3-0.9-7.6s-0.3-4.4-0.3-6.4v-13.5h4.9v36.2h-4.6
		l-5.5-16.3c-0.5-1.5-1-3.1-1.4-4.7s-0.9-3.3-1.2-5c0-0.2-0.1-0.5-0.2-0.8s-0.2-0.7-0.2-1.1c0,0.4,0.1,0.8,0.1,1s0.1,0.5,0.1,0.7
		l0.3,3.7l0.3,4.5c0,0.2,0,0.6,0,0.9s0,0.8,0,1.2l0.3,15.8h-4.8V333.4z"/>
	<path d="M427.2,333.4h15.9v4.3h-5.5v31.9h-4.8v-31.9h-5.6V333.4z"/>
	<path d="M445.8,333.4h4.8v25.6c0,2.6,0.2,4.3,0.7,5.2c0.5,0.9,1.4,1.3,2.9,1.3s2.4-0.4,2.8-1.1c0.5-0.8,0.7-2.3,0.7-4.7v-26.3h4.8
		v26.3c0,3.9-0.6,6.6-1.8,8c-1.4,1.6-3.6,2.4-6.6,2.4c-3.2,0-5.5-1-6.9-3c-0.9-1.4-1.4-4.1-1.4-8V333.4z"/>
	<path d="M482.2,333.9v4.4c-1.2-0.6-2.3-0.9-3.1-0.9c-1.2,0-2.1,0.3-3,0.9s-1.5,1.4-2.1,2.6s-0.9,2.7-1.2,4.5s-0.4,4-0.4,6.5
		c0,8.9,2.3,13.4,6.9,13.4c0.8,0,1.8-0.2,2.9-0.8v4.5c-1.2,0.7-2.5,1-3.9,1c-7.3,0-11-6-11-18c0-6.5,0.9-11.3,2.7-14.4
		s4.5-4.7,8.2-4.7C479.5,332.9,480.9,333.2,482.2,333.9z"/>
	<path d="M486.3,333.4h4.9v14.2h7.1v-14.2h4.9v36.2h-4.9v-17.9h-7.1v17.9h-4.9V333.4z"/>
	<path d="M526.9,352.3c0,6.4-0.7,10.9-2.1,13.6s-3.8,4-7.1,4c-3.5,0-6-1.4-7.4-4.3c-1.4-2.8-2.1-7.9-2.1-15.1c0-6.4,0.7-11,2.1-13.7
		c1.4-2.7,3.8-4,7.2-4c3,0,5.3,1,6.8,3.1c1,1.4,1.7,3.4,2.1,5.9C526.7,344.3,526.9,347.8,526.9,352.3z M521.8,352.9
		c0-6.3-0.3-10.4-0.8-12.5c-0.6-2.1-1.7-3.1-3.4-3.1s-2.9,0.9-3.5,2.8c-0.6,1.9-0.8,5.7-0.8,11.5c0,5.3,0.3,9,0.9,11
		c0.6,1.9,1.7,2.9,3.4,2.9c1.6,0,2.8-0.9,3.4-2.7C521.5,361,521.8,357.7,521.8,352.9z"/>
</g>
<g>
	<path d="M369.7,410.9c0.6,0.4,1.5,0.8,2.6,1.2c1.1,0.4,2.4,0.6,3.8,0.6c1.8,0,3.2-0.4,4.4-1.3s1.7-2.3,1.7-4.2c0-1.2-0.3-2.3-1-3.3
		s-1.4-1.8-2.4-2.6s-2-1.6-3.1-2.3c-1.1-0.8-2.1-1.6-3.1-2.5s-1.8-2-2.4-3.1c-0.6-1.2-1-2.6-1-4.3c0-2.7,0.8-4.7,2.4-6
		c1.6-1.3,3.7-1.9,6.3-1.9c1.6,0,3,0.1,4.3,0.4s2.3,0.7,3,1.1l-1.2,3.2c-0.6-0.4-1.4-0.7-2.5-1s-2.3-0.4-3.7-0.4
		c-1.7,0-3,0.4-3.8,1.3c-0.8,0.8-1.2,1.9-1.2,3.2c0,1.1,0.3,2.1,1,3c0.6,0.9,1.4,1.7,2.4,2.4c1,0.8,2,1.5,3.1,2.3
		c1.1,0.8,2.1,1.7,3.1,2.6s1.8,2,2.4,3.3c0.6,1.2,1,2.7,1,4.3c0,2.8-0.8,5-2.5,6.6c-1.7,1.6-4,2.4-7.1,2.4c-1.9,0-3.5-0.2-4.7-0.5
		c-1.2-0.4-2.2-0.8-3-1.2L369.7,410.9z"/>
	<path d="M403.3,405.9h-9.5l-2.7,9.4h-3.6l10.1-34.1h2l10.1,34.1h-3.8L403.3,405.9z M394.8,402.8h7.7l-2.9-10.4l-0.9-5.1h-0.1
		l-0.9,5.2L394.8,402.8z"/>
	<path d="M418.3,394l-2.1-5.3h-0.1l0.5,5.3v21.3h-3.5v-34.1h2.2l12.4,21.8l2,5h0.2l-0.5-5v-21.3h3.5v34.1h-2.2L418.3,394z"/>
	<path d="M456.7,385h-8.3v30.3h-3.6V385h-8.3v-3.3h20.1V385z"/>
	<path d="M475.8,381.7h3.5v22.5c0,4.1-0.8,7-2.4,8.8c-1.6,1.8-3.8,2.7-6.7,2.7c-3.4,0-5.9-0.9-7.4-2.6c-1.6-1.8-2.3-4.5-2.3-8.1
		v-23.3h3.6v21.4c0,1.7,0.1,3.2,0.3,4.4c0.2,1.2,0.6,2.1,1.1,2.9c0.5,0.7,1.2,1.3,1.9,1.6c0.8,0.3,1.7,0.5,2.8,0.5
		c2.1,0,3.6-0.7,4.4-2.2c0.8-1.5,1.2-3.8,1.2-7.1V381.7z"/>
	<path d="M503,414c-0.8,0.7-1.8,1.2-3,1.4c-1.2,0.3-2.5,0.4-3.8,0.4c-1.7,0-3.3-0.3-4.7-1s-2.7-1.7-3.7-3c-1-1.4-1.8-3.2-2.4-5.4
		c-0.6-2.2-0.9-4.9-0.9-8c0-3.2,0.3-5.9,1-8.1s1.5-4,2.6-5.4c1.1-1.4,2.3-2.4,3.8-3c1.4-0.6,2.9-0.9,4.4-0.9c1.5,0,2.8,0.1,3.8,0.3
		c1,0.2,1.9,0.5,2.6,0.8l-0.9,3.3c-0.6-0.4-1.4-0.6-2.3-0.8c-0.9-0.2-1.9-0.3-3-0.3s-2.2,0.2-3.2,0.7c-1,0.5-1.9,1.3-2.6,2.4
		c-0.8,1.1-1.4,2.6-1.8,4.3c-0.4,1.8-0.7,4-0.7,6.6c0,4.7,0.8,8.2,2.4,10.5c1.6,2.4,3.7,3.5,6.4,3.5c1.1,0,2.1-0.2,2.9-0.5
		c0.9-0.3,1.6-0.7,2.2-1.1L503,414z"/>
	<path d="M523.4,399.8H511v15.5h-3.6v-33.6h3.6v14.8h12.4v-14.8h3.6v33.6h-3.6V399.8z"/>
	<path d="M532.1,398.5c0-5.7,0.9-10,2.7-13s4.6-4.4,8.4-4.4c2,0,3.7,0.4,5.1,1.2c1.4,0.8,2.6,2,3.4,3.5s1.5,3.3,1.9,5.5
		c0.4,2.1,0.6,4.5,0.6,7.2c0,5.7-0.9,10-2.8,13c-1.8,2.9-4.6,4.4-8.4,4.4c-2,0-3.7-0.4-5.1-1.2c-1.4-0.8-2.6-2-3.5-3.5
		c-0.9-1.5-1.5-3.3-1.9-5.5C532.3,403.6,532.1,401.2,532.1,398.5z M535.9,398.5c0,1.9,0.1,3.7,0.4,5.4s0.7,3.2,1.3,4.5
		c0.6,1.3,1.3,2.3,2.3,3.1c0.9,0.8,2,1.2,3.4,1.2c2.4,0,4.2-1.2,5.5-3.5c1.2-2.3,1.9-5.8,1.9-10.6c0-1.9-0.1-3.6-0.4-5.3
		c-0.3-1.7-0.7-3.2-1.3-4.5c-0.6-1.3-1.3-2.3-2.3-3.1c-0.9-0.8-2.1-1.2-3.4-1.2c-2.4,0-4.2,1.2-5.4,3.5
		C536.6,390.2,535.9,393.7,535.9,398.5z"/>
</g>
<g>
	<path d="M380.8,448c0-1-0.3-1.9-0.9-2.6c-0.6-0.7-1.4-1.4-2.3-2c-0.9-0.6-1.9-1.3-3-2s-2.1-1.5-3-2.4c-0.9-0.9-1.7-2-2.3-3.2
		c-0.6-1.2-0.9-2.7-0.9-4.5c0-1.6,0.2-3,0.7-4.2c0.5-1.1,1.2-2.1,2-2.8c0.9-0.7,1.9-1.2,3.1-1.6c1.2-0.3,2.4-0.5,3.8-0.5
		c1.6,0,3.2,0.2,4.6,0.5c1.4,0.3,2.6,0.8,3.5,1.3l-1.9,5.3c-0.5-0.4-1.4-0.7-2.4-1.1s-2.2-0.5-3.5-0.5s-2.2,0.3-2.9,0.8
		c-0.7,0.5-1,1.3-1,2.3c0,0.9,0.3,1.7,0.9,2.4c0.6,0.7,1.4,1.4,2.3,2c0.9,0.6,1.9,1.3,3,2c1.1,0.7,2.1,1.5,3,2.4s1.7,2,2.3,3.2
		c0.6,1.2,0.9,2.7,0.9,4.4s-0.2,3.2-0.7,4.4c-0.5,1.2-1.2,2.3-2.1,3.1c-0.9,0.8-2,1.4-3.3,1.8c-1.3,0.4-2.7,0.6-4.3,0.6
		c-2,0-3.7-0.2-5.2-0.6c-1.5-0.4-2.6-0.8-3.4-1.3l2-5.4c0.6,0.4,1.5,0.8,2.6,1.2c1.1,0.4,2.3,0.6,3.6,0.6
		C379.2,451.8,380.8,450.5,380.8,448z"/>
	<path d="M403.7,449h-7.9l-2,7.7h-6l9.7-33.8h4.8l9.8,33.8h-6.3L403.7,449z M397,444.1h5.6l-1.9-7.8l-0.8-5.3h-0.2l-0.8,5.3
		L397,444.1z"/>
	<path d="M421.5,440.1l-2.2-5.9h-0.2l0.8,5.8v16.6h-5.7v-33.8h4.7l9.6,16.9l2.1,5.8h0.3l-0.8-5.7v-16.8h5.7v33.8h-4.7L421.5,440.1z"
		/>
	<path d="M460.2,428.6h-7.9v28h-6v-28h-8v-5.6h21.9V428.6z"/>
	<path d="M477.6,423.1h5.7v21.8c0,4.4-0.9,7.5-2.7,9.5c-1.8,2-4.2,2.9-7.4,2.9c-3.7,0-6.4-1-8.1-2.9c-1.7-1.9-2.6-4.8-2.6-8.7v-22.6
		h6v21.6c0,2.6,0.4,4.5,1.1,5.5s1.9,1.6,3.5,1.6c1.6,0,2.7-0.6,3.4-1.7c0.7-1.1,1-2.9,1-5.4V423.1z"/>
	<path d="M506.5,455.3c-0.8,0.7-1.9,1.2-3.3,1.5c-1.4,0.3-2.8,0.5-4.2,0.5c-1.7,0-3.3-0.3-4.8-0.9c-1.5-0.6-2.8-1.6-3.9-3
		c-1.1-1.4-2-3.2-2.6-5.4c-0.6-2.2-1-5-1-8.3c0-3.4,0.4-6.2,1.1-8.4c0.7-2.2,1.7-4,2.8-5.4c1.2-1.3,2.5-2.3,4-2.8
		c1.5-0.5,3-0.8,4.6-0.8c1.6,0,2.9,0.1,4.1,0.4s2.1,0.5,2.9,0.9l-1.2,5.3c-0.6-0.3-1.3-0.6-2.1-0.7c-0.8-0.2-1.8-0.3-2.9-0.3
		c-2.2,0-3.9,1-5.1,2.9c-1.2,1.9-1.8,4.9-1.8,9c0,1.8,0.1,3.4,0.4,4.8c0.3,1.5,0.7,2.7,1.3,3.8c0.6,1.1,1.3,1.9,2.3,2.4
		s2,0.9,3.3,0.9c1.1,0,2.1-0.2,2.9-0.5s1.5-0.7,2.2-1.1L506.5,455.3z"/>
	<path d="M524.6,442.5h-9.2v14.2h-6v-33.6h6v13.8h9.2v-13.8h6v33.6h-6V442.5z"/>
	<path d="M534.2,439.9c0-5.7,1-10,2.9-13c2-3,4.9-4.5,8.9-4.5c2.1,0,3.9,0.4,5.4,1.2c1.5,0.8,2.7,2,3.7,3.5c1,1.5,1.7,3.4,2.1,5.5
		c0.5,2.2,0.7,4.6,0.7,7.2c0,5.7-1,10-3,13c-2,3-5,4.5-8.9,4.5c-2.1,0-3.9-0.4-5.4-1.2c-1.5-0.8-2.7-2-3.7-3.5s-1.7-3.4-2.1-5.5
		C534.4,444.9,534.2,442.5,534.2,439.9z M540.5,439.9c0,1.7,0.1,3.3,0.3,4.7c0.2,1.5,0.5,2.7,1,3.8c0.4,1.1,1,1.9,1.7,2.5
		s1.5,0.9,2.6,0.9c1.9,0,3.2-0.9,4.2-2.8c0.9-1.9,1.4-4.9,1.4-9.1c0-1.6-0.1-3.2-0.3-4.6c-0.2-1.5-0.5-2.7-0.9-3.8
		c-0.4-1.1-1-1.9-1.7-2.5s-1.6-0.9-2.6-0.9C542.4,428,540.5,431.9,540.5,439.9z"/>
</g>
<g>
	<path d="M383.6,299.8c-1.2-1.5-2.8-2.3-4.7-2.3c-0.5,0-1.1,0.1-1.6,0.3c-0.5,0.2-1,0.5-1.4,0.8c-0.4,0.4-0.7,0.9-1,1.5
		c-0.2,0.6-0.4,1.3-0.4,2.2c0,1.4,0.4,2.6,1.3,3.3c0.9,0.8,2,1.5,3.4,2.2c0.8,0.4,1.7,0.9,2.5,1.4c0.9,0.5,1.6,1.2,2.4,2
		c0.7,0.8,1.3,1.7,1.7,2.7c0.4,1.1,0.7,2.3,0.7,3.7c0,1.7-0.3,3.1-0.8,4.4c-0.5,1.3-1.2,2.4-2.1,3.2c-0.9,0.9-1.9,1.5-3.1,2
		c-1.2,0.4-2.4,0.7-3.7,0.7c-1.9,0-3.6-0.4-5.2-1.1c-1.6-0.7-2.9-1.7-3.8-2.8l3.1-4.2c0.7,0.9,1.6,1.6,2.7,2.1
		c1,0.5,2.1,0.8,3.2,0.8c1.2,0,2.2-0.4,3-1.2c0.8-0.8,1.2-2,1.2-3.5c0-1.5-0.5-2.6-1.4-3.5s-2.2-1.7-3.6-2.4
		c-0.9-0.4-1.8-0.9-2.6-1.5c-0.8-0.5-1.5-1.2-2.2-1.9c-0.6-0.8-1.1-1.6-1.5-2.6c-0.4-1-0.6-2.2-0.6-3.6c0-1.8,0.3-3.3,0.8-4.5
		c0.6-1.3,1.3-2.3,2.2-3.1c0.9-0.8,1.9-1.4,3.1-1.8c1.2-0.4,2.3-0.6,3.5-0.6c1.7,0,3.3,0.3,4.6,0.8c1.4,0.6,2.5,1.4,3.4,2.5
		L383.6,299.8z"/>
	<path d="M406.6,327.2l-1.7-7.2H396l-1.7,7.2h-5.8l8.4-34h7.3l8.3,34H406.6z M400.6,298.6h-0.2l-3.7,16.8h7.5L400.6,298.6z"/>
	<path d="M431,327.2l-9.6-24h-0.1l0.1,24h-5.2v-34h6.6l9.6,24.1h0.1l0-24.1h5v34H431z"/>
	<path d="M452.8,298.1v29.1h-5.7v-29.1h-6.4v-4.9h18.4v4.9H452.8z"/>
	<path d="M482.8,320.2c-0.4,1.6-1,2.9-1.9,4.1c-0.9,1.2-2,2.1-3.3,2.8c-1.4,0.7-3,1-5,1c-2,0-3.6-0.3-4.9-1
		c-1.3-0.7-2.4-1.6-3.3-2.8c-0.8-1.2-1.5-2.5-1.8-4.1c-0.4-1.6-0.6-3.2-0.6-5v-21.9h5.8v21.4c0,1.1,0.1,2.1,0.2,3
		c0.1,1,0.4,1.8,0.8,2.6c0.4,0.7,0.9,1.3,1.5,1.8c0.6,0.4,1.5,0.6,2.4,0.6s1.8-0.2,2.4-0.6c0.6-0.4,1.1-1,1.5-1.8
		c0.4-0.7,0.6-1.6,0.8-2.6c0.1-1,0.2-2,0.2-3v-21.4h5.7v21.9C483.3,316.9,483.1,318.6,482.8,320.2z"/>
	<path d="M506,326.8c-1.4,0.8-3.1,1.2-5.3,1.2c-1.9,0-3.7-0.4-5.2-1.3c-1.6-0.9-2.9-2.1-3.9-3.7s-1.9-3.5-2.5-5.6
		c-0.6-2.2-0.9-4.6-0.9-7.2s0.3-5,0.9-7.2c0.6-2.2,1.4-4.1,2.5-5.7c1.1-1.6,2.4-2.8,4-3.7c1.6-0.9,3.3-1.3,5.2-1.3
		c2,0,3.7,0.4,5.1,1.1c1.5,0.7,2.7,1.8,3.6,3.1l-3.3,4c-1.3-1.9-3-2.8-5.1-2.8c-1.2,0-2.2,0.3-3,1c-0.9,0.7-1.6,1.5-2.2,2.7
		c-0.6,1.1-1,2.4-1.3,4c-0.3,1.5-0.4,3.1-0.4,4.9c0,1.7,0.1,3.3,0.4,4.8c0.3,1.5,0.7,2.8,1.3,4s1.3,2,2.2,2.7c0.9,0.7,1.9,1,3.1,1
		c1.1,0,2.1-0.3,2.9-0.9c0.8-0.6,1.5-1.3,2-2.1l3.3,3.9C508.5,324.9,507.4,326,506,326.8z"/>
	<path d="M529.4,327.2v-15.1h-10.2v15.1h-5.7v-34h5.7V307h10.2v-13.8h5.7v34H529.4z"/>
	<path d="M565,310.1c0,2.7-0.3,5.1-0.8,7.3c-0.6,2.2-1.4,4.1-2.4,5.6c-1.1,1.6-2.3,2.8-3.9,3.6c-1.5,0.9-3.2,1.3-5.1,1.3
		c-1.9,0-3.6-0.4-5.1-1.3c-1.5-0.9-2.8-2.1-3.8-3.6c-1.1-1.6-1.9-3.4-2.4-5.6c-0.6-2.2-0.8-4.6-0.8-7.3c0-2.7,0.3-5.1,0.8-7.3
		c0.5-2.2,1.3-4,2.4-5.6c1.1-1.6,2.3-2.8,3.9-3.6c1.5-0.8,3.2-1.3,5.2-1.3c1.9,0,3.6,0.4,5.1,1.3c1.5,0.8,2.8,2.1,3.9,3.6
		c1.1,1.6,1.9,3.4,2.4,5.6C564.7,305,565,307.5,565,310.1z M559.1,310.1c0-1.7-0.1-3.4-0.4-4.9c-0.3-1.5-0.7-2.8-1.2-3.9
		c-0.5-1.1-1.2-2-2-2.6c-0.8-0.6-1.7-1-2.7-1c-1.1,0-2,0.3-2.8,1c-0.8,0.6-1.4,1.5-2,2.6c-0.5,1.1-0.9,2.4-1.2,3.9
		c-0.3,1.5-0.4,3.1-0.4,4.9c0,1.7,0.1,3.4,0.4,4.9c0.3,1.5,0.6,2.8,1.2,4c0.5,1.1,1.2,2,2,2.6c0.8,0.6,1.7,1,2.8,1s2-0.3,2.8-1
		c0.8-0.6,1.4-1.5,2-2.6c0.5-1.1,0.9-2.4,1.2-4C558.9,313.5,559.1,311.9,559.1,310.1z"/>
</g>
<g>
	<path class="st0" d="M610.8,99.3c-53-8.8-104.3-8.8-157.3,0c0-22.4,0-44.9,0-67.3c52.4,0,104.8,0,157.3,0
		C610.8,54.4,610.8,76.9,610.8,99.3z"/>
</g>
<g>
	<g>
		<g>
			<path class="st1" d="M483.7,56.2c-0.8-0.8-1.7-1.3-2.9-1.2c-0.3,0-0.7,0.1-1,0.2c-0.3,0.1-0.6,0.3-0.9,0.5
				c-0.3,0.2-0.5,0.5-0.6,0.9c-0.1,0.4-0.2,0.8-0.2,1.3c0,0.9,0.3,1.5,0.8,1.9c0.5,0.4,1.2,0.8,2.1,1.2c0.5,0.2,1,0.5,1.6,0.7
				c0.5,0.3,1,0.6,1.4,1c0.4,0.4,0.8,0.9,1.1,1.5c0.3,0.6,0.4,1.3,0.4,2.1c0,0.9-0.2,1.8-0.5,2.6c-0.3,0.8-0.8,1.4-1.3,2
				c-0.5,0.6-1.2,1-1.9,1.4c-0.7,0.4-1.5,0.6-2.3,0.7c-1.2,0.2-2.2,0.1-3.2-0.2c-1-0.3-1.8-0.8-2.3-1.4c0.8-1.1,1.1-1.7,1.9-2.8
				c0.4,0.5,1,0.8,1.6,1.1c0.6,0.2,1.3,0.3,1.9,0.2c0.7-0.1,1.4-0.4,1.8-0.9c0.5-0.5,0.7-1.2,0.7-2.1c0-0.9-0.3-1.5-0.9-2
				c-0.6-0.5-1.3-0.9-2.2-1.2c-0.6-0.2-1.1-0.5-1.6-0.8c-0.5-0.3-0.9-0.6-1.3-1.1c-0.4-0.4-0.7-0.9-0.9-1.5
				c-0.2-0.6-0.3-1.3-0.3-2.2c0-1.1,0.2-2,0.5-2.8c0.3-0.8,0.8-1.4,1.4-1.9c0.6-0.5,1.2-0.9,1.9-1.1c0.7-0.2,1.4-0.4,2.1-0.4
				c1.1,0,2,0.2,2.8,0.5c0.8,0.3,1.5,0.8,2.1,1.4C484.9,54.7,484.5,55.2,483.7,56.2z"/>
			<path class="st1" d="M497.1,70.4c-0.4-1.5-0.6-2.2-1-3.8c-2.2,0.2-3.3,0.3-5.5,0.4c-0.4,1.6-0.6,2.4-1.1,4.1
				c-1.4,0.2-2.1,0.2-3.5,0.4c2.1-7.9,3.1-11.8,5.2-19.2c1.8,0,2.7,0,4.5,0c2,7.3,3,10.8,5,17.7C499.3,70.2,498.6,70.3,497.1,70.4z
				 M493.5,55.3c0,0-0.1,0-0.1,0c-0.9,3.7-1.4,5.5-2.3,9.3c1.8-0.1,2.8-0.2,4.6-0.3C494.8,60.7,494.4,58.9,493.5,55.3z"/>
			<path class="st1" d="M511.5,69.4c-2.4-4.7-3.5-7.1-5.9-11.9c0,0-0.1,0-0.1,0c0,4.9,0,7.4,0,12.3c-1.3,0.1-1.9,0.1-3.2,0.2
				c0-7.1,0-10.6,0.1-17.6c1.6,0,2.4,0,4,0c2.3,4.9,3.5,7.3,5.8,12.1c0,0,0.1,0,0.1,0c0-4.8,0-7.2,0-12.1c1.2,0,1.8,0,3.1,0
				c0,6.7,0,10.1,0,16.8C513.9,69.2,513.1,69.3,511.5,69.4z"/>
			<path class="st1" d="M524.9,54.7c0,5.7,0,8.5,0,14.2c-1.4,0-2.1,0-3.5,0.1c0-5.7,0-8.5,0-14.2c-1.6,0-2.4,0-3.9,0
				c0-1,0-1.4,0-2.4c4.5,0,6.8,0,11.3,0c0,1,0,1.4,0,2.4C527.3,54.7,526.5,54.7,524.9,54.7z"/>
			<path class="st1" d="M543.4,65.5c-0.2,0.8-0.6,1.4-1.1,2c-0.5,0.6-1.2,1-2,1.3c-0.8,0.3-1.9,0.5-3.1,0.4c-1.2,0-2.2-0.2-3-0.5
				c-0.8-0.3-1.5-0.8-2-1.3c-0.5-0.6-0.9-1.2-1.1-2c-0.2-0.8-0.3-1.6-0.3-2.4c0-4.3,0-6.4,0-10.6c1.4,0,2.1,0,3.5,0
				c0,4.2,0,6.2,0,10.4c0,0.5,0,1,0.1,1.5c0.1,0.5,0.2,0.9,0.5,1.2c0.2,0.4,0.5,0.6,0.9,0.9c0.4,0.2,0.9,0.3,1.5,0.3
				c0.6,0,1.1-0.1,1.5-0.3c0.4-0.2,0.7-0.5,0.9-0.8c0.2-0.4,0.4-0.8,0.5-1.2c0.1-0.5,0.1-1,0.1-1.5c0-4.2,0-6.3,0-10.4
				c1.4,0,2.1,0,3.5,0c0,4.3,0,6.5,0,10.8C543.7,63.9,543.6,64.8,543.4,65.5z"/>
			<path class="st1" d="M556.5,69.4c-0.9,0.4-1.9,0.5-3.2,0.4c-1.2-0.1-2.2-0.3-3.2-0.8c-1-0.5-1.8-1.1-2.4-1.9
				c-0.7-0.8-1.2-1.7-1.5-2.8c-0.4-1.1-0.6-2.3-0.6-3.5c0-1.3,0.2-2.4,0.5-3.5c0.4-1.1,0.9-2,1.5-2.8c0.7-0.8,1.5-1.4,2.4-1.8
				c1-0.4,2-0.7,3.2-0.7c1.2,0,2.2,0.2,3.2,0.5c0.9,0.4,1.6,0.9,2.2,1.6c-0.8,0.8-1.2,1.2-2,2c-0.8-1-1.9-1.5-3.1-1.5
				c-0.7,0-1.3,0.2-1.9,0.5c-0.5,0.3-1,0.8-1.3,1.3c-0.4,0.6-0.6,1.2-0.8,2c-0.2,0.8-0.3,1.6-0.3,2.4c0,0.8,0.1,1.6,0.3,2.4
				c0.2,0.8,0.4,1.4,0.8,2c0.4,0.6,0.8,1,1.3,1.4c0.5,0.4,1.2,0.5,1.9,0.6c0.7,0,1.3-0.1,1.8-0.3c0.5-0.3,0.9-0.6,1.2-1
				c0.8,0.8,1.2,1.2,2,2.1C558,68.5,557.3,69,556.5,69.4z"/>
			<path class="st1" d="M570.2,70.7c0-3.3,0-4.9,0-8.1c-2.5-0.1-3.7-0.2-6.2-0.3c0,3.2,0,4.7,0,7.9c-1.4-0.1-2.1-0.2-3.5-0.3
				c0-7,0-10.5-0.1-17.5c1.4,0,2.1,0,3.5,0c0,2.9,0,4.3,0,7.2c2.5,0.1,3.7,0.1,6.2,0.2c0-3,0-4.5,0-7.4c1.4,0,2.1,0,3.5,0
				c0,7.5,0,11.2,0.1,18.7C572.4,70.9,571.7,70.9,570.2,70.7z"/>
			<path class="st1" d="M590.3,62.8c0,1.6-0.2,3.1-0.5,4.4c-0.3,1.3-0.8,2.4-1.5,3.2c-0.6,0.9-1.4,1.5-2.4,1.9
				c-0.9,0.4-2,0.5-3.1,0.3c-1.2-0.2-2.2-0.6-3.1-1.2c-0.9-0.6-1.7-1.4-2.4-2.3c-0.6-0.9-1.1-2-1.5-3.3c-0.3-1.3-0.5-2.6-0.5-4.1
				c0-1.5,0.2-2.8,0.5-4c0.3-1.2,0.8-2.2,1.5-3.1c0.6-0.9,1.4-1.5,2.4-2c0.9-0.5,2-0.7,3.2-0.7c1.2,0,2.2,0.2,3.1,0.8
				c0.9,0.5,1.7,1.2,2.4,2.2c0.6,1,1.1,2.1,1.5,3.5C590.1,59.7,590.3,61.2,590.3,62.8z M586.6,62.5c0-1-0.1-2-0.3-2.9
				c-0.2-0.9-0.4-1.7-0.7-2.4c-0.3-0.7-0.7-1.2-1.2-1.6c-0.5-0.4-1-0.6-1.7-0.6c-0.6,0-1.2,0.2-1.7,0.5c-0.5,0.4-0.9,0.8-1.2,1.5
				c-0.3,0.6-0.6,1.4-0.7,2.2c-0.2,0.9-0.2,1.8-0.2,2.8c0,1,0.1,1.9,0.2,2.8c0.2,0.9,0.4,1.7,0.7,2.3c0.3,0.7,0.7,1.2,1.2,1.6
				c0.5,0.4,1,0.7,1.7,0.7s1.2,0,1.7-0.4c0.5-0.3,0.9-0.8,1.2-1.4c0.3-0.6,0.6-1.4,0.7-2.3C586.5,64.5,586.6,63.6,586.6,62.5z"/>
		</g>
	</g>
	<path class="st1" d="M479.3,77.1c0,0,57.2-8.9,105.7,0C548.9,72.8,513.8,73.4,479.3,77.1z"/>
</g>
<g>
	<path class="st2" d="M446.5,99.9c-54.1,8.6-107.1,8.6-161.2,0c0-22.5,0-45.1,0-67.6c53.7,0,107.5,0,161.2,0
		C446.5,54.8,446.5,77.4,446.5,99.9z"/>
</g>
<g>
	<g>
		<g>
			<path class="st1" d="M314.9,55.7c-0.8-0.9-1.8-1.3-3-1.3c-0.4,0-0.7,0.1-1,0.2c-0.3,0.1-0.6,0.3-0.9,0.5
				c-0.3,0.2-0.5,0.6-0.6,0.9c-0.2,0.4-0.2,0.8-0.2,1.4c0,0.9,0.3,1.6,0.8,2c0.6,0.5,1.3,0.9,2.2,1.3c0.5,0.2,1.1,0.5,1.6,0.8
				c0.6,0.3,1.1,0.7,1.5,1.1c0.5,0.4,0.8,1,1.1,1.6c0.3,0.6,0.4,1.3,0.4,2.2c0,1-0.2,1.9-0.5,2.7c-0.3,0.8-0.8,1.5-1.4,2.1
				c-0.6,0.6-1.2,1.1-2,1.5c-0.8,0.4-1.6,0.6-2.4,0.7c-1.2,0.2-2.3,0.1-3.4-0.2c-1-0.3-1.8-0.8-2.5-1.4c0.8-1.2,1.2-1.8,2-3
				c0.5,0.5,1,0.9,1.7,1.1c0.7,0.2,1.4,0.3,2.1,0.2c0.8-0.1,1.4-0.4,1.9-1c0.5-0.6,0.8-1.3,0.8-2.2c0-0.9-0.3-1.6-0.9-2.1
				c-0.6-0.5-1.4-0.9-2.3-1.3c-0.6-0.2-1.2-0.5-1.7-0.8c-0.5-0.3-1-0.7-1.4-1.1c-0.4-0.4-0.7-1-1-1.6c-0.2-0.6-0.4-1.4-0.4-2.3
				c0-1.1,0.2-2.1,0.5-2.9c0.4-0.8,0.8-1.5,1.4-2c0.6-0.5,1.3-0.9,2-1.2c0.7-0.3,1.5-0.4,2.3-0.4c1.1,0,2.1,0.2,3,0.5
				c0.9,0.3,1.6,0.8,2.2,1.5C316.2,54.2,315.8,54.7,314.9,55.7z"/>
			<path class="st1" d="M329.1,70.7c-0.4-1.6-0.6-2.4-1.1-3.9c-2.3,0.2-3.5,0.3-5.8,0.5c-0.5,1.7-0.7,2.6-1.1,4.3
				c-1.5,0.2-2.2,0.3-3.7,0.4c2.2-8.4,3.3-12.4,5.5-20.2c1.9,0,2.8,0,4.7,0c2.1,7.6,3.2,11.4,5.3,18.7
				C331.4,70.5,330.6,70.6,329.1,70.7z M325.3,54.8c0,0-0.1,0-0.1,0c-1,3.9-1.5,5.8-2.4,9.8c1.9-0.1,2.9-0.2,4.8-0.3
				C326.6,60.5,326.2,58.7,325.3,54.8z"/>
			<path class="st1" d="M344.2,69.6c-2.5-4.9-3.7-7.4-6.2-12.5c0,0-0.1,0-0.1,0c0,5.2,0,7.8,0,12.9c-1.3,0.1-2,0.1-3.3,0.2
				c0-7.4,0-11.1,0.1-18.5c1.7,0,2.5,0,4.2,0c2.4,5.2,3.7,7.7,6.1,12.7c0,0,0.1,0,0.1,0c0-5.1,0-7.6,0-12.7c1.3,0,1.9,0,3.2,0
				c0,7.1,0,10.6,0,17.7C346.7,69.5,345.9,69.5,344.2,69.6z"/>
			<path class="st1" d="M358.3,54.2c0,6,0,8.9,0,14.9c-1.5,0-2.2,0-3.7,0.1c0-6,0-9,0-15c-1.6,0-2.5,0-4.1,0c0-1,0-1.5,0-2.5
				c4.8,0,7.1,0,11.9,0c0,1,0,1.5,0,2.5C360.8,54.2,360,54.2,358.3,54.2z"/>
			<path class="st1" d="M377.7,65.6c-0.2,0.8-0.6,1.5-1.2,2.1c-0.6,0.6-1.3,1-2.2,1.4c-0.9,0.3-2,0.5-3.2,0.5
				c-1.3,0-2.3-0.2-3.2-0.5c-0.9-0.3-1.6-0.8-2.1-1.4c-0.5-0.6-0.9-1.3-1.2-2.1c-0.2-0.8-0.4-1.7-0.4-2.6c0-4.5,0-6.7,0-11.2
				c1.5,0,2.2,0,3.7,0c0,4.4,0,6.6,0,10.9c0,0.5,0,1.1,0.1,1.6c0.1,0.5,0.3,0.9,0.5,1.3c0.2,0.4,0.6,0.7,1,0.9
				c0.4,0.2,0.9,0.3,1.6,0.3c0.6,0,1.2-0.1,1.6-0.3c0.4-0.2,0.7-0.5,1-0.9c0.2-0.4,0.4-0.8,0.5-1.3c0.1-0.5,0.1-1,0.1-1.6
				c0-4.4,0-6.6,0-11c1.5,0,2.2,0,3.7,0c0,4.5,0,6.8,0,11.3C378.1,63.9,377.9,64.8,377.7,65.6z"/>
			<path class="st1" d="M391.5,69.7c-0.9,0.4-2,0.5-3.4,0.5c-1.2-0.1-2.4-0.4-3.4-0.9c-1-0.5-1.9-1.2-2.6-2c-0.7-0.8-1.2-1.8-1.6-3
				c-0.4-1.1-0.6-2.4-0.6-3.7s0.2-2.6,0.6-3.7c0.4-1.1,0.9-2.1,1.6-2.9c0.7-0.8,1.5-1.5,2.6-1.9c1-0.5,2.1-0.7,3.3-0.7
				c1.3,0,2.4,0.2,3.3,0.6c1,0.4,1.7,0.9,2.3,1.7c-0.9,0.9-1.3,1.3-2.1,2.1c-0.9-1-1.9-1.5-3.3-1.5c-0.7,0-1.4,0.2-2,0.5
				c-0.6,0.3-1,0.8-1.4,1.4c-0.4,0.6-0.6,1.3-0.8,2.1c-0.2,0.8-0.3,1.6-0.3,2.5c0,0.9,0.1,1.7,0.3,2.5c0.2,0.8,0.5,1.5,0.8,2.1
				s0.8,1.1,1.4,1.5c0.6,0.4,1.2,0.6,2,0.6c0.7,0,1.3-0.1,1.9-0.4c0.5-0.3,1-0.6,1.3-1.1c0.9,0.9,1.3,1.3,2.1,2.2
				C393.1,68.7,392.4,69.3,391.5,69.7z"/>
			<path class="st1" d="M406,71.1c0-3.4,0-5.1,0-8.6c-2.6-0.1-3.9-0.2-6.6-0.3c0,3.3,0,5,0,8.3c-1.5-0.1-2.2-0.2-3.7-0.3
				c0-7.4,0-11.1-0.1-18.4c1.5,0,2.2,0,3.7,0c0,3,0,4.6,0,7.6c2.6,0.1,3.9,0.1,6.6,0.3c0-3.1,0-4.7,0-7.8c1.5,0,2.2,0,3.7,0
				c0,7.9,0,11.8,0.1,19.7C408.2,71.3,407.4,71.2,406,71.1z"/>
			<path class="st1" d="M427,62.7c0,1.7-0.2,3.3-0.5,4.7c-0.4,1.4-0.9,2.5-1.6,3.4c-0.7,0.9-1.5,1.6-2.5,2c-1,0.4-2.1,0.5-3.3,0.3
				c-1.2-0.2-2.3-0.6-3.3-1.2c-1-0.6-1.8-1.5-2.5-2.5c-0.7-1-1.2-2.2-1.6-3.5c-0.4-1.3-0.5-2.8-0.6-4.3c0-1.6,0.2-3,0.5-4.2
				c0.3-1.3,0.9-2.4,1.5-3.3c0.7-0.9,1.5-1.6,2.5-2.1c1-0.5,2.1-0.8,3.3-0.8c1.2,0,2.3,0.3,3.3,0.8c1,0.5,1.8,1.3,2.5,2.3
				c0.7,1,1.2,2.2,1.6,3.6C426.8,59.4,427,61,427,62.7z M423.2,62.4c0-1.1-0.1-2.1-0.3-3.1c-0.2-1-0.4-1.8-0.8-2.5
				c-0.3-0.7-0.8-1.3-1.3-1.7c-0.5-0.4-1.1-0.6-1.7-0.6c-0.7,0-1.3,0.2-1.8,0.5c-0.5,0.4-0.9,0.9-1.3,1.5c-0.3,0.7-0.6,1.4-0.8,2.3
				c-0.2,0.9-0.2,1.9-0.2,2.9c0,1,0.1,2,0.3,2.9c0.2,0.9,0.4,1.7,0.8,2.4c0.3,0.7,0.8,1.3,1.3,1.7c0.5,0.4,1.1,0.7,1.8,0.8
				c0.7,0.1,1.3,0,1.8-0.4c0.5-0.3,0.9-0.8,1.3-1.5c0.3-0.7,0.6-1.5,0.8-2.4C423.1,64.6,423.2,63.5,423.2,62.4z"/>
		</g>
	</g>
	<path class="st1" d="M310.3,77.8c0,0,60.2-9.3,111.2,0C383.6,73.2,346.6,73.9,310.3,77.8z"/>
</g>
<g>
	<g>
		<path class="st1" d="M384.2,89.6c-0.7-0.1-1.2-0.6-1.1-1.1c0.1-0.5,0.7-0.9,1.4-0.8c0.7,0.1,2.9,1.6,2.9,1.6
			S384.9,89.7,384.2,89.6z"/>
		<path class="st1" d="M381,90.8c-0.5-0.4-0.6-1.1-0.2-1.5c0.4-0.4,1.1-0.4,1.6,0.1c0.5,0.4,1.2,2.7,1.2,2.7S381.5,91.2,381,90.8z"
			/>
		<path class="st1" d="M377.7,90.8c-0.5-0.4-0.7-1-0.3-1.5c0.3-0.4,1.1-0.5,1.6-0.1c0.5,0.4,1.5,2.5,1.5,2.5S378.2,91.1,377.7,90.8z
			"/>
		<path class="st1" d="M374.4,91.2c-0.5-0.3-0.8-0.9-0.5-1.4c0.3-0.5,1-0.6,1.6-0.3c0.6,0.3,1.8,2.4,1.8,2.4S375,91.4,374.4,91.2z"
			/>
		<path class="st1" d="M381.2,85.9c-0.6,0.4-0.7,1-0.4,1.5c0.4,0.4,1.1,0.5,1.7,0.1c0.6-0.4,2-2.3,2-2.3S381.8,85.5,381.2,85.9z"/>
		<path class="st1" d="M377.4,85.9c-0.5,0.4-0.6,1.1-0.2,1.5c0.4,0.4,1.2,0.4,1.7-0.1c0.5-0.4,1.8-2.5,1.8-2.5
			S377.9,85.4,377.4,85.9z"/>
		<path class="st1" d="M373.5,86.3c-0.5,0.5-0.5,1.2,0,1.5c0.5,0.3,1.2,0.2,1.7-0.3c0.5-0.5,1.5-2.7,1.5-2.7S374,85.8,373.5,86.3z"
			/>
		<path class="st1" d="M371.3,92c-0.6-0.2-0.9-0.8-0.7-1.3c0.2-0.5,0.9-0.7,1.5-0.5c0.6,0.2,2.1,2.1,2.1,2.1S371.9,92.2,371.3,92z"
			/>
		<path class="st1" d="M369.7,87.4c-0.4,0.6-0.3,1.2,0.2,1.5c0.5,0.3,1.2,0,1.6-0.5c0.4-0.5,1.1-2.9,1.1-2.9S370.1,86.7,369.7,87.4z
			"/>
		<path class="st1" d="M362.4,94.6c2.5-2.6,5.8-4.5,9.3-5.5c3.5-1,7.2-1.2,10.8-0.9c0.1,0,0.2,0.1,0.2,0.2l0,0
			c0,0.1-0.1,0.2-0.3,0.2l0,0c-3.6-0.3-7.2-0.1-10.6,0.9c-3.4,1-6.6,2.8-9.1,5.4c-0.1,0.1-0.2,0.1-0.3,0l0,0
			C362.3,94.8,362.3,94.6,362.4,94.6L362.4,94.6z"/>
	</g>
	<g>
		<path class="st1" d="M344.4,89.2c0,0,2.1-1.5,2.9-1.6c0.7-0.1,1.3,0.3,1.4,0.8c0.1,0.5-0.4,1-1.1,1.1
			C346.9,89.7,344.4,89.2,344.4,89.2z"/>
		<path class="st1" d="M348.1,92c0,0,0.7-2.2,1.2-2.7c0.5-0.5,1.2-0.5,1.6-0.1c0.4,0.4,0.3,1.1-0.2,1.5
			C350.3,91.2,348.1,92,348.1,92z"/>
		<path class="st1" d="M351.3,91.8c0,0,1-2.2,1.5-2.5c0.5-0.4,1.3-0.4,1.6,0.1c0.3,0.4,0.2,1.1-0.3,1.5
			C353.6,91.1,351.3,91.8,351.3,91.8z"/>
		<path class="st1" d="M354.5,91.8c0,0,1.2-2,1.8-2.4c0.6-0.3,1.3-0.2,1.6,0.3c0.3,0.5,0,1.1-0.5,1.4
			C356.8,91.4,354.5,91.8,354.5,91.8z"/>
		<path class="st1" d="M347.1,85.2c0,0,1.5,2,2,2.3c0.6,0.4,1.3,0.3,1.7-0.1c0.4-0.4,0.2-1.1-0.4-1.5
			C349.9,85.5,347.1,85.2,347.1,85.2z"/>
		<path class="st1" d="M351.1,84.8c0,0,1.3,2.1,1.8,2.5c0.5,0.4,1.3,0.4,1.7,0.1c0.4-0.4,0.4-1.1-0.2-1.5
			C353.8,85.4,351.1,84.8,351.1,84.8z"/>
		<path class="st1" d="M355,84.9c0,0,1,2.2,1.5,2.7c0.5,0.5,1.2,0.6,1.7,0.3c0.5-0.3,0.5-1,0-1.5C357.8,85.8,355,84.9,355,84.9z"/>
		<path class="st1" d="M357.6,92.3c0,0,1.4-1.9,2.1-2.1c0.6-0.3,1.3,0,1.5,0.5c0.2,0.5-0.1,1.1-0.7,1.3
			C359.9,92.2,357.6,92.3,357.6,92.3z"/>
		<path class="st1" d="M359,85.5c0,0,0.8,2.3,1.1,2.9c0.4,0.5,1.1,0.8,1.6,0.5c0.5-0.2,0.6-0.9,0.2-1.5
			C361.7,86.7,359,85.5,359,85.5z"/>
		<path class="st1" d="M369.4,94.6c0.1,0.1,0.1,0.2,0,0.3l0,0c-0.1,0.1-0.2,0.1-0.3,0c-2.4-2.6-5.6-4.4-9.1-5.4
			c-3.4-1-7.1-1.2-10.6-0.9l0,0c-0.1,0-0.2-0.1-0.3-0.2l0,0c0-0.1,0.1-0.2,0.2-0.2c3.6-0.3,7.3-0.1,10.8,0.9
			C363.6,90,366.9,91.9,369.4,94.6L369.4,94.6z"/>
	</g>
</g>
</svg>
