<svg id="Layer_1" data-name="Layer 1" xmlns="http://www.w3.org/2000/svg" xmlns:xlink="http://www.w3.org/1999/xlink" viewBox="0 0 640 480"><defs><style>.cls-1{fill:none;}.cls-2{clip-path:url(#clip-path);}.cls-3{fill:#d30202;}.cls-4{fill:#fff;}.cls-5{fill:#1daa00;}</style><clipPath id="clip-path"><path class="cls-1" d="M304,256.73c-69,8.68-93,8.9-161,0V186H304Z"/></clipPath></defs><title>Artboard 1</title><g class="cls-2"><rect class="cls-3" x="140" y="151" width="56" height="121"/><rect class="cls-4" x="196" y="151" width="55" height="121"/><rect class="cls-5" x="251" y="151" width="55" height="121"/></g><path class="cls-4" d="M304,247.64a503.4,503.4,0,0,1-161,0V180H304Z"/><path d="M304,246.51a503.4,503.4,0,0,1-161,0V179H304Z"/><path class="cls-4" d="M172.94,201.74a3.81,3.81,0,0,0-3-1.3,3.27,3.27,0,0,0-1,.18,2.59,2.59,0,0,0-.9.54,2.55,2.55,0,0,0-.64.95,3.64,3.64,0,0,0-.23,1.36,2.5,2.5,0,0,0,.83,2,8.69,8.69,0,0,0,2.19,1.26q.8.34,1.64.78a6.82,6.82,0,0,1,1.51,1.09,5.19,5.19,0,0,1,1.11,1.56,5.1,5.1,0,0,1,.43,2.2,6.84,6.84,0,0,1-.52,2.69,7,7,0,0,1-1.36,2.1,7,7,0,0,1-2,1.46,8,8,0,0,1-2.41.75,7.63,7.63,0,0,1-3.36-.21,5.66,5.66,0,0,1-2.46-1.43c.8-1.2,1.2-1.8,2-3a4.21,4.21,0,0,0,1.71,1.13,4.41,4.41,0,0,0,2.05.23,3,3,0,0,0,1.95-1,3.19,3.19,0,0,0,.78-2.22,2.44,2.44,0,0,0-.92-2.06,9.92,9.92,0,0,0-2.35-1.29,12.08,12.08,0,0,1-1.68-.8,5.59,5.59,0,0,1-1.39-1.13,5.08,5.08,0,0,1-1-1.62,6.58,6.58,0,0,1-.35-2.3,7.2,7.2,0,0,1,.54-2.92,5.91,5.91,0,0,1,1.42-2,5.65,5.65,0,0,1,2-1.17,7,7,0,0,1,2.26-.37,8.31,8.31,0,0,1,3,.51,5.82,5.82,0,0,1,2.21,1.47C174.17,200.22,173.76,200.72,172.94,201.74Z"/><path class="cls-4" d="M187.06,216.73,186,212.79c-2.3.17-3.45.27-5.76.47-.45,1.71-.68,2.56-1.13,4.29l-3.71.43c2.2-8.35,3.3-12.38,5.5-20.23h4.74c2.12,7.65,3.17,11.37,5.29,18.66Zm-3.81-15.9h-.12c-1,3.86-1.45,5.81-2.42,9.77l4.83-.33C184.62,206.55,184.17,204.66,183.25,200.83Z"/><path class="cls-4" d="M202.22,215.62c-2.48-4.93-3.72-7.42-6.19-12.53h-.09c0,5.17,0,7.75,0,12.92l-3.35.25.07-18.54h4.24c2.45,5.18,3.67,7.7,6.12,12.69h.09c0-5.08,0-7.62,0-12.7h3.22c0,7.09,0,10.63,0,17.72Z"/><path class="cls-4" d="M216.3,200.2c0,6,0,8.94,0,14.91l-3.66.09c0-6,0-9,0-15l-4.12,0V197.7h11.89v2.5Z"/><path class="cls-4" d="M235.69,211.6a5.19,5.19,0,0,1-1.21,2.08,5.6,5.6,0,0,1-2.16,1.37,10.49,10.49,0,0,1-6.41-.08,5.73,5.73,0,0,1-2.13-1.41,5.26,5.26,0,0,1-1.18-2.09,7.93,7.93,0,0,1-.36-2.42c0-4.48,0-7,0-11H226c0,4,0,6.4,0,10.78a7.64,7.64,0,0,0,.14,1.48,3.51,3.51,0,0,0,.5,1.28,2.53,2.53,0,0,0,1,.88,3.4,3.4,0,0,0,1.58.34,3.34,3.34,0,0,0,1.58-.32,2.5,2.5,0,0,0,1-.89,3.66,3.66,0,0,0,.49-1.31,8.5,8.5,0,0,0,.14-1.56c0-4.39,0-6.59,0-11H236c0,4.53,0,6.79,0,11.31A8.71,8.71,0,0,1,235.69,211.6Z"/><path class="cls-4" d="M249.49,215.65a7.52,7.52,0,0,1-3.39.46,8.34,8.34,0,0,1-3.37-.88,7.93,7.93,0,0,1-2.55-2,9.39,9.39,0,0,1-1.62-3,12.3,12.3,0,0,1,0-7.42,8.71,8.71,0,0,1,1.62-2.93,7.33,7.33,0,0,1,2.55-1.92,7.89,7.89,0,0,1,3.33-.69,8.76,8.76,0,0,1,3.32.58,5.77,5.77,0,0,1,2.33,1.67l-2.13,2.14a4.13,4.13,0,0,0-3.29-1.54,3.61,3.61,0,0,0-1.95.5,4.29,4.29,0,0,0-1.39,1.38,6.58,6.58,0,0,0-.83,2.06,11.63,11.63,0,0,0,0,5.06,6.94,6.94,0,0,0,.84,2.1,4.6,4.6,0,0,0,1.42,1.45,4,4,0,0,0,2,.61,3.56,3.56,0,0,0,1.87-.36,4.25,4.25,0,0,0,1.31-1.06l2.15,2.2A5.85,5.85,0,0,1,249.49,215.65Z"/><path class="cls-4" d="M264,217.05l0-8.56c-2.62-.15-3.94-.22-6.56-.34,0,3.32,0,5,0,8.3l-3.69-.29c0-7.37,0-11.06-.07-18.43h3.69l0,7.59,6.56.25,0-7.83h3.69c0,7.87,0,11.81.06,19.69Z"/><path class="cls-4" d="M285,208.74a18.44,18.44,0,0,1-.54,4.66,9.83,9.83,0,0,1-1.56,3.42,5.84,5.84,0,0,1-2.48,2,6.25,6.25,0,0,1-3.28.34,7.87,7.87,0,0,1-3.3-1.22,8.94,8.94,0,0,1-2.48-2.46,11.56,11.56,0,0,1-1.57-3.47,16.33,16.33,0,0,1-.55-4.32,15.82,15.82,0,0,1,.51-4.25,9.78,9.78,0,0,1,1.54-3.27,7,7,0,0,1,5.81-2.9,6.77,6.77,0,0,1,3.3.8,7.1,7.1,0,0,1,2.49,2.32,11.61,11.61,0,0,1,1.56,3.64A19.21,19.21,0,0,1,285,208.74Zm-3.83-.29a17.25,17.25,0,0,0-.27-3.08,9.72,9.72,0,0,0-.78-2.5,4.78,4.78,0,0,0-1.27-1.67,2.94,2.94,0,0,0-3.53-.09,4.41,4.41,0,0,0-1.27,1.54,8.2,8.2,0,0,0-.75,2.33,16.11,16.11,0,0,0-.24,2.9,16.67,16.67,0,0,0,.25,2.93,9.46,9.46,0,0,0,.76,2.44,5.33,5.33,0,0,0,1.27,1.72,3.19,3.19,0,0,0,1.78.78,2.55,2.55,0,0,0,1.77-.38,3.87,3.87,0,0,0,1.26-1.5,8.5,8.5,0,0,0,.75-2.4A17.63,17.63,0,0,0,281.2,208.45Z"/><path class="cls-4" d="M168.28,223.77s60.15-9.35,111.21,0C241.55,219.2,204.62,219.93,168.28,223.77Z"/><path class="cls-4" d="M242.21,235.59a1.16,1.16,0,0,1-1.11-1.12,1.13,1.13,0,0,1,1.38-.81,12.15,12.15,0,0,1,2.86,1.55A23.17,23.17,0,0,1,242.21,235.59Z"/><path class="cls-4" d="M239,236.76a1,1,0,0,1-.19-1.49,1.18,1.18,0,0,1,1.61.09,10.67,10.67,0,0,1,1.25,2.69A19.09,19.09,0,0,1,239,236.76Z"/><path class="cls-4" d="M235.68,236.77a1,1,0,0,1-.35-1.46,1.17,1.17,0,0,1,1.6-.08,10.6,10.6,0,0,1,1.51,2.54A19.38,19.38,0,0,1,235.68,236.77Z"/><path class="cls-4" d="M232.42,237.16a1.05,1.05,0,0,1-.53-1.41,1.15,1.15,0,0,1,1.57-.28,10.3,10.3,0,0,1,1.78,2.35A20.05,20.05,0,0,1,232.42,237.16Z"/><path class="cls-4" d="M239.25,231.87a1,1,0,0,0-.35,1.47,1.36,1.36,0,0,0,1.69.13,17.21,17.21,0,0,0,2-2.31A14,14,0,0,0,239.25,231.87Z"/><path class="cls-4" d="M235.39,231.88a1,1,0,0,0-.19,1.49,1.37,1.37,0,0,0,1.7-.05,17.38,17.38,0,0,0,1.78-2.51A13.83,13.83,0,0,0,235.39,231.88Z"/><path class="cls-4" d="M231.52,232.35a1,1,0,0,0,0,1.51,1.39,1.39,0,0,0,1.69-.26,18.17,18.17,0,0,0,1.5-2.7A13.6,13.6,0,0,0,231.52,232.35Z"/><path class="cls-4" d="M229.3,238a1.07,1.07,0,0,1-.73-1.31,1.14,1.14,0,0,1,1.51-.5c.63.23,2.06,2.1,2.06,2.1A21.57,21.57,0,0,1,229.3,238Z"/><path class="cls-4" d="M227.7,233.35a1,1,0,0,0,.22,1.49,1.41,1.41,0,0,0,1.65-.51,19.51,19.51,0,0,0,1.15-2.88S228.1,232.73,227.7,233.35Z"/><path class="cls-4" d="M220.39,240.55a20.25,20.25,0,0,1,9.26-5.48,30.1,30.1,0,0,1,10.76-.89.23.23,0,0,1,.22.24h0a.23.23,0,0,1-.26.19h0a29.67,29.67,0,0,0-10.6.87,19.81,19.81,0,0,0-9.07,5.36.23.23,0,0,1-.32,0h0a.23.23,0,0,1,0-.32Z"/><path class="cls-4" d="M202.41,235.21a12.15,12.15,0,0,1,2.86-1.55,1.13,1.13,0,0,1,1.38.81,1.16,1.16,0,0,1-1.11,1.12A23.17,23.17,0,0,1,202.41,235.21Z"/><path class="cls-4" d="M206.09,238a10.67,10.67,0,0,1,1.25-2.69,1.18,1.18,0,0,1,1.61-.09,1,1,0,0,1-.19,1.49A19.09,19.09,0,0,1,206.09,238Z"/><path class="cls-4" d="M209.31,237.77a10.6,10.6,0,0,1,1.51-2.54,1.17,1.17,0,0,1,1.6.08,1,1,0,0,1-.35,1.46A19.38,19.38,0,0,1,209.31,237.77Z"/><path class="cls-4" d="M212.51,237.83a10.3,10.3,0,0,1,1.78-2.35,1.15,1.15,0,0,1,1.57.28,1.05,1.05,0,0,1-.53,1.41A20.05,20.05,0,0,1,212.51,237.83Z"/><path class="cls-4" d="M205.14,231.15a17.21,17.21,0,0,0,2,2.31,1.36,1.36,0,0,0,1.69-.13,1,1,0,0,0-.35-1.47A14,14,0,0,0,205.14,231.15Z"/><path class="cls-4" d="M209.07,230.81a17.38,17.38,0,0,0,1.78,2.51,1.37,1.37,0,0,0,1.7.05,1,1,0,0,0-.19-1.49A13.83,13.83,0,0,0,209.07,230.81Z"/><path class="cls-4" d="M213,230.9a18.17,18.17,0,0,0,1.5,2.7,1.39,1.39,0,0,0,1.69.26,1,1,0,0,0,0-1.51A13.6,13.6,0,0,0,213,230.9Z"/><path class="cls-4" d="M215.62,238.27s1.43-1.87,2.06-2.1a1.14,1.14,0,0,1,1.51.5,1.07,1.07,0,0,1-.73,1.31A21.57,21.57,0,0,1,215.62,238.27Z"/><path class="cls-4" d="M217,231.46a19.51,19.51,0,0,0,1.15,2.88,1.41,1.41,0,0,0,1.65.51,1,1,0,0,0,.22-1.49C219.66,232.73,217,231.46,217,231.46Z"/><path class="cls-4" d="M227.37,240.55a.23.23,0,0,1,0,.32h0a.23.23,0,0,1-.32,0,19.81,19.81,0,0,0-9.07-5.36,29.67,29.67,0,0,0-10.6-.87h0a.23.23,0,0,1-.26-.19h0a.23.23,0,0,1,.22-.24,30.1,30.1,0,0,1,10.76.89,20.25,20.25,0,0,1,9.26,5.48Z"/></svg>