<svg id="Layer_1" data-name="Layer 1" xmlns="http://www.w3.org/2000/svg" xmlns:xlink="http://www.w3.org/1999/xlink" viewBox="0 0 166 121"><defs><style>.cls-1{fill:none;}.cls-2{clip-path:url(#clip-path);}.cls-3{fill:#d30202;}.cls-4{fill:#fff;}.cls-5{fill:#1daa00;}</style><clipPath id="clip-path"><path class="cls-1" d="M141,88C92,94.14,75,94.3,26,88V38H141Z"/></clipPath></defs><title>Artboard 1</title><g class="cls-2"><rect class="cls-3" x="24" y="13" width="40" height="86"/><rect class="cls-4" x="64" y="13" width="39" height="86"/><rect class="cls-5" x="103" y="13" width="39" height="86"/></g><path class="cls-4" d="M141,81.49a372.34,372.34,0,0,1-115,0V33H141Z"/><path d="M141,80.69a372.34,372.34,0,0,1-115,0V33H141Z"/><path class="cls-4" d="M47.59,48.83a2.71,2.71,0,0,0-2.16-.93,2.33,2.33,0,0,0-.73.13,1.84,1.84,0,0,0-.64.39,1.81,1.81,0,0,0-.45.67,2.59,2.59,0,0,0-.17,1A1.78,1.78,0,0,0,44,51.52a6.18,6.18,0,0,0,1.56.89q.57.24,1.16.55a4.85,4.85,0,0,1,1.08.78,3.69,3.69,0,0,1,.79,1.11,3.63,3.63,0,0,1,.3,1.57,4.86,4.86,0,0,1-.37,1.91,5,5,0,0,1-1,1.5,5,5,0,0,1-1.42,1,5.66,5.66,0,0,1-1.71.53,5.43,5.43,0,0,1-2.39-.15,4,4,0,0,1-1.75-1c.57-.86.85-1.28,1.43-2.11a3,3,0,0,0,1.22.8,3.14,3.14,0,0,0,1.46.16,2.16,2.16,0,0,0,1.38-.71,2.27,2.27,0,0,0,.55-1.58,1.74,1.74,0,0,0-.66-1.47A7.06,7.06,0,0,0,44,54.42a8.6,8.6,0,0,1-1.2-.57,4,4,0,0,1-1-.8,3.62,3.62,0,0,1-.68-1.15,4.68,4.68,0,0,1-.25-1.64,5.12,5.12,0,0,1,.39-2.08,4.21,4.21,0,0,1,1-1.44,4,4,0,0,1,1.42-.84,5,5,0,0,1,1.61-.27,5.91,5.91,0,0,1,2.13.36,4.14,4.14,0,0,1,1.57,1Z"/><path class="cls-4" d="M57.64,59.5l-.76-2.81-4.1.33L52,60.08l-2.64.31c1.56-5.94,2.35-8.81,3.92-14.4h3.37c1.51,5.44,2.26,8.09,3.76,13.28ZM54.93,48.19h-.09c-.69,2.75-1,4.14-1.72,7l3.44-.23C55.91,52.25,55.58,50.91,54.93,48.19Z"/><path class="cls-4" d="M68.43,58.71c-1.76-3.51-2.64-5.28-4.4-8.92H64c0,3.68,0,5.52,0,9.19l-2.38.18,0-13.19h3c1.74,3.68,2.61,5.48,4.36,9h.07c0-3.61,0-5.42,0-9h2.29l0,12.61Z"/><path class="cls-4" d="M78.45,47.74c0,4.24,0,6.36,0,10.61l-2.61.06c0-4.26,0-6.4,0-10.66l-2.93,0V46h8.46v1.78Z"/><path class="cls-4" d="M92.24,55.85a3.69,3.69,0,0,1-.86,1.48,4,4,0,0,1-1.53,1,7.46,7.46,0,0,1-4.56-.06,4.07,4.07,0,0,1-1.51-1,3.73,3.73,0,0,1-.84-1.49,6.21,6.21,0,0,1-.25-1.8c0-3.19,0-4.94,0-7.94h2.64c0,3,0,4.64,0,7.75a5.88,5.88,0,0,0,.1,1.1,2.61,2.61,0,0,0,.35.93,1.83,1.83,0,0,0,.7.64,2.42,2.42,0,0,0,1.13.25,2.37,2.37,0,0,0,1.13-.22,1.78,1.78,0,0,0,.69-.63,2.6,2.6,0,0,0,.35-.93,6,6,0,0,0,.1-1.11c0-3.13,0-4.69,0-7.81h2.62c0,3.22,0,4.83,0,8.05A6.2,6.2,0,0,1,92.24,55.85Z"/><path class="cls-4" d="M102.06,58.73a5.35,5.35,0,0,1-2.42.33,5.93,5.93,0,0,1-2.4-.63A5.64,5.64,0,0,1,95.44,57a6.68,6.68,0,0,1-1.15-2.12,8.75,8.75,0,0,1,0-5.28,6.2,6.2,0,0,1,1.15-2.08,5.21,5.21,0,0,1,1.81-1.36,5.61,5.61,0,0,1,2.37-.49A6.24,6.24,0,0,1,102,46a4.11,4.11,0,0,1,1.66,1.19l-1.52,1.52a2.94,2.94,0,0,0-2.34-1.1,2.57,2.57,0,0,0-1.39.36,3,3,0,0,0-1,1,4.68,4.68,0,0,0-.59,1.46,8.27,8.27,0,0,0,0,3.6,4.94,4.94,0,0,0,.6,1.49,3.28,3.28,0,0,0,1,1,2.82,2.82,0,0,0,1.42.43,2.54,2.54,0,0,0,1.33-.26,3,3,0,0,0,.93-.75l1.53,1.57A4.16,4.16,0,0,1,102.06,58.73Z"/><path class="cls-4" d="M112.37,59.72l0-6.09-4.67-.24,0,5.91-2.62-.21c0-5.25,0-7.87,0-13.12h2.62l0,5.4,4.67.18,0-5.57h2.62c0,5.6,0,8.41,0,14Z"/><path class="cls-4" d="M127.35,53.81a13.12,13.12,0,0,1-.38,3.32,7,7,0,0,1-1.11,2.43,4.16,4.16,0,0,1-1.76,1.4,4.44,4.44,0,0,1-2.34.25,5.6,5.6,0,0,1-2.35-.87,6.36,6.36,0,0,1-1.76-1.75,8.22,8.22,0,0,1-1.12-2.47,11.62,11.62,0,0,1-.39-3.08,11.25,11.25,0,0,1,.37-3,7,7,0,0,1,1.09-2.32,5,5,0,0,1,4.14-2.06,4.82,4.82,0,0,1,2.35.57,5.05,5.05,0,0,1,1.77,1.65A8.26,8.26,0,0,1,127,50.44,13.67,13.67,0,0,1,127.35,53.81Zm-2.72-.21a12.27,12.27,0,0,0-.19-2.19,6.92,6.92,0,0,0-.55-1.78,3.4,3.4,0,0,0-.9-1.19,2.09,2.09,0,0,0-2.51-.06,3.14,3.14,0,0,0-.9,1.1,5.83,5.83,0,0,0-.54,1.66,11.47,11.47,0,0,0-.17,2.06,11.87,11.87,0,0,0,.18,2.09,6.73,6.73,0,0,0,.54,1.74,3.79,3.79,0,0,0,.9,1.23,2.27,2.27,0,0,0,1.26.56,1.81,1.81,0,0,0,1.26-.27,2.75,2.75,0,0,0,.9-1.07,6,6,0,0,0,.54-1.71A12.55,12.55,0,0,0,124.62,53.6Z"/><path class="cls-4" d="M44.28,64.51s42.8-6.65,79.13,0C96.41,61.25,70.14,61.77,44.28,64.51Z"/><path class="cls-4" d="M96.88,72.92a.82.82,0,0,1-.79-.8.8.8,0,0,1,1-.58,8.64,8.64,0,0,1,2,1.1A16.49,16.49,0,0,1,96.88,72.92Z"/><path class="cls-4" d="M94.6,73.75a.74.74,0,0,1-.13-1.06.84.84,0,0,1,1.14.06,7.59,7.59,0,0,1,.89,1.91A13.58,13.58,0,0,1,94.6,73.75Z"/><path class="cls-4" d="M92.23,73.75a.74.74,0,0,1-.25-1,.83.83,0,0,1,1.14-.06,7.54,7.54,0,0,1,1.08,1.81A13.79,13.79,0,0,1,92.23,73.75Z"/><path class="cls-4" d="M89.92,74a.75.75,0,0,1-.37-1,.82.82,0,0,1,1.12-.2,7.33,7.33,0,0,1,1.27,1.68A14.27,14.27,0,0,1,89.92,74Z"/><path class="cls-4" d="M94.78,70.27a.69.69,0,0,0-.25,1,1,1,0,0,0,1.21.09,12.25,12.25,0,0,0,1.44-1.65A9.93,9.93,0,0,0,94.78,70.27Z"/><path class="cls-4" d="M92,70.28a.69.69,0,0,0-.14,1.06,1,1,0,0,0,1.21,0,12.37,12.37,0,0,0,1.27-1.79A9.84,9.84,0,0,0,92,70.28Z"/><path class="cls-4" d="M89.28,70.61a.68.68,0,0,0,0,1.07,1,1,0,0,0,1.2-.19,12.93,12.93,0,0,0,1.07-1.92A9.68,9.68,0,0,0,89.28,70.61Z"/><path class="cls-4" d="M87.69,74.61a.76.76,0,0,1-.52-.94.81.81,0,0,1,1.07-.35c.45.17,1.46,1.5,1.46,1.5A15.35,15.35,0,0,1,87.69,74.61Z"/><path class="cls-4" d="M86.56,71.32a.68.68,0,0,0,.15,1.06A1,1,0,0,0,87.89,72a13.88,13.88,0,0,0,.82-2A9.39,9.39,0,0,0,86.56,71.32Z"/><path class="cls-4" d="M81.36,76.45a14.41,14.41,0,0,1,6.59-3.9,21.42,21.42,0,0,1,7.66-.63.16.16,0,0,1,.16.17h0a.16.16,0,0,1-.18.14h0a21.11,21.11,0,0,0-7.54.62,14.1,14.1,0,0,0-6.45,3.81.17.17,0,0,1-.23,0h0a.16.16,0,0,1,0-.23Z"/><path class="cls-4" d="M68.56,72.65a8.64,8.64,0,0,1,2-1.1.8.8,0,0,1,1,.58.82.82,0,0,1-.79.8A16.49,16.49,0,0,1,68.56,72.65Z"/><path class="cls-4" d="M71.18,74.66a7.59,7.59,0,0,1,.89-1.91.84.84,0,0,1,1.14-.06.74.74,0,0,1-.13,1.06A13.58,13.58,0,0,1,71.18,74.66Z"/><path class="cls-4" d="M73.47,74.46a7.54,7.54,0,0,1,1.08-1.81.83.83,0,0,1,1.14.06.74.74,0,0,1-.25,1A13.79,13.79,0,0,1,73.47,74.46Z"/><path class="cls-4" d="M75.75,74.51A7.33,7.33,0,0,1,77,72.83a.82.82,0,0,1,1.12.2.75.75,0,0,1-.37,1A14.27,14.27,0,0,1,75.75,74.51Z"/><path class="cls-4" d="M70.5,69.76a12.25,12.25,0,0,0,1.44,1.65,1,1,0,0,0,1.21-.09.69.69,0,0,0-.25-1A9.93,9.93,0,0,0,70.5,69.76Z"/><path class="cls-4" d="M73.3,69.52a12.37,12.37,0,0,0,1.27,1.79,1,1,0,0,0,1.21,0,.69.69,0,0,0-.14-1.06A9.84,9.84,0,0,0,73.3,69.52Z"/><path class="cls-4" d="M76.13,69.58A12.93,12.93,0,0,0,77.2,71.5a1,1,0,0,0,1.2.19.68.68,0,0,0,0-1.07A9.68,9.68,0,0,0,76.13,69.58Z"/><path class="cls-4" d="M78,74.82s1-1.33,1.46-1.5a.81.81,0,0,1,1.07.35.76.76,0,0,1-.52.94A15.35,15.35,0,0,1,78,74.82Z"/><path class="cls-4" d="M79,70a13.88,13.88,0,0,0,.82,2,1,1,0,0,0,1.17.36.68.68,0,0,0,.15-1.06A9.39,9.39,0,0,0,79,70Z"/><path class="cls-4" d="M86.32,76.45a.16.16,0,0,1,0,.23h0a.17.17,0,0,1-.23,0,14.1,14.1,0,0,0-6.45-3.81,21.11,21.11,0,0,0-7.54-.62h0a.16.16,0,0,1-.18-.14h0a.16.16,0,0,1,.16-.17,21.42,21.42,0,0,1,7.66.63,14.41,14.41,0,0,1,6.59,3.9Z"/></svg>