<svg id="Layer_1" data-name="Layer 1" xmlns="http://www.w3.org/2000/svg" viewBox="0 0 80 60"><defs><style>.cls-1{fill:#5df;}.cls-2{fill:#fff;}.cls-3{isolation:isolate;}</style></defs><title>Artboard 1</title><path id="path3031" class="cls-1" d="M40,0A20.24,20.24,0,1,1,19.76,20.24,20.22,20.22,0,0,1,40,0"/><g id="g3052"><path id="path2996" class="cls-2" d="M25.24,12.93h3.07a1.28,1.28,0,0,1,.81.24,1.32,1.32,0,0,1,.44.61l3.19,8.8c.16.4.28.81.44,1.25a14.43,14.43,0,0,1,.4,1.41c.12-.48.24-1,.36-1.41s.28-.89.4-1.25l3.15-8.8a1.45,1.45,0,0,1,.44-.57,1.28,1.28,0,0,1,.81-.24h3.11L35.26,29.44H31.78L25.24,12.93"/><path id="path2998" class="cls-2" d="M49.55,12.93a.87.87,0,0,0-.77.48l-2.87,4.93c0,.08-.12.2-.16.28a2,2,0,0,0-.12.28l-3.15-5.33-1.7,4.24,2,3.15-5.33,8.48H41a.85.85,0,0,0,.57-.16,1.26,1.26,0,0,0,.36-.44L45,23.51a1.49,1.49,0,0,0,.2-.44L48.5,28.8a1.26,1.26,0,0,0,.36.44,1,1,0,0,0,.61.16H53.3L48,20.76l5.17-7.83H49.55Z"/></g><path d="M3,58q-.44-.94-.88-1.95t-.82-2q-.39-1-.71-1.89T0,50.61H1.85q.21.65.46,1.39t.52,1.48l.51,1.42q.24.68.47,1.17.21-.49.46-1.17l.51-1.42Q5,52.75,5.3,52t.47-1.39H7.55L7,52.22q-.33.9-.71,1.89t-.82,2Q5,57.11,4.57,58Z"/><path d="M9.82,50.77a.88.88,0,0,1-.28.69,1,1,0,0,1-1.34,0,1,1,0,0,1,0-1.38,1,1,0,0,1,1.34,0A.88.88,0,0,1,9.82,50.77ZM9.67,58H8.07V52.4h1.6Z"/><path d="M12.47,56.9a1.6,1.6,0,0,0,.62-.09.33.33,0,0,0,.18-.33.41.41,0,0,0-.24-.34,4.5,4.5,0,0,0-.72-.33,7.28,7.28,0,0,1-.68-.29,2,2,0,0,1-.52-.36,1.45,1.45,0,0,1-.33-.5,1.85,1.85,0,0,1-.12-.7,1.51,1.51,0,0,1,.59-1.26,2.57,2.57,0,0,1,1.62-.46,5.2,5.2,0,0,1,1,.09,4.61,4.61,0,0,1,.75.2l-.28,1.25a5.92,5.92,0,0,0-.61-.17,3.31,3.31,0,0,0-.74-.08q-.75,0-.75.42a.43.43,0,0,0,0,.17.36.36,0,0,0,.13.14l.26.15.42.18A6.58,6.58,0,0,1,14,55a2.09,2.09,0,0,1,.54.41,1.27,1.27,0,0,1,.28.49,2.16,2.16,0,0,1,.08.62,1.43,1.43,0,0,1-.63,1.26,3.13,3.13,0,0,1-1.78.43,5,5,0,0,1-1.94-.34l.27-1.3a5.23,5.23,0,0,0,.84.25A4.07,4.07,0,0,0,12.47,56.9Z"/><path d="M20.56,57.85a8.86,8.86,0,0,1-1.05.22,8.66,8.66,0,0,1-1.35.1A3.21,3.21,0,0,1,17,58a1.82,1.82,0,0,1-.76-.54,2.11,2.11,0,0,1-.4-.83,4.47,4.47,0,0,1-.12-1.06V52.4h1.6v3a2.29,2.29,0,0,0,.2,1.12.81.81,0,0,0,.76.34l.37,0,.34,0V52.4h1.6Z"/><path d="M23.77,52.25a3.7,3.7,0,0,1,1.18.16,1.83,1.83,0,0,1,.76.46,1.7,1.7,0,0,1,.4.73,3.61,3.61,0,0,1,.12,1v3.33l-1,.18a9.17,9.17,0,0,1-1.48.1,4.7,4.7,0,0,1-1-.1,2.15,2.15,0,0,1-.77-.32,1.45,1.45,0,0,1-.49-.57,2,2,0,0,1-.17-.87,1.65,1.65,0,0,1,.2-.84,1.53,1.53,0,0,1,.53-.55,2.4,2.4,0,0,1,.76-.3,4.28,4.28,0,0,1,.89-.09,5.11,5.11,0,0,1,.55,0,2.48,2.48,0,0,1,.39.07v-.15a.89.89,0,0,0-.25-.65,1.2,1.2,0,0,0-.86-.25,5.5,5.5,0,0,0-.81.06,3.48,3.48,0,0,0-.69.17l-.2-1.29.35-.09.46-.09.52-.06Zm.13,4.68h.45l.34,0V55.67l-.29,0-.35,0-.42,0a1.11,1.11,0,0,0-.35.1.6.6,0,0,0-.24.2.57.57,0,0,0-.09.32.55.55,0,0,0,.25.52A1.39,1.39,0,0,0,23.9,56.93Z"/><path d="M29,58a2.44,2.44,0,0,1-1.16-.39,1.3,1.3,0,0,1-.34-.61,3.3,3.3,0,0,1-.09-.81V50l1.6-.26v6.15"/><g class="cls-3"><path d="M30.35,58V50.61h4.54v.89h-3.5v2.21H34.5v.87H31.39v2.58h3.77V58Z"/><path d="M39.53,58q-.12-.24-.29-.53t-.38-.6l-.42-.61L38,55.75l-.42.57-.41.61-.37.6q-.17.29-.29.52h-1a13.64,13.64,0,0,1,.9-1.49q.52-.76,1-1.44l-1.85-2.65h1.13l1.33,2,1.34-2h1.06L38.65,55q.52.7,1.06,1.48A12.84,12.84,0,0,1,40.62,58Z"/><path d="M46.27,55.26a3.93,3.93,0,0,1-.17,1.17,2.65,2.65,0,0,1-.49.92,2.22,2.22,0,0,1-.79.6,2.53,2.53,0,0,1-1.07.21A2.6,2.6,0,0,1,42.9,58a2.68,2.68,0,0,1-.55-.25V60h-1v-7.4l.89-.19a6.59,6.59,0,0,1,1.23-.1,3.13,3.13,0,0,1,1.16.2,2.48,2.48,0,0,1,.88.58,2.57,2.57,0,0,1,.56.92A3.52,3.52,0,0,1,46.27,55.26Zm-1,0a2.14,2.14,0,0,0-.48-1.5,1.66,1.66,0,0,0-1.29-.53,5.9,5.9,0,0,0-.7,0l-.4.08v3.52a2.05,2.05,0,0,0,.53.29,2,2,0,0,0,.75.14,1.6,1.6,0,0,0,.74-.16,1.35,1.35,0,0,0,.5-.43,1.82,1.82,0,0,0,.28-.64A3.55,3.55,0,0,0,45.23,55.26Z"/><path d="M47,55.26A3.56,3.56,0,0,1,47.26,54a2.7,2.7,0,0,1,.57-.92,2.31,2.31,0,0,1,.82-.55,2.55,2.55,0,0,1,.94-.18,2.15,2.15,0,0,1,1.73.7,3.23,3.23,0,0,1,.6,2.14v.17a1.54,1.54,0,0,1,0,.19H48.08a2,2,0,0,0,.5,1.32,1.85,1.85,0,0,0,1.37.45,3.66,3.66,0,0,0,.89-.09,3.2,3.2,0,0,0,.54-.18l.14.84a3,3,0,0,1-.64.2,4.55,4.55,0,0,1-1,.11A3.29,3.29,0,0,1,48.59,58a2.35,2.35,0,0,1-.87-.61,2.47,2.47,0,0,1-.51-.92A3.88,3.88,0,0,1,47,55.26Zm3.83-.55a1.68,1.68,0,0,0-.34-1.11,1.16,1.16,0,0,0-1-.43,1.32,1.32,0,0,0-.61.13,1.43,1.43,0,0,0-.45.35,1.6,1.6,0,0,0-.28.49,2.42,2.42,0,0,0-.13.57Z"/><path d="M55.09,52.34l.3,0,.33,0,.3.05.2,0-.17.87-.39-.1a3.45,3.45,0,0,0-.7-.06,2.63,2.63,0,0,0-.55.06l-.36.08V58H53V52.7a6.76,6.76,0,0,1,.88-.24A5.65,5.65,0,0,1,55.09,52.34Z"/><path d="M57.35,51.45a.64.64,0,0,1-.46-.18.7.7,0,0,1,0-1,.68.68,0,0,1,.91,0,.7.7,0,0,1,0,1A.64.64,0,0,1,57.35,51.45Zm.5,6.59h-1V52.46h1Z"/><path d="M58.94,55.26A3.56,3.56,0,0,1,59.15,54a2.7,2.7,0,0,1,.57-.92,2.31,2.31,0,0,1,.82-.55,2.55,2.55,0,0,1,.94-.18,2.15,2.15,0,0,1,1.73.7,3.23,3.23,0,0,1,.6,2.14v.17a1.54,1.54,0,0,1,0,.19H60a2,2,0,0,0,.5,1.32,1.85,1.85,0,0,0,1.37.45,3.66,3.66,0,0,0,.89-.09,3.2,3.2,0,0,0,.54-.18l.14.84a3,3,0,0,1-.64.2,4.55,4.55,0,0,1-1,.11A3.29,3.29,0,0,1,60.49,58a2.35,2.35,0,0,1-.87-.61,2.47,2.47,0,0,1-.51-.92A3.88,3.88,0,0,1,58.94,55.26Zm3.83-.55a1.68,1.68,0,0,0-.34-1.11,1.16,1.16,0,0,0-1-.43,1.32,1.32,0,0,0-.61.13,1.43,1.43,0,0,0-.45.35,1.6,1.6,0,0,0-.28.49,2.42,2.42,0,0,0-.13.57Z"/><path d="M64.93,52.62q.34-.09.91-.18a7.9,7.9,0,0,1,1.31-.1,2.83,2.83,0,0,1,1.11.19,1.73,1.73,0,0,1,.7.53,2,2,0,0,1,.37.81,4.71,4.71,0,0,1,.11,1V58h-1V55.13a4.75,4.75,0,0,0-.07-.88,1.49,1.49,0,0,0-.23-.59.92.92,0,0,0-.43-.33,1.89,1.89,0,0,0-.67-.1h-.33l-.33,0-.28,0-.18,0V58h-1Z"/><path d="M73.19,58.17A3,3,0,0,1,72,58a2.38,2.38,0,0,1-.86-.6,2.49,2.49,0,0,1-.52-.92,3.81,3.81,0,0,1-.17-1.18,3.55,3.55,0,0,1,.19-1.18,2.78,2.78,0,0,1,.53-.93,2.38,2.38,0,0,1,.84-.61,2.73,2.73,0,0,1,1.11-.22,4.42,4.42,0,0,1,.75.06,3.47,3.47,0,0,1,.72.2l-.23.85a2.42,2.42,0,0,0-.52-.17,3,3,0,0,0-.63-.06,1.59,1.59,0,0,0-1.28.53,2.32,2.32,0,0,0-.45,1.54,3.15,3.15,0,0,0,.1.83,1.7,1.7,0,0,0,.32.64,1.43,1.43,0,0,0,.56.41,2.15,2.15,0,0,0,.84.14,3.17,3.17,0,0,0,.72-.08,2.63,2.63,0,0,0,.5-.16l.14.84a1,1,0,0,1-.25.1l-.37.09-.43.06Z"/><path d="M75.13,55.26A3.56,3.56,0,0,1,75.34,54a2.7,2.7,0,0,1,.57-.92,2.31,2.31,0,0,1,.82-.55,2.55,2.55,0,0,1,.94-.18,2.15,2.15,0,0,1,1.73.7,3.23,3.23,0,0,1,.6,2.14v.17a1.54,1.54,0,0,1,0,.19H76.17a2,2,0,0,0,.5,1.32,1.85,1.85,0,0,0,1.37.45,3.66,3.66,0,0,0,.89-.09,3.2,3.2,0,0,0,.54-.18l.14.84a3,3,0,0,1-.64.2,4.55,4.55,0,0,1-1,.11A3.29,3.29,0,0,1,76.68,58a2.35,2.35,0,0,1-.87-.61,2.47,2.47,0,0,1-.51-.92A3.88,3.88,0,0,1,75.13,55.26ZM79,54.72a1.68,1.68,0,0,0-.34-1.11,1.16,1.16,0,0,0-1-.43,1.32,1.32,0,0,0-.61.13,1.43,1.43,0,0,0-.45.35,1.6,1.6,0,0,0-.28.49,2.42,2.42,0,0,0-.13.57Z"/></g></svg>