<svg id="Layer_1" data-name="Layer 1" xmlns="http://www.w3.org/2000/svg" viewBox="0 0 100 100"><defs><style>.cls-1{fill:#5df;}.cls-2{fill:#fff;}.cls-3{isolation:isolate;}</style></defs><title>Artboard 1</title><path id="path3031" class="cls-1" d="M49,19.77A20.47,20.47,0,1,1,28.56,40.24,20.45,20.45,0,0,1,49,19.77"/><g id="g3052"><path id="path2996" class="cls-2" d="M34.1,32.84h3.1a1.3,1.3,0,0,1,.82.24,1.33,1.33,0,0,1,.45.61l3.23,8.9c.16.41.29.82.45,1.27a14.6,14.6,0,0,1,.41,1.43c.12-.49.24-1,.37-1.43s.29-.9.41-1.27l3.18-8.9a1.47,1.47,0,0,1,.45-.57,1.3,1.3,0,0,1,.82-.24h3.14l-6.7,16.66H40.72L34.1,32.84"/><path id="path2998" class="cls-2" d="M58.68,32.84a.88.88,0,0,0-.78.49l-2.9,5c0,.08-.12.2-.16.29a2,2,0,0,0-.12.29L51.54,33.5l-1.71,4.29,2,3.18-5.39,8.57H50a.86.86,0,0,0,.57-.16,1.28,1.28,0,0,0,.37-.45l3.1-5.39a1.51,1.51,0,0,0,.2-.45l3.35,5.8a1.28,1.28,0,0,0,.37.45,1,1,0,0,0,.61.16h3.88l-5.35-8.74,5.23-7.92H58.68Z"/></g><path d="M11.76,78.48q-.45-.94-.88-2t-.83-2q-.39-1-.72-1.9T8.77,71h1.86q.21.65.47,1.4t.52,1.49l.51,1.43q.24.68.47,1.18.21-.49.46-1.18l.52-1.43q.27-.74.52-1.49t.47-1.4h1.79l-.58,1.62q-.33.91-.72,1.9t-.82,2q-.43,1-.88,2Z"/><path d="M18.65,71.16a.88.88,0,0,1-.29.7,1,1,0,0,1-1.35,0,1,1,0,0,1,0-1.39,1,1,0,0,1,1.35,0A.88.88,0,0,1,18.65,71.16Zm-.15,7.33H16.89V72.8H18.5Z"/><path d="M21.32,77.33a1.61,1.61,0,0,0,.63-.09.33.33,0,0,0,.18-.34.41.41,0,0,0-.24-.34,4.53,4.53,0,0,0-.72-.33,7.33,7.33,0,0,1-.69-.29,2,2,0,0,1-.52-.36,1.46,1.46,0,0,1-.34-.5,1.86,1.86,0,0,1-.12-.7,1.52,1.52,0,0,1,.59-1.26,2.59,2.59,0,0,1,1.63-.46,5.24,5.24,0,0,1,1,.09,4.64,4.64,0,0,1,.76.2l-.28,1.25a6,6,0,0,0-.61-.17,3.33,3.33,0,0,0-.74-.08q-.76,0-.76.42a.43.43,0,0,0,0,.17.37.37,0,0,0,.13.15l.26.15.43.18a6.63,6.63,0,0,1,.88.39,2.1,2.1,0,0,1,.55.41,1.27,1.27,0,0,1,.28.49,2.18,2.18,0,0,1,.08.63,1.44,1.44,0,0,1-.63,1.27,3.15,3.15,0,0,1-1.79.43,5.05,5.05,0,0,1-2-.35L19.63,77a5.27,5.27,0,0,0,.84.25A4.1,4.1,0,0,0,21.32,77.33Z"/><path d="M29.46,78.29a8.92,8.92,0,0,1-1.06.22,8.71,8.71,0,0,1-1.36.1,3.24,3.24,0,0,1-1.2-.19,1.83,1.83,0,0,1-.76-.55,2.13,2.13,0,0,1-.4-.84A4.5,4.5,0,0,1,24.55,76V72.8h1.61v3a2.3,2.3,0,0,0,.21,1.12.82.82,0,0,0,.77.35l.37,0,.35,0V72.8h1.61Z"/><path d="M32.69,72.65a3.73,3.73,0,0,1,1.19.16,1.85,1.85,0,0,1,.76.46A1.71,1.71,0,0,1,35,74a3.63,3.63,0,0,1,.12,1v3.35l-1,.18a9.23,9.23,0,0,1-1.49.1,4.73,4.73,0,0,1-1-.1,2.17,2.17,0,0,1-.77-.32,1.46,1.46,0,0,1-.5-.58,2,2,0,0,1-.17-.88,1.66,1.66,0,0,1,.2-.84,1.54,1.54,0,0,1,.53-.55,2.42,2.42,0,0,1,.77-.3,4.31,4.31,0,0,1,.9-.09,5.14,5.14,0,0,1,.56,0,2.49,2.49,0,0,1,.39.07V74.9a.89.89,0,0,0-.25-.66,1.2,1.2,0,0,0-.86-.25,5.53,5.53,0,0,0-.81.06,3.5,3.5,0,0,0-.69.17l-.21-1.3.35-.09.46-.09.52-.06Zm.13,4.71h.45l.35,0V76.1l-.29,0L33,76l-.43,0a1.12,1.12,0,0,0-.35.1.6.6,0,0,0-.24.21.57.57,0,0,0-.09.32.55.55,0,0,0,.25.52A1.4,1.4,0,0,0,32.82,77.36Z"/><path d="M37.91,78.44A2.46,2.46,0,0,1,36.74,78a1.31,1.31,0,0,1-.35-.62,3.32,3.32,0,0,1-.09-.82V70.36l1.61-.26v6.19"/><g class="cls-3"><path d="M39.31,78.48V71h4.57v.9H40.36v2.23H43.5V75H40.36v2.59h3.79v.9Z"/><path d="M48.55,78.48q-.12-.24-.29-.53t-.38-.6l-.42-.61L47,76.17l-.42.58-.42.62-.37.6q-.17.29-.29.52h-1a13.73,13.73,0,0,1,.9-1.5q.52-.76,1-1.45l-1.86-2.67h1.13l1.34,2,1.35-2h1.07l-1.82,2.6q.52.7,1.06,1.49a12.93,12.93,0,0,1,.92,1.53Z"/><path d="M55.34,75.68a4,4,0,0,1-.17,1.18,2.67,2.67,0,0,1-.49.93,2.23,2.23,0,0,1-.79.61,2.55,2.55,0,0,1-1.08.22,2.61,2.61,0,0,1-.86-.13,2.7,2.7,0,0,1-.56-.25v2.25h-1V73l.89-.19a6.63,6.63,0,0,1,1.24-.1,3.15,3.15,0,0,1,1.17.21,2.5,2.5,0,0,1,.89.58,2.58,2.58,0,0,1,.57.92A3.55,3.55,0,0,1,55.34,75.68Zm-1,0a2.16,2.16,0,0,0-.49-1.51,1.68,1.68,0,0,0-1.3-.53,5.94,5.94,0,0,0-.71,0l-.41.08v3.54a2.07,2.07,0,0,0,.53.29,2,2,0,0,0,.76.14,1.62,1.62,0,0,0,.74-.16,1.36,1.36,0,0,0,.5-.43,1.83,1.83,0,0,0,.28-.65A3.57,3.57,0,0,0,54.29,75.68Z"/><path d="M56.12,75.68a3.58,3.58,0,0,1,.22-1.3,2.72,2.72,0,0,1,.57-.92,2.33,2.33,0,0,1,.82-.55,2.57,2.57,0,0,1,1-.18,2.16,2.16,0,0,1,1.74.71A3.26,3.26,0,0,1,61,75.59v.17a1.55,1.55,0,0,1,0,.19H57.17a2.06,2.06,0,0,0,.51,1.33,1.86,1.86,0,0,0,1.38.45,3.69,3.69,0,0,0,.89-.09,3.22,3.22,0,0,0,.55-.18l.14.84a3,3,0,0,1-.64.21,4.58,4.58,0,0,1-1,.11,3.31,3.31,0,0,1-1.27-.22,2.37,2.37,0,0,1-.88-.61,2.49,2.49,0,0,1-.51-.92A3.9,3.9,0,0,1,56.12,75.68ZM60,75.13A1.69,1.69,0,0,0,59.63,74a1.17,1.17,0,0,0-1-.44,1.33,1.33,0,0,0-.61.14,1.44,1.44,0,0,0-.45.35,1.61,1.61,0,0,0-.29.5,2.44,2.44,0,0,0-.14.57Z"/><path d="M64.22,72.75l.3,0,.33,0,.3.05.2,0-.17.88-.39-.1a3.47,3.47,0,0,0-.71-.06,2.65,2.65,0,0,0-.56.06l-.36.08v4.72h-1V73.1a6.81,6.81,0,0,1,.89-.24A5.69,5.69,0,0,1,64.22,72.75Z"/><path d="M66.49,71.85a.64.64,0,0,1-.46-.18.71.71,0,0,1,0-1,.68.68,0,0,1,.92,0,.71.71,0,0,1,0,1A.64.64,0,0,1,66.49,71.85ZM67,78.48H66V72.86h1Z"/><path d="M68.09,75.68a3.58,3.58,0,0,1,.22-1.3,2.72,2.72,0,0,1,.57-.92,2.33,2.33,0,0,1,.82-.55,2.57,2.57,0,0,1,1-.18,2.16,2.16,0,0,1,1.74.71A3.26,3.26,0,0,1,73,75.59v.17a1.55,1.55,0,0,1,0,.19H69.14a2.06,2.06,0,0,0,.51,1.33,1.86,1.86,0,0,0,1.38.45,3.69,3.69,0,0,0,.89-.09,3.22,3.22,0,0,0,.55-.18l.14.84a3,3,0,0,1-.64.21,4.58,4.58,0,0,1-1,.11,3.31,3.31,0,0,1-1.27-.22,2.37,2.37,0,0,1-.88-.61,2.49,2.49,0,0,1-.51-.92A3.9,3.9,0,0,1,68.09,75.68Zm3.86-.55A1.69,1.69,0,0,0,71.61,74a1.17,1.17,0,0,0-1-.44,1.33,1.33,0,0,0-.61.14,1.44,1.44,0,0,0-.45.35,1.61,1.61,0,0,0-.29.5,2.44,2.44,0,0,0-.14.57Z"/><path d="M74.12,73q.35-.09.92-.18a8,8,0,0,1,1.32-.1,2.85,2.85,0,0,1,1.11.19,1.74,1.74,0,0,1,.71.53,2.05,2.05,0,0,1,.37.82,4.74,4.74,0,0,1,.11,1v3.16h-1V75.54a4.79,4.79,0,0,0-.07-.89,1.5,1.5,0,0,0-.23-.59.92.92,0,0,0-.43-.33,1.9,1.9,0,0,0-.67-.1h-.33l-.33,0-.28,0-.18,0v4.74h-1Z"/><path d="M82.44,78.61a3.06,3.06,0,0,1-1.19-.22,2.4,2.4,0,0,1-.86-.61,2.51,2.51,0,0,1-.52-.92,3.83,3.83,0,0,1-.17-1.18,3.57,3.57,0,0,1,.19-1.19,2.8,2.8,0,0,1,.53-.93,2.4,2.4,0,0,1,.85-.62,2.74,2.74,0,0,1,1.12-.22,4.45,4.45,0,0,1,.76.06,3.49,3.49,0,0,1,.72.21l-.23.85a2.44,2.44,0,0,0-.52-.17,3,3,0,0,0-.63-.06,1.6,1.6,0,0,0-1.29.53,2.33,2.33,0,0,0-.45,1.55,3.17,3.17,0,0,0,.1.83,1.71,1.71,0,0,0,.32.65,1.44,1.44,0,0,0,.57.42,2.17,2.17,0,0,0,.84.15,3.19,3.19,0,0,0,.72-.08,2.64,2.64,0,0,0,.51-.16l.14.84a1,1,0,0,1-.25.1l-.37.09-.44.06Z"/><path d="M84.38,75.68a3.58,3.58,0,0,1,.22-1.3,2.72,2.72,0,0,1,.57-.92,2.33,2.33,0,0,1,.82-.55,2.57,2.57,0,0,1,1-.18,2.16,2.16,0,0,1,1.74.71,3.26,3.26,0,0,1,.61,2.16v.17a1.55,1.55,0,0,1,0,.19H85.43a2.06,2.06,0,0,0,.51,1.33,1.86,1.86,0,0,0,1.38.45,3.69,3.69,0,0,0,.89-.09,3.22,3.22,0,0,0,.55-.18l.14.84a3,3,0,0,1-.64.21,4.58,4.58,0,0,1-1,.11,3.31,3.31,0,0,1-1.27-.22,2.37,2.37,0,0,1-.88-.61,2.49,2.49,0,0,1-.51-.92A3.9,3.9,0,0,1,84.38,75.68Zm3.86-.55A1.69,1.69,0,0,0,87.9,74a1.17,1.17,0,0,0-1-.44,1.33,1.33,0,0,0-.61.14,1.44,1.44,0,0,0-.45.35,1.61,1.61,0,0,0-.29.5,2.44,2.44,0,0,0-.14.57Z"/></g></svg>