<?xml version="1.0" encoding="utf-8"?>
<!-- Generator: Adobe Illustrator 20.0.0, SVG Export Plug-In . SVG Version: 6.00 Build 0)  -->
<svg version="1.1" id="Layer_1" xmlns="http://www.w3.org/2000/svg" xmlns:xlink="http://www.w3.org/1999/xlink" x="0px" y="0px"
	 viewBox="0 0 80 60" style="enable-background:new 0 0 80 60;" xml:space="preserve">
<style type="text/css">
	.st0{fill:#55DDFF;}
	.st1{fill:#FFFFFF;}
	.st2{enable-background:new    ;}
</style>
<g>
	<g>
		
			<path id="path3031_1_" sodipodi:cx="216.94536" sodipodi:cy="576.10663" sodipodi:rx="47.485893" sodipodi:ry="47.485893" sodipodi:type="arc" class="st0" d="
			M40,0c11.2,0,20.2,9.1,20.2,20.2c0,11.2-9.1,20.2-20.2,20.2c-11.2,0-20.2-9.1-20.2-20.2S28.8,0,40,0"/>
		<g id="g3052_1_" transform="matrix(0.96360137,0,0,0.96360137,162.89339,-91.371123)">
			<path id="path2996_1_" inkscape:connector-curvature="0" class="st1" d="M-142.8,108.2h3.2c0.3,0,0.6,0.1,0.8,0.3
				s0.4,0.4,0.5,0.6l3.3,9.1c0.2,0.4,0.3,0.8,0.5,1.3c0.2,0.5,0.3,1,0.4,1.5c0.1-0.5,0.3-1,0.4-1.5c0.2-0.5,0.3-0.9,0.4-1.3l3.3-9.1
				c0.1-0.2,0.3-0.4,0.5-0.6s0.5-0.3,0.8-0.3h3.2l-6.9,17.1h-3.6L-142.8,108.2"/>
			<path id="path2998_1_" inkscape:connector-curvature="0" class="st1" d="M-117.6,108.2c-0.3,0-0.6,0.2-0.8,0.5l-3,5.1
				c0,0.1-0.1,0.2-0.2,0.3c0,0.1-0.1,0.2-0.1,0.3l-3.3-5.5l-1.8,4.4l2.1,3.3l-5.5,8.8h3.7c0.3,0,0.4,0,0.6-0.2
				c0.2-0.1,0.3-0.3,0.4-0.5l3.2-5.5c0.1-0.1,0.2-0.3,0.2-0.5l3.4,5.9c0.1,0.2,0.2,0.3,0.4,0.5c0.2,0.1,0.4,0.2,0.6,0.2h4l-5.5-9
				l5.4-8.1L-117.6,108.2L-117.6,108.2z"/>
		</g>
	</g>
	<g>
		<path d="M3,58c-0.3-0.6-0.6-1.3-0.9-1.9c-0.3-0.7-0.6-1.3-0.8-2c-0.3-0.7-0.5-1.3-0.7-1.9c-0.2-0.6-0.4-1.1-0.6-1.6h1.8
			C2,51,2.1,51.5,2.3,52s0.3,1,0.5,1.5c0.2,0.5,0.3,1,0.5,1.4c0.2,0.5,0.3,0.8,0.5,1.2c0.1-0.3,0.3-0.7,0.5-1.2
			c0.2-0.5,0.3-0.9,0.5-1.4C5,53,5.1,52.5,5.3,52c0.2-0.5,0.3-1,0.5-1.4h1.8c-0.2,0.5-0.4,1-0.6,1.6c-0.2,0.6-0.5,1.2-0.7,1.9
			c-0.3,0.7-0.5,1.3-0.8,2c-0.3,0.7-0.6,1.3-0.9,1.9H3z"/>
		<path d="M9.8,50.8c0,0.3-0.1,0.5-0.3,0.7c-0.2,0.2-0.4,0.3-0.7,0.3s-0.5-0.1-0.7-0.3c-0.2-0.2-0.3-0.4-0.3-0.7
			c0-0.3,0.1-0.5,0.3-0.7c0.2-0.2,0.4-0.3,0.7-0.3s0.5,0.1,0.7,0.3C9.7,50.2,9.8,50.5,9.8,50.8z M9.7,58H8.1v-5.6h1.6V58z"/>
		<path d="M12.5,56.9c0.3,0,0.5,0,0.6-0.1c0.1-0.1,0.2-0.2,0.2-0.3c0-0.1-0.1-0.2-0.2-0.3c-0.2-0.1-0.4-0.2-0.7-0.3
			c-0.3-0.1-0.5-0.2-0.7-0.3c-0.2-0.1-0.4-0.2-0.5-0.4c-0.1-0.1-0.3-0.3-0.3-0.5c-0.1-0.2-0.1-0.4-0.1-0.7c0-0.5,0.2-0.9,0.6-1.3
			c0.4-0.3,0.9-0.5,1.6-0.5c0.3,0,0.7,0,1,0.1c0.3,0.1,0.6,0.1,0.8,0.2l-0.3,1.2c-0.2-0.1-0.4-0.1-0.6-0.2c-0.2,0-0.5-0.1-0.7-0.1
			c-0.5,0-0.8,0.1-0.8,0.4c0,0.1,0,0.1,0,0.2c0,0.1,0.1,0.1,0.1,0.1c0.1,0,0.2,0.1,0.3,0.2c0.1,0.1,0.3,0.1,0.4,0.2
			c0.4,0.1,0.6,0.3,0.9,0.4c0.2,0.1,0.4,0.3,0.5,0.4c0.1,0.1,0.2,0.3,0.3,0.5c0.1,0.2,0.1,0.4,0.1,0.6c0,0.6-0.2,1-0.6,1.3
			c-0.4,0.3-1,0.4-1.8,0.4c-0.5,0-0.9,0-1.3-0.1c-0.3-0.1-0.6-0.2-0.7-0.2l0.3-1.3c0.3,0.1,0.6,0.2,0.8,0.3
			C11.9,56.9,12.2,56.9,12.5,56.9z"/>
		<path d="M20.6,57.9c-0.3,0.1-0.6,0.2-1.1,0.2c-0.4,0.1-0.9,0.1-1.4,0.1c-0.5,0-0.9-0.1-1.2-0.2c-0.3-0.1-0.6-0.3-0.8-0.5
			c-0.2-0.2-0.3-0.5-0.4-0.8c-0.1-0.3-0.1-0.7-0.1-1.1v-3.1h1.6v3c0,0.5,0.1,0.9,0.2,1.1c0.1,0.2,0.4,0.3,0.8,0.3c0.1,0,0.2,0,0.4,0
			c0.1,0,0.2,0,0.3,0v-4.4h1.6V57.9z"/>
		<path d="M23.8,52.2c0.5,0,0.9,0.1,1.2,0.2c0.3,0.1,0.6,0.3,0.8,0.5c0.2,0.2,0.3,0.4,0.4,0.7c0.1,0.3,0.1,0.6,0.1,1v3.3
			c-0.2,0-0.5,0.1-1,0.2c-0.4,0.1-0.9,0.1-1.5,0.1c-0.4,0-0.7,0-1-0.1c-0.3-0.1-0.6-0.2-0.8-0.3c-0.2-0.1-0.4-0.3-0.5-0.6
			c-0.1-0.2-0.2-0.5-0.2-0.9c0-0.3,0.1-0.6,0.2-0.8c0.1-0.2,0.3-0.4,0.5-0.5c0.2-0.1,0.5-0.2,0.8-0.3c0.3-0.1,0.6-0.1,0.9-0.1
			c0.2,0,0.4,0,0.6,0c0.2,0,0.3,0,0.4,0.1v-0.2c0-0.3-0.1-0.5-0.2-0.7c-0.2-0.2-0.5-0.2-0.9-0.2c-0.3,0-0.5,0-0.8,0.1
			c-0.3,0-0.5,0.1-0.7,0.2l-0.2-1.3c0.1,0,0.2-0.1,0.3-0.1c0.1,0,0.3-0.1,0.5-0.1c0.2,0,0.3,0,0.5-0.1
			C23.4,52.3,23.6,52.2,23.8,52.2z M23.9,56.9c0.2,0,0.3,0,0.5,0c0.1,0,0.3,0,0.3,0v-1.2c-0.1,0-0.2,0-0.3,0c-0.1,0-0.2,0-0.4,0
			c-0.2,0-0.3,0-0.4,0c-0.1,0-0.2,0.1-0.3,0.1c-0.1,0.1-0.2,0.1-0.2,0.2C23,56,23,56.1,23,56.3c0,0.3,0.1,0.4,0.3,0.5
			C23.4,56.9,23.6,56.9,23.9,56.9z"/>
		<path d="M29,58c-0.3,0-1-0.2-1.2-0.4c-0.2-0.2-0.3-0.4-0.3-0.6c-0.1-0.2-0.1-0.5-0.1-0.8V50l1.6-0.3v6.2"/>
		<g class="st2">
			<path d="M30.4,58v-7.4h4.5v0.9h-3.5v2.2h3.1v0.9h-3.1v2.6h3.8V58H30.4z"/>
			<path d="M39.5,58c-0.1-0.2-0.2-0.3-0.3-0.5c-0.1-0.2-0.2-0.4-0.4-0.6c-0.1-0.2-0.3-0.4-0.4-0.6c-0.1-0.2-0.3-0.4-0.4-0.6
				c-0.1,0.2-0.3,0.4-0.4,0.6c-0.1,0.2-0.3,0.4-0.4,0.6c-0.1,0.2-0.3,0.4-0.4,0.6c-0.1,0.2-0.2,0.4-0.3,0.5h-1
				c0.3-0.5,0.5-1,0.9-1.5c0.3-0.5,0.7-1,1-1.4l-1.8-2.7h1.1l1.3,2l1.3-2h1.1L38.6,55c0.3,0.5,0.7,1,1.1,1.5c0.4,0.5,0.7,1,0.9,1.5
				H39.5z"/>
			<path d="M46.3,55.3c0,0.4-0.1,0.8-0.2,1.2c-0.1,0.4-0.3,0.7-0.5,0.9c-0.2,0.3-0.5,0.5-0.8,0.6c-0.3,0.1-0.7,0.2-1.1,0.2
				c-0.3,0-0.6,0-0.9-0.1c-0.2-0.1-0.4-0.2-0.6-0.2V60h-1v-7.4c0.2-0.1,0.5-0.1,0.9-0.2c0.4-0.1,0.8-0.1,1.2-0.1
				c0.4,0,0.8,0.1,1.2,0.2c0.3,0.1,0.6,0.3,0.9,0.6c0.2,0.3,0.4,0.6,0.6,0.9C46.2,54.4,46.3,54.8,46.3,55.3z M45.2,55.3
				c0-0.7-0.2-1.2-0.5-1.5c-0.3-0.4-0.8-0.5-1.3-0.5c-0.3,0-0.5,0-0.7,0c-0.2,0-0.3,0-0.4,0.1v3.5c0.1,0.1,0.3,0.2,0.5,0.3
				c0.2,0.1,0.5,0.1,0.8,0.1c0.3,0,0.5-0.1,0.7-0.2c0.2-0.1,0.4-0.2,0.5-0.4c0.1-0.2,0.2-0.4,0.3-0.6C45.2,55.8,45.2,55.6,45.2,55.3
				z"/>
			<path d="M47,55.3c0-0.5,0.1-0.9,0.2-1.3c0.1-0.4,0.3-0.7,0.6-0.9c0.2-0.2,0.5-0.4,0.8-0.5c0.3-0.1,0.6-0.2,0.9-0.2
				c0.8,0,1.3,0.2,1.7,0.7c0.4,0.5,0.6,1.2,0.6,2.1c0,0,0,0.1,0,0.2c0,0.1,0,0.1,0,0.2h-3.8c0,0.6,0.2,1,0.5,1.3
				c0.3,0.3,0.8,0.5,1.4,0.5c0.4,0,0.6,0,0.9-0.1c0.2-0.1,0.4-0.1,0.5-0.2l0.1,0.8c-0.1,0.1-0.3,0.1-0.6,0.2c-0.3,0.1-0.6,0.1-1,0.1
				c-0.5,0-0.9-0.1-1.3-0.2c-0.4-0.1-0.6-0.3-0.9-0.6c-0.2-0.3-0.4-0.6-0.5-0.9C47.1,56.1,47,55.7,47,55.3z M50.9,54.7
				c0-0.5-0.1-0.8-0.3-1.1c-0.2-0.3-0.6-0.4-1-0.4c-0.2,0-0.4,0-0.6,0.1c-0.2,0.1-0.3,0.2-0.4,0.3c-0.1,0.1-0.2,0.3-0.3,0.5
				c-0.1,0.2-0.1,0.4-0.1,0.6H50.9z"/>
			<path d="M55.1,52.3c0.1,0,0.2,0,0.3,0c0.1,0,0.2,0,0.3,0c0.1,0,0.2,0,0.3,0.1c0.1,0,0.2,0,0.2,0L56,53.4c-0.1,0-0.2-0.1-0.4-0.1
				c-0.2,0-0.4-0.1-0.7-0.1c-0.2,0-0.4,0-0.6,0.1c-0.2,0-0.3,0.1-0.4,0.1V58h-1v-5.3c0.2-0.1,0.5-0.2,0.9-0.2
				C54.3,52.4,54.7,52.3,55.1,52.3z"/>
			<path d="M57.3,51.5c-0.2,0-0.3-0.1-0.5-0.2c-0.1-0.1-0.2-0.3-0.2-0.5c0-0.2,0.1-0.4,0.2-0.5c0.1-0.1,0.3-0.2,0.5-0.2
				c0.2,0,0.3,0.1,0.5,0.2c0.1,0.1,0.2,0.3,0.2,0.5c0,0.2-0.1,0.4-0.2,0.5C57.7,51.4,57.5,51.5,57.3,51.5z M57.9,58h-1v-5.6h1V58z"
				/>
			<path d="M58.9,55.3c0-0.5,0.1-0.9,0.2-1.3c0.1-0.4,0.3-0.7,0.6-0.9c0.2-0.2,0.5-0.4,0.8-0.5c0.3-0.1,0.6-0.2,0.9-0.2
				c0.8,0,1.3,0.2,1.7,0.7c0.4,0.5,0.6,1.2,0.6,2.1c0,0,0,0.1,0,0.2c0,0.1,0,0.1,0,0.2H60c0,0.6,0.2,1,0.5,1.3
				c0.3,0.3,0.8,0.5,1.4,0.5c0.4,0,0.6,0,0.9-0.1c0.2-0.1,0.4-0.1,0.5-0.2l0.1,0.8c-0.1,0.1-0.3,0.1-0.6,0.2c-0.3,0.1-0.6,0.1-1,0.1
				c-0.5,0-0.9-0.1-1.3-0.2c-0.4-0.1-0.6-0.3-0.9-0.6c-0.2-0.3-0.4-0.6-0.5-0.9C59,56.1,58.9,55.7,58.9,55.3z M62.8,54.7
				c0-0.5-0.1-0.8-0.3-1.1c-0.2-0.3-0.6-0.4-1-0.4c-0.2,0-0.4,0-0.6,0.1c-0.2,0.1-0.3,0.2-0.4,0.3c-0.1,0.1-0.2,0.3-0.3,0.5
				c-0.1,0.2-0.1,0.4-0.1,0.6H62.8z"/>
			<path d="M64.9,52.6c0.2-0.1,0.5-0.1,0.9-0.2c0.4-0.1,0.8-0.1,1.3-0.1c0.4,0,0.8,0.1,1.1,0.2c0.3,0.1,0.5,0.3,0.7,0.5
				c0.2,0.2,0.3,0.5,0.4,0.8c0.1,0.3,0.1,0.7,0.1,1V58h-1v-2.9c0-0.3,0-0.6-0.1-0.9c0-0.2-0.1-0.4-0.2-0.6c-0.1-0.2-0.3-0.3-0.4-0.3
				c-0.2-0.1-0.4-0.1-0.7-0.1c-0.1,0-0.2,0-0.3,0c-0.1,0-0.2,0-0.3,0c-0.1,0-0.2,0-0.3,0c-0.1,0-0.1,0-0.2,0V58h-1V52.6z"/>
			<path d="M73.2,58.2c-0.5,0-0.8-0.1-1.2-0.2c-0.3-0.1-0.6-0.3-0.9-0.6c-0.2-0.3-0.4-0.6-0.5-0.9c-0.1-0.4-0.2-0.7-0.2-1.2
				c0-0.4,0.1-0.8,0.2-1.2c0.1-0.4,0.3-0.7,0.5-0.9c0.2-0.3,0.5-0.5,0.8-0.6c0.3-0.1,0.7-0.2,1.1-0.2c0.3,0,0.5,0,0.8,0.1
				c0.3,0,0.5,0.1,0.7,0.2l-0.2,0.8c-0.2-0.1-0.3-0.1-0.5-0.2c-0.2,0-0.4-0.1-0.6-0.1c-0.6,0-1,0.2-1.3,0.5
				c-0.3,0.4-0.4,0.9-0.4,1.5c0,0.3,0,0.6,0.1,0.8c0.1,0.3,0.2,0.5,0.3,0.6c0.1,0.2,0.3,0.3,0.6,0.4c0.2,0.1,0.5,0.1,0.8,0.1
				c0.3,0,0.5,0,0.7-0.1c0.2,0,0.4-0.1,0.5-0.2l0.1,0.8c-0.1,0-0.1,0.1-0.2,0.1c-0.1,0-0.2,0.1-0.4,0.1s-0.3,0-0.4,0.1
				C73.5,58.2,73.3,58.2,73.2,58.2z"/>
			<path d="M75.1,55.3c0-0.5,0.1-0.9,0.2-1.3c0.1-0.4,0.3-0.7,0.6-0.9c0.2-0.2,0.5-0.4,0.8-0.5c0.3-0.1,0.6-0.2,0.9-0.2
				c0.8,0,1.3,0.2,1.7,0.7c0.4,0.5,0.6,1.2,0.6,2.1c0,0,0,0.1,0,0.2c0,0.1,0,0.1,0,0.2h-3.8c0,0.6,0.2,1,0.5,1.3
				c0.3,0.3,0.8,0.5,1.4,0.5c0.4,0,0.6,0,0.9-0.1c0.2-0.1,0.4-0.1,0.5-0.2l0.1,0.8c-0.1,0.1-0.3,0.1-0.6,0.2s-0.6,0.1-1,0.1
				c-0.5,0-0.9-0.1-1.3-0.2c-0.4-0.1-0.6-0.3-0.9-0.6c-0.2-0.3-0.4-0.6-0.5-0.9C75.2,56.1,75.1,55.7,75.1,55.3z M79,54.7
				c0-0.5-0.1-0.8-0.3-1.1c-0.2-0.3-0.6-0.4-1-0.4c-0.2,0-0.4,0-0.6,0.1c-0.2,0.1-0.3,0.2-0.4,0.3c-0.1,0.1-0.2,0.3-0.3,0.5
				c-0.1,0.2-0.1,0.4-0.1,0.6H79z"/>
		</g>
	</g>
</g>
</svg>
