<?xml version="1.0" encoding="UTF-8" standalone="no"?>
<!-- Created with Inkscape (http://www.inkscape.org/) -->

<svg
   xmlns:dc="http://purl.org/dc/elements/1.1/"
   xmlns:cc="http://creativecommons.org/ns#"
   xmlns:rdf="http://www.w3.org/1999/02/22-rdf-syntax-ns#"
   xmlns:svg="http://www.w3.org/2000/svg"
   xmlns="http://www.w3.org/2000/svg"
   xmlns:sodipodi="http://sodipodi.sourceforge.net/DTD/sodipodi-0.dtd"
   xmlns:inkscape="http://www.inkscape.org/namespaces/inkscape"
   width="210mm"
   height="297mm"
   id="svg2"
   version="1.1"
   inkscape:version="0.48.3.1 r9886"
   sodipodi:docname="Nuevo documento 1">
  <defs
     id="defs4" />
  <sodipodi:namedview
     id="base"
     pagecolor="#ffffff"
     bordercolor="#666666"
     borderopacity="1.0"
     inkscape:pageopacity="0.0"
     inkscape:pageshadow="2"
     inkscape:zoom="0.54430551"
     inkscape:cx="340.72873"
     inkscape:cy="510.09955"
     inkscape:document-units="px"
     inkscape:current-layer="layer1"
     showgrid="false"
     inkscape:window-width="1360"
     inkscape:window-height="744"
     inkscape:window-x="0"
     inkscape:window-y="24"
     inkscape:window-maximized="1" />
  <metadata
     id="metadata7">
    <rdf:RDF>
      <cc:Work
         rdf:about="">
        <dc:format>image/svg+xml</dc:format>
        <dc:type
           rdf:resource="http://purl.org/dc/dcmitype/StillImage" />
        <dc:title></dc:title>
      </cc:Work>
    </rdf:RDF>
  </metadata>
  <g
     inkscape:label="Capa 1"
     inkscape:groupmode="layer"
     id="layer1">
    <g
       id="g3082"
       transform="translate(-2.1730672,0)">
      <path
         transform="matrix(1.0176082,0,0,1.0176082,149.87878,-140.00394)"
         d="m 264.43125,576.10663 c 0,26.22573 -21.26016,47.48589 -47.48589,47.48589 -26.22574,0 -47.48589,-21.26016 -47.48589,-47.48589 0,-26.22574 21.26015,-47.48589 47.48589,-47.48589 26.22573,0 47.48589,21.26015 47.48589,47.48589 z"
         sodipodi:ry="47.485893"
         sodipodi:rx="47.485893"
         sodipodi:cy="576.10663"
         sodipodi:cx="216.94536"
         id="path3031"
         style="color:#000000;fill:#55ddff;fill-opacity:1;fill-rule:nonzero;stroke:none;stroke-width:0;marker:none;visibility:visible;display:inline;overflow:visible;enable-background:accumulate"
         sodipodi:type="arc" />
      <g
         transform="matrix(0.96360137,0,0,0.96360137,162.89339,-91.371123)"
         id="g3052">
        <path
           inkscape:connector-curvature="0"
           id="path2996"
           style="font-size:56px;font-style:normal;font-variant:normal;font-weight:900;font-stretch:normal;text-align:start;line-height:125%;letter-spacing:0px;word-spacing:0px;writing-mode:lr-tb;text-anchor:start;color:#000000;fill:#ffffff;fill-opacity:1;fill-rule:nonzero;stroke:none;marker:none;visibility:visible;display:inline;overflow:visible;enable-background:accumulate;font-family:Lato;-inkscape-font-specification:Lato Heavy"
           d="m 179.06923,539.88759 7.616,0 c 0.82132,4e-5 1.49332,0.18671 2.016,0.56 0.52266,0.37338 0.89599,0.86804 1.12,1.484 l 7.896,21.84 c 0.35465,0.95202 0.70931,1.98802 1.064,3.108 0.37331,1.12002 0.71865,2.29602 1.036,3.528 0.26131,-1.23198 0.55998,-2.40798 0.896,-3.528 0.35464,-1.11998 0.69998,-2.15598 1.036,-3.108 l 7.84,-21.84 c 0.18664,-0.52262 0.55063,-0.98929 1.092,-1.4 0.5413,-0.42929 1.20397,-0.64396 1.988,-0.644 l 7.672,0 -16.352,40.796 -8.568,0 -16.352,-40.796" />
        <path
           inkscape:connector-curvature="0"
           style="font-size:56px;font-style:normal;font-variant:normal;font-weight:900;font-stretch:normal;text-align:start;line-height:125%;letter-spacing:0px;word-spacing:0px;writing-mode:lr-tb;text-anchor:start;fill:#ffffff;fill-opacity:1;stroke:none;font-family:Lato;-inkscape-font-specification:Lato Heavy"
           d="m 239.25,539.875 c -0.8027,4e-5 -1.43962,0.40354 -1.90625,1.1875 L 230.25,553.28125 c -0.14936,0.2427 -0.30686,0.46353 -0.4375,0.6875 -0.11202,0.22403 -0.2192,0.44486 -0.3125,0.6875 L 221.6875,541.5 217.5,551.96875 l 4.9375,7.75 -13.15625,20.96875 8.84375,0 c 0.55999,0 1.0329,-0.13883 1.40625,-0.4375 0.37332,-0.31733 0.68224,-0.70175 0.90625,-1.09375 l 7.625,-13.1875 c 0.18664,-0.29865 0.35064,-0.65181 0.5,-1.0625 l 8.15625,14.25 c 0.22397,0.41067 0.53289,0.79509 0.90625,1.09375 0.39197,0.29867 0.88397,0.4375 1.5,0.4375 l 9.46875,0 -13.0625,-21.40625 12.78125,-19.40625 -9.0625,0 z"
           id="path2998" />
      </g>
    </g>
    <text
       xml:space="preserve"
       style="font-size:50.35010147px;font-style:normal;font-variant:normal;font-weight:normal;font-stretch:normal;text-align:start;line-height:125%;letter-spacing:0px;word-spacing:0px;writing-mode:lr-tb;text-anchor:start;fill:#000000;fill-opacity:1;stroke:none;font-family:Lato;-inkscape-font-specification:Lato"
       x="174.27153"
       y="555.50824"
       id="text3060"
       sodipodi:linespacing="125%"><tspan
         sodipodi:role="line"
         id="tspan3062"
         x="174.27153"
         y="555.50824"><tspan
   style="font-size:50.35010147px;font-style:normal;font-variant:normal;font-weight:900;font-stretch:normal;text-align:start;line-height:125%;writing-mode:lr-tb;text-anchor:start;font-family:Lato;-inkscape-font-specification:Lato Heavy"
   id="tspan3064">Visual</tspan>Experience</tspan></text>
    <text
       xml:space="preserve"
       style="font-size:18.67409325px;font-style:normal;font-variant:normal;font-weight:normal;font-stretch:normal;text-align:start;line-height:125%;letter-spacing:0px;word-spacing:0px;writing-mode:lr-tb;text-anchor:start;fill:#000000;fill-opacity:1;stroke:none;font-family:Lato;-inkscape-font-specification:Lato"
       x="250.09747"
       y="588.6109"
       id="text3074"
       sodipodi:linespacing="125%"><tspan
         sodipodi:role="line"
         id="tspan3076"
         x="250.09747"
         y="588.6109"
         style="font-size:18.67409325px;font-style:normal;font-variant:normal;font-weight:normal;font-stretch:normal;text-align:start;line-height:125%;writing-mode:lr-tb;text-anchor:start;font-family:Lato;-inkscape-font-specification:Lato">COMMUNICATION DESIGN</tspan></text>
  </g>
</svg>
